<?xml version="1.0" encoding="UTF-8" standalone="no"?>
<!-- Created with Inkscape (http://www.inkscape.org/) -->

<svg
   width="51.304573mm"
   height="51.322948mm"
   viewBox="0 0 51.304573 51.322949"
   version="1.1"
   id="svg16369"
   sodipodi:docname="crate.svg"
   inkscape:version="1.2.1 (9c6d41e410, 2022-07-14)"
   xmlns:inkscape="http://www.inkscape.org/namespaces/inkscape"
   xmlns:sodipodi="http://sodipodi.sourceforge.net/DTD/sodipodi-0.dtd"
   xmlns="http://www.w3.org/2000/svg"
   xmlns:svg="http://www.w3.org/2000/svg">
  <sodipodi:namedview
     id="namedview6"
     pagecolor="#ffffff"
     bordercolor="#666666"
     borderopacity="1.0"
     inkscape:showpageshadow="2"
     inkscape:pageopacity="0.0"
     inkscape:pagecheckerboard="0"
     inkscape:deskcolor="#d1d1d1"
     inkscape:document-units="mm"
     showgrid="false"
     inkscape:zoom="5.2944558"
     inkscape:cx="36.075474"
     inkscape:cy="96.893811"
     inkscape:window-width="2560"
     inkscape:window-height="1411"
     inkscape:window-x="0"
     inkscape:window-y="0"
     inkscape:window-maximized="1"
     inkscape:current-layer="svg16369" />
  <defs
     id="defs16366" />
  <path
     id="path4361"
     style="fill:#09328b;fill-opacity:1;stroke:#09328b;stroke-width:0.523;stroke-linecap:round;stroke-linejoin:round;stroke-miterlimit:7;stroke-dasharray:none;stroke-opacity:1;paint-order:stroke fill markers"
     d="m 22.71767,0.662984 c -0.401277,0.01595 -0.793064,0.145095 -1.133781,0.366903 L 1.6259342,13.973282 c -0.6341506,0.412343 -0.9968943,1.11565 -0.9622154,1.853634 l 1.1436004,23.283849 c 0.0425,0.856456 0.612513,1.603289 1.449523,1.887219 l 28.1533198,9.55291 c 0.23232,0.0788 0.468206,0.10861 0.706419,0.11059 0.579167,10e-4 1.140102,-0.22773 1.559594,-0.64337 L 49.91911,33.940021 c 0.39462,-0.391163 0.61364,-0.901272 0.614949,-1.447972 l 0.109038,-23.17533 c 0.004,-0.960372 -0.671232,-1.809248 -1.631942,-2.054138 L 23.342439,0.737398 c -0.15117,-0.03971 -0.299691,-0.06794 -0.45217,-0.0739 -0.05759,-0.0024 -0.115274,-0.0028 -0.172599,-5.29e-4 z m 0.298173,2.805512 c 2.346129,0.597667 4.687548,1.200592 7.03368,1.796275 L 15.168259,17.255769 C 12.148731,16.331802 9.1434872,15.410912 6.0670082,14.486944 Z M 37.029975,7.04399 c 3.14388,0.798873 6.281767,1.601576 9.426297,2.402435 l -15.04611,12.741341 c -3.087601,-0.927274 -6.106899,-1.841545 -9.136909,-2.768822 z m 10.822596,5.243605 h 5.29e-4 l -0.09147,19.782774 -14.230138,14.079245 -0.254765,-21.52272 z m -44.3053068,4.602306 9.9885368,3.041673 v 7.445542 l 1.685168,-0.01913 1.270206,0.843875 1.956988,-0.220141 2.392619,1.429887 -0.108002,-7.296713 9.426297,2.859257 0.253214,22.166093 -25.8139268,-8.745207 z m 40.6833038,5.684406 -1.287259,3.923276 0.598414,-0.579295 v 6.48901 l -1.922881,1.877406 v -6.487977 l 0.617016,-0.602031 -1.286226,-1.412316 -1.287259,3.924308 0.597895,-0.583428 v 6.487978 l -1.069703,1.043863 v 1.503786 l 6.779432,-6.618719 v -1.503783 l -1.050581,1.026292 v -6.478156 l 0.597895,-0.579295 z" />
</svg>
