<?xml version="1.0" encoding="UTF-8" standalone="no"?>
<!-- Created with Inkscape (http://www.inkscape.org/) -->

<svg
   width="51.304573mm"
   height="51.322948mm"
   viewBox="0 0 51.304573 51.322949"
   version="1.1"
   id="svg16369"
   xmlns="http://www.w3.org/2000/svg"
   xmlns:svg="http://www.w3.org/2000/svg">
  <defs
     id="defs16366" />
  <g
     id="layer1"
     transform="translate(-8.9332778,-59.846456)">
    <path
       id="path4361"
       style="fill:#ffffff;fill-opacity:1;stroke:#09328b;stroke-width:1.32292;stroke-linecap:round;stroke-linejoin:round;stroke-miterlimit:7;stroke-dasharray:none;stroke-opacity:1;paint-order:stroke fill markers"
       d="m 31.650948,60.50944 c -0.401277,0.01595 -0.793064,0.145095 -1.133781,0.366903 L 10.559212,73.819738 c -0.6341506,0.412343 -0.9968943,1.11565 -0.9622154,1.853634 l 1.1436004,23.283849 c 0.0425,0.856456 0.612513,1.603289 1.449523,1.887219 l 28.15332,9.55291 c 0.23232,0.0788 0.468206,0.10861 0.706419,0.11059 0.579167,10e-4 1.140102,-0.22773 1.559594,-0.64337 L 58.852388,93.786477 c 0.39462,-0.391163 0.61364,-0.901272 0.614949,-1.447972 l 0.109038,-23.17533 c 0.004,-0.960372 -0.671232,-1.809248 -1.631942,-2.054138 L 32.275717,60.583854 c -0.15117,-0.03971 -0.299691,-0.06794 -0.45217,-0.0739 -0.05759,-0.0024 -0.115274,-0.0028 -0.172599,-5.29e-4 z m 0.298173,2.805512 c 2.346129,0.597667 4.687548,1.200592 7.03368,1.796275 L 24.101537,77.102225 C 21.082009,76.178258 18.076765,75.257368 15.000286,74.3334 Z m 14.014132,3.575494 c 3.14388,0.798873 6.281767,1.601576 9.426297,2.402435 L 40.34344,82.034222 C 37.255839,81.106948 34.236541,80.192677 31.206531,79.2654 Z m 10.822596,5.243605 h 5.29e-4 L 56.694909,91.916825 42.464771,105.99607 42.210006,84.47335 Z m -44.305307,4.602306 9.988537,3.041673 v 7.445542 l 1.685168,-0.01913 1.270206,0.843875 1.956988,-0.220141 2.392619,1.429887 -0.108002,-7.296713 9.426297,2.859257 0.253214,22.166093 -25.813927,-8.745207 z m 40.683304,5.684406 -1.287259,3.923276 0.598414,-0.579295 v 6.48901 L 50.55212,94.13116 v -6.487977 l 0.617016,-0.602031 -1.286226,-1.412316 -1.287259,3.924308 0.597895,-0.583428 v 6.487978 l -1.069703,1.043863 v 1.503786 l 6.779432,-6.618719 v -1.503783 l -1.050581,1.026292 v -6.478156 l 0.597895,-0.579295 z" />
  </g>
</svg>
