<?xml version="1.0" encoding="UTF-8" standalone="no"?>
<!-- Created with Inkscape (http://www.inkscape.org/) -->

<svg
   width="46.481209mm"
   height="51.904793mm"
   viewBox="0 0 46.481209 51.904793"
   version="1.1"
   id="svg16369"
   xmlns="http://www.w3.org/2000/svg"
   xmlns:svg="http://www.w3.org/2000/svg">
  <defs
     id="defs16366" />
  <path
     fill="#082b76"
     d="m 44.752577,38.711246 c 0,0 -8.210687,8.21555 -8.210687,8.21555 0,0 0,4.977998 0,4.977998 0,0 -11.461226,0 -11.461226,0 0,0 0.03249,-6.355095 0.03249,-6.355095 0.0098,-3.088336 1.237605,-6.048526 3.41598,-8.236638 0,0 7.049317,-7.028235 7.049317,-7.028235 0.986193,-0.987811 2.60984,-0.908329 3.495463,0.170305 0.763975,0.979701 0.665035,2.376263 -0.227073,3.240802 0,0 -3.380301,3.378676 -3.380301,3.378676 -0.337361,0.34061 -0.291995,0.903468 0.09569,1.187322 0.330924,0.235227 0.785058,0.186551 1.059177,-0.111943 0,0 3.88313,-3.881505 3.88313,-3.881505 0.557996,-0.559591 0.853185,-1.330058 0.809389,-2.119983 0,0 -0.603362,-9.029814 -0.603362,-9.029814 -0.0892,-1.884793 1.894521,-3.161326 3.573319,-2.296786 0.754239,0.387691 1.253826,1.138664 1.320328,1.983739 0,0 0.86454,11.383362 0.86454,11.383362 0.110294,1.683664 -0.51582,3.334886 -1.716101,4.522208 0,0 0,0 0,0 M 17.935724,37.313024 c 0,0 -7.049317,-7.028234 -7.049317,-7.028234 -0.9861867,-0.987812 -2.6082151,-0.90833 -3.495462,0.170305 -0.763975,0.9797 -0.665029,2.376262 0.2287285,3.240801 0,0 3.3786825,3.378676 3.3786825,3.378676 0.339016,0.34061 0.293589,0.903469 -0.0957,1.187322 -0.330923,0.235227 -0.785057,0.186551 -1.059182,-0.111943 0,0 -3.8831233,-3.881505 -3.8831233,-3.881505 -0.5579962,-0.55959 -0.8515668,-1.330057 -0.809389,-2.119982 0,0 0.5985192,-9.003857 0.5985192,-9.003857 0.0892,-1.884794 -1.8945204,-3.161327 -3.5733171,-2.296787 -0.7542398,0.389286 -1.25382537,1.140283 -1.32032889,1.985358 0,0 -0.84183217,11.355787 -0.84183217,11.355787 -0.11678578,1.680421 0.50122852,3.331643 1.69339346,4.522209 0,0 8.2106884,8.209064 8.2106884,8.209064 0,0 0,4.984482 0,4.984482 0,0 11.4660934,0 11.4660934,0 0,0 -0.03249,-6.355093 -0.03249,-6.355093 -0.0098,-3.088338 -1.235987,-6.048528 -3.415987,-8.23664 0,0 0,0 0,0 m 7.871681,-9.438557 c 0,0 3.78094,0 3.78094,0 1.978872,-0.0892 3.119155,-2.288682 2.051862,-3.957744 -0.450897,-0.705582 -1.216516,-1.146769 -2.051862,-1.184079 0,0 -3.78094,0 -3.78094,0 0,0 0,-3.803648 0,-3.803648 -0.09086,-1.978865 -2.290294,-3.119148 -3.959363,-2.051855 -0.703957,0.450897 -1.146768,1.216515 -1.184071,2.051855 0,0 0,3.797162 0,3.797162 0,0 -3.787427,0 -3.787427,0 -1.978872,0.09085 -3.119155,2.290301 -2.051861,3.959362 0.450897,0.703958 1.216515,1.146769 2.051861,1.184079 0,0 3.797155,0 3.797155,0 0,0 0,3.803648 0,3.803648 -0.0892,1.978866 1.998336,3.313791 3.75661,2.400594 0.890489,-0.460645 1.432245,-1.398186 1.386831,-2.400594 0,0 -0.0098,-3.79878 -0.0098,-3.79878 M 17.81887,14.549494 c 0,-1.04458 -0.845069,-1.89128 -1.889655,-1.89128 0,0 -2.796372,0 -2.796372,0 0,0 0,-2.7963657 0,-2.7963657 0,-1.4549604 -1.576607,-2.3649146 -2.836918,-1.6382497 -0.5855231,0.3390158 -0.9456402,0.9634856 -0.9456402,1.6382497 0,0 0,2.7963657 0,2.7963657 0,0 -2.7915044,0 -2.7915044,0 -1.4549544,0 -2.3649146,1.576608 -1.6366252,2.836925 0.3373606,0.583929 0.9618609,0.94564 1.6366252,0.94564 0,0 2.7979905,0 2.7979905,0 0,0 0,2.796366 0,2.796366 0,1.454961 1.5749891,2.364915 2.8353001,1.636625 0.585523,-0.33736 0.94564,-0.961861 0.94564,-1.636625 0,0 0,-2.819079 0,-2.819079 0,0 2.796372,0 2.796372,0 1.034851,-0.0016 1.873434,-0.83534 1.884787,-1.868572 0,0 0,0 0,0 m 13.459561,2.308146 c 0,0 2.403838,0 2.403838,0 0,0 0,2.405462 0,2.405462 0,1.2522 1.354396,2.034015 2.439528,1.407915 0.502824,-0.29034 0.812633,-0.827236 0.812633,-1.407915 0,0 0,-2.405462 0,-2.405462 0,0 2.403843,0 2.403843,0 1.25382,0 2.037259,-1.356015 1.411159,-2.442772 -0.29034,-0.502822 -0.828855,-0.814257 -1.411159,-0.814257 0,0 -2.398976,0 -2.398976,0 0,0 0,-2.398976 0,-2.398976 0,-1.2522004 -1.354389,-2.0340152 -2.437904,-1.4079148 -0.504476,0.2903398 -0.814257,0.8272358 -0.814257,1.4079148 0,0 0,2.405468 0,2.405468 0,0 -2.408705,0 -2.408705,0 -1.253825,0 -2.037265,1.356008 -1.411164,2.442766 0.290341,0.502822 0.82886,0.814257 1.411164,0.814257 0,0 0,-0.0067 0,-0.0067 M 25.080694,1.0764833e-5 c -0.896982,0 -1.625264,0.728288995167 -1.625264,1.625270035167 0,0 0,2.4054644 0,2.4054644 0,0 -2.405468,0 -2.405468,0 -1.250577,0 -2.034016,1.3543892 -1.407916,2.439522 0.290339,0.5028224 0.827236,0.8126327 1.407916,0.8126327 0,0 2.405468,0 2.405468,0 0,0 0,2.4103293 0,2.4103293 0,1.2505818 1.354389,2.0340158 2.437897,1.4079148 0.504478,-0.29034 0.814256,-0.827229 0.814256,-1.4079148 0,0 0,-2.4054617 0,-2.4054617 0,0 2.403845,0 2.403845,0 1.252201,0 2.034014,-1.3543899 1.407914,-2.439522 -0.290339,-0.5028224 -0.827235,-0.8126397 -1.407914,-0.8126397 0,0 -2.398976,0 -2.398976,0 0,0 0,-2.410325 0,-2.410325 0,-0.89860304 -0.731532,-1.62851304 -1.631758,-1.625270035167 0,0 0,0 0,0"
     fill-rule="evenodd"
     id="path896"
     style="overflow:visible;stroke-width:1.62202" />
</svg>
