<?xml version="1.0" encoding="UTF-8" standalone="no"?>
<!-- Created with Inkscape (http://www.inkscape.org/) -->

<svg
   width="45.894985mm"
   height="27.339409mm"
   viewBox="0 0 45.894985 27.339409"
   version="1.1"
   id="svg16369"
   xmlns="http://www.w3.org/2000/svg"
   xmlns:svg="http://www.w3.org/2000/svg">
  <defs
     id="defs16366" />
  <path
     fill="#082b76"
     d="m 30.27805,3.74188 c -0.101847,0 -0.202245,-0.0271 -0.288271,-0.08321 C 29.953999,3.63699 26.369819,1.399778 23.300597,0.282526 22.792898,0.097519 22.151792,0 21.441852,0 c -1.252069,0 -2.488365,0.301173 -3.310175,0.803163 -0.458967,0.283989 -1.061316,0.691291 -1.784162,1.20761 0,0 0,0 0,0 -0.823241,0.588029 -1.675168,1.229124 -2.349249,1.748309 -0.404436,0.309791 -0.744354,0.575121 -0.978137,0.757267 -0.206527,0.162082 -0.326974,0.258186 -0.33131,0.262468 -0.220892,0.223711 -0.341339,0.491925 -0.271088,0.661175 0.09611,0.230919 0.588034,0.463249 1.474377,0.464713 1.548954,-0.0014 4.081779,-1.891735 4.927966,-2.620314 0.09752,-0.08462 0.22371,-0.130523 0.352831,-0.130523 0,0 3.7892,-0.0014 3.7892,-0.0014 0.240947,0 0.446065,0 0.623884,0.0014 0,0 0.698463,0 0.698463,0 0,0 0.0014,0 0.0043,0 0.08321,0 0.166361,0.02006 0.243823,0.05881 0.0043,0 0.007,0.0029 0.01032,0.0059 0.05449,0.01572 0.09752,0.0374 0.129066,0.06456 0.179261,0.09177 0.349958,0.190754 0.526346,0.285398 0.163489,0.08749 0.328437,0.17357 0.486178,0.263878 0.202246,0.113295 0.390125,0.228047 0.58373,0.342749 0.144837,0.08608 0.295426,0.172105 0.435984,0.258185 0.192162,0.119043 0.368604,0.233794 0.550739,0.349958 0.127657,0.08174 0.262468,0.164951 0.384378,0.245231 0.17498,0.114753 0.329903,0.220892 0.489053,0.331311 0.113295,0.076 0.232329,0.154925 0.337056,0.229456 0.144836,0.09898 0.266752,0.187881 0.395818,0.279652 0.100389,0.07171 0.2094,0.14631 0.301171,0.212273 0.117634,0.08748 0.207936,0.154924 0.308328,0.229457 0.07312,0.05449 0.160607,0.117569 0.223764,0.166361 0.09464,0.07171 0.154925,0.117634 0.223711,0.172105 0.04283,0.03144 0.09898,0.076 0.133405,0.101847 0.08462,0.06456 0.136222,0.106139 0.147719,0.117635 0,0 10.042382,7.021925 10.042382,7.021925 0.203653,0.143428 0.371476,0.314072 0.523473,0.497671 0.01408,0.01408 0.02602,0.03144 0.03849,0.04879 0.150585,0.187881 0.27537,0.391535 0.370015,0.608107 0,0 0.05735,0 0.05735,0 0,0 -3.76769,-11.303061 -3.76769,-11.303061 0,0 -7.185422,0 -7.185422,0 0,0 0,0 0,0 0,0 0,0 0,0 m 9.339615,11.033426 c 0,0 -10.068201,-7.042002 -10.068201,-7.042002 -0.007,-0.0043 -0.05149,-0.04175 -0.1262,-0.10039 -0.01294,-0.01032 -0.04174,-0.03144 -0.05881,-0.04445 -0.07312,-0.05594 -0.157742,-0.121909 -0.271087,-0.206526 -0.0374,-0.02873 -0.09323,-0.06885 -0.134814,-0.10039 C 28.848029,7.198524 28.731859,7.112501 28.59271,7.010647 28.52245,6.959157 28.434969,6.897352 28.357508,6.842824 28.222694,6.746704 28.090758,6.65207 27.940171,6.545934 27.844071,6.478564 27.733645,6.405372 27.631791,6.335125 27.476866,6.228987 27.326281,6.125725 27.159921,6.015306 27.042286,5.937846 26.914691,5.857564 26.792781,5.775821 26.623548,5.666817 26.455723,5.557801 26.275052,5.445974 26.144529,5.364234 26.003965,5.281023 25.869153,5.19928 25.684146,5.088868 25.500549,4.978388 25.309806,4.867969 25.167836,4.786229 25.021535,4.707362 24.876695,4.62702 24.726111,4.54381 24.575524,4.46207 24.423474,4.381789 c -0.09037,-0.04717 -0.177851,-0.09752 -0.268215,-0.144836 -0.205062,-0.0014 -0.651129,-0.0014 -1.194696,-0.0014 0,0 -3.591281,0.0014 -3.591281,0.0014 -0.390125,0.319819 -1.438518,1.148807 -2.638956,1.814285 -0.400153,0.2223 -0.817506,0.425954 -1.231997,0.58516 -0.553607,0.212273 -1.104346,0.349958 -1.606321,0.349958 -1.74685,-0.0014 -2.301893,-0.709875 -2.475436,-1.131537 -0.248103,-0.599504 -0.04716,-1.286491 0.552176,-1.884558 0.007,-0.007 0.04174,-0.03469 0.09177,-0.0746 0.01735,-0.01408 0.0374,-0.03036 0.05735,-0.04717 0.04608,-0.03577 0.09898,-0.07746 0.163487,-0.127658 0.0271,-0.02168 0.05041,-0.03849 0.08034,-0.06169 0.100389,-0.08033 0.212273,-0.167823 0.345621,-0.271087 0.0029,-0.0014 0.0043,-0.0043 0.007,-0.007 0.136275,-0.106138 0.288271,-0.223711 0.451758,-0.348494 0.04011,-0.03144 0.08321,-0.06456 0.12332,-0.09612 0.117629,-0.09037 0.236667,-0.182135 0.364269,-0.278242 0.07031,-0.05449 0.140557,-0.107547 0.213682,-0.16349 0.110419,-0.08462 0.223711,-0.169233 0.338466,-0.255259 0.08174,-0.06169 0.160614,-0.120451 0.243822,-0.182133 0.0103,-0.0087 0.02006,-0.01408 0.03036,-0.02276 -1.847269,0.01032 -3.726092,0.443193 -5.9190097,1.319482 0,0 -4.2022535,12.602462 -4.2022535,12.602462 0.4747415,0.229455 1.0928703,0.529218 1.7884657,0.863397 0.048786,-0.09178 0.090362,-0.183597 0.1505864,-0.268215 0,0 0.6941645,-0.989611 0.6941645,-0.989611 0.8318437,-1.193267 2.616011,-1.515964 3.8135816,-0.676949 0.517727,0.36145 0.874873,0.883475 1.049846,1.480112 0.923632,-0.712807 2.291877,-0.813202 3.275749,-0.124791 0.499135,0.349959 0.850491,0.846188 1.031205,1.417005 0,0 0.01572,-0.02276 0.01572,-0.02276 0.839015,-1.193267 2.620315,-1.511665 3.822189,-0.675517 1.05845,0.747226 1.424177,2.103997 0.97096,3.251372 0.631057,-0.06022 1.280756,0.07171 1.815721,0.447475 0.599503,0.421673 0.999651,1.049847 1.12586,1.771255 0.08749,0.487642 0.02873,0.9767 -0.14197,1.42848 0.390125,0.27396 0.649699,0.456094 0.649699,0.456094 0,0 1.47868,1.034067 1.47868,1.034067 0.727149,0.509163 1.801372,0.315537 2.304784,-0.405898 0.256721,-0.364269 0.35424,-0.804594 0.278242,-1.239164 -0.07601,-0.437446 -0.316945,-0.8175 -0.681252,-1.071362 0,0 -6.344971,-4.444632 -6.344971,-4.444632 -0.24523,-0.172105 -0.304044,-0.509163 -0.133406,-0.754399 0.170697,-0.24523 0.509163,-0.305508 0.7544,-0.134814 0,0 0.0043,0.0043 0.0043,0.0043 0,0 7.726122,5.392651 7.726122,5.392651 0.730016,0.512036 1.805681,0.315537 2.31196,-0.405899 0.512036,-0.732884 0.354241,-1.731098 -0.358577,-2.274665 0,0 -5.973513,-4.179308 -5.973513,-4.179308 -0.243822,-0.170644 -0.304046,-0.5077 -0.133406,-0.752964 0.172106,-0.245229 0.507699,-0.304043 0.754398,-0.133405 0,0 7.47944,5.233459 7.47944,5.233459 0.72858,0.509163 1.807112,0.315537 2.309088,-0.4059 0.517781,-0.738618 0.344211,-1.766956 -0.382916,-2.294744 0,0 -8.656931,-6.061004 -8.656931,-6.061004 -0.245232,-0.172106 -0.304046,-0.509162 -0.133406,-0.754393 0.170697,-0.246694 0.512036,-0.305509 0.7544,-0.133406 0,0 9.939117,6.960253 9.939117,6.960253 0.728585,0.507699 1.808549,0.314073 2.31196,-0.408772 0.282525,-0.404435 0.351368,-0.890648 0.243822,-1.338123 -0.09178,-0.378633 -0.309791,-0.727148 -0.65544,-0.969533 0,0 0,0 0,0 m -17.455844,6.768069 c -0.279652,-0.196499 -0.606676,-0.301173 -0.948021,-0.301173 -0.299761,0 -0.586596,0.08749 -0.837584,0.236667 -0.162081,0.09464 -0.302635,0.219429 -0.425956,0.364269 -0.03035,0.03577 -0.06737,0.06744 -0.0961,0.107547 0,0 -0.228047,0.325566 -0.228047,0.325566 0,0 -1.071356,1.526007 -1.071356,1.526007 0,0 -0.659744,0.943716 -0.659744,0.943716 0,0 -0.0014,0 -0.0014,0.0014 -0.516318,0.750094 -0.33272,1.785603 0.411591,2.307656 0.724282,0.506289 1.804246,0.312665 2.307658,-0.407309 0,0 1.726793,-2.471154 1.726793,-2.471154 0,0 0.228048,-0.325565 0.228048,-0.325565 0.02872,-0.04011 0.04717,-0.08321 0.07171,-0.126199 0.09612,-0.16349 0.163489,-0.338467 0.199371,-0.520601 0.03578,-0.193625 0.04174,-0.391534 0.007,-0.589464 -0.07746,-0.435983 -0.318409,-0.816069 -0.68412,-1.071361 0,0 0,0 0,0 m -3.579804,0.334184 c 0,0 0.334184,-0.479024 0.334184,-0.479024 0,0 0.331311,-0.471868 0.331311,-0.471868 0,0 0.536375,-0.768737 0.536375,-0.768737 0.526345,-0.745796 0.344211,-1.782731 -0.40731,-2.311961 -0.276778,-0.193626 -0.605238,-0.29689 -0.946582,-0.29689 -0.543568,0 -1.052714,0.265342 -1.365378,0.708503 0,0 -1.445691,2.068139 -1.445691,2.068139 0,0 -0.347084,0.496262 -0.347084,0.496262 0,0 -0.345622,0.494798 -0.345622,0.494798 0,0 -0.632493,0.90499 -0.632493,0.90499 -0.255313,0.362858 -0.352831,0.801727 -0.27537,1.237732 0.076,0.435983 0.31841,0.817501 0.681258,1.069925 0.724276,0.506289 1.799941,0.315537 2.304784,-0.400155 0.0014,-0.0014 0.0029,-0.0029 0.0029,-0.0029 0,0 0.70133,-1.00252 0.70133,-1.00252 0,0 0.873442,-1.246334 0.873442,-1.246334 0,0 0,0 0,0 m -4.156302,-1.738107 c 0,0 0.491925,-0.704198 0.491925,-0.704198 0.25385,-0.364268 0.352831,-0.804599 0.27537,-1.242031 -0.07746,-0.433165 -0.319819,-0.813202 -0.681252,-1.065626 -0.281116,-0.196498 -0.610974,-0.301172 -0.950887,-0.301172 -0.540711,0 -1.04841,0.265342 -1.358201,0.707065 0,0 -0.423083,0.60524 -0.423083,0.60524 -0.07887,0.196498 -0.172106,0.388661 -0.298299,0.566518 0,0 -0.319819,0.456094 -0.319819,0.456094 0,0 -0.315536,0.451757 -0.315536,0.451757 0,0 -0.05735,0.08321 -0.05735,0.08321 -0.076,0.107547 -0.173516,0.196499 -0.263878,0.294018 -0.0087,0.02006 -0.013,0.04283 -0.02168,0.06456 -0.107546,0.27678 -0.141967,0.57799 -0.0889,0.879173 0.076,0.437446 0.31841,0.817506 0.682684,1.072797 0.724281,0.507699 1.804245,0.315537 2.30622,-0.410181 0,0 0.338466,-0.481898 0.338466,-0.481898 0,0 0.339929,-0.484768 0.339929,-0.484768 0,0 0.344212,-0.490517 0.344212,-0.490517 0,0 0,0 0,0 m -3.615273,-2.506641 c 0.08033,-0.253851 0.107546,-0.522065 0.06022,-0.790252 -0.07746,-0.435983 -0.319819,-0.817506 -0.68412,-1.071361 -0.2796521,-0.196499 -0.6066751,-0.299763 -0.945152,-0.299763 -0.5421312,0 -1.0512776,0.266751 -1.3610684,0.70994 0,0 -0.6955956,0.991043 -0.6955956,0.991043 -0.026019,0.03578 -0.040113,0.0746 -0.063096,0.111886 -0.094645,0.160624 -0.1649507,0.329849 -0.2007814,0.504827 -0.038487,0.197908 -0.042824,0.39869 -0.010301,0.5952 0.068843,0.427418 0.3011719,0.828976 0.6841254,1.098611 0.5263461,0.36714 1.234859,0.362859 1.7784267,0.05594 0.097517,-0.05313 0.1878802,-0.116161 0.2724967,-0.189342 0.067379,-0.05881 0.1276556,-0.1262 0.185007,-0.196501 0.022767,-0.02873 0.048786,-0.05149 0.070252,-0.08033 0,0 0.2553136,-0.365732 0.2553136,-0.365732 0,0 0.438856,-0.625317 0.438856,-0.625317 0.09752,-0.139154 0.163487,-0.292552 0.215146,-0.448939 0,0 0,0 0,0 M 38.158803,2.402224 c 0,0 0.08608,0.256723 0.08608,0.256723 0,0 0.179261,0.54071 0.179261,0.54071 0,0 4.130544,12.384461 4.130544,12.384461 0,0 0.179261,0.534964 0.179261,0.534964 0,0 0.09898,0.301172 0.09898,0.301172 0,0 3.062056,0 3.062056,0 0,0 0,-15.754869 0,-15.754869 0,0 -7.736166,1.736834 -7.736166,1.736834 0,0 0,0 0,0 m 6.276133,3.54108 c -0.410182,0.41018 -0.955191,0.636791 -1.534611,0.636791 0,0 -0.0014,0 -0.0014,0 -1.197571,-0.0014 -2.171403,-0.9767 -2.171403,-2.171403 0,-0.579425 0.225175,-1.12586 0.633925,-1.536047 0.826109,-0.830407 2.26319,-0.81607 3.074956,-0.0029 0.411644,0.411644 0.635361,0.958058 0.633925,1.538914 0.0014,0.576559 -0.225175,1.122994 -0.635356,1.534612 0,0 0,0 0,0 M 42.903245,3.317215 c -0.29689,0 -0.569386,0.113295 -0.774478,0.31841 -0.205118,0.207936 -0.318409,0.480487 -0.318409,0.77161 0,0.600933 0.487642,1.087135 1.091439,1.090002 0.289735,0 0.563646,-0.113294 0.768742,-0.318409 0.205118,-0.206528 0.31841,-0.480487 0.316946,-0.771605 0.0014,-0.292606 -0.111887,-0.565082 -0.316946,-0.771608 -0.203653,-0.205118 -0.476151,-0.31841 -0.767306,-0.31841 0,0 0,0 0,0 M 7.6974847,2.524119 c 0,0 0.040113,-0.120501 0.040113,-0.120501 C 7.7375977,2.403618 0,0.665349 0,0.665349 c 0,0 0,15.7563 0,15.7563 0,0 2.8770374,-0.0014 2.8770374,-0.0014 0,0 0.1850072,0 0.1850072,0 0,0 0.1419671,-0.425956 0.1419671,-0.425956 0,0 4.2624934,-12.781734 4.2624934,-12.781734 0,0 0.2309201,-0.688424 0.2309201,-0.688424 0,0 0,0 0,0 M 0.82178837,4.407262 c 0,-1.197576 0.97526913,-2.174276 2.17283953,-2.177143 1.2033054,0.0059 2.1771379,0.98244 2.1714029,2.177143 0,0.579419 -0.2237107,1.125855 -0.6339246,1.536041 -0.4101814,0.410182 -0.9551855,0.636793 -1.5360419,0.636793 -1.1990068,0 -2.17427593,-0.975264 -2.17427593,-2.172834 0,0 0,0 0,0 M 3.7648008,5.177435 C 3.971328,4.972317 4.0846198,4.69841 4.0832104,4.407262 4.0846404,3.806321 3.5970313,3.317254 2.9932022,3.31295 2.3951353,3.31435 1.9046359,3.806338 1.9046359,4.407262 c 0,0.600934 0.4890521,1.090003 1.0914393,1.090003 0.2911437,0 0.5636457,-0.114753 0.7687364,-0.31982 0,0 0,0 0,0"
     fill-rule="evenodd"
     id="path697"
     style="overflow:visible;stroke-width:1.43421" />
</svg>
