<?xml version="1.0" encoding="UTF-8" standalone="no"?>
<!-- Created with Inkscape (http://www.inkscape.org/) -->

<svg
   width="44.709476mm"
   height="51.286552mm"
   viewBox="0 0 44.709476 51.286553"
   version="1.1"
   id="svg16369"
   xmlns="http://www.w3.org/2000/svg"
   xmlns:svg="http://www.w3.org/2000/svg">
  <defs
     id="defs16366" />
  <path
     fill="#082b76"
     d="m 40.26193,22.690822 c 0,0.854249 0,5.922047 0,7.523167 0,1.218065 -0.307723,2.4762 -1.27737,3.606117 -1.006506,1.171592 -5.372315,3.894612 -6.934968,4.817779 -1.070619,0.633072 -1.828707,-0.716418 -1.051387,-1.309424 0.799758,-0.610636 5.01491,-3.226275 6.33235,-4.13021 2.415298,-1.660414 0.09134,-5.301798 -2.849636,-3.580474 -1.272559,0.745262 -2.633272,1.495337 -5.407576,3.112483 -2.673338,1.556238 -4.452359,3.545214 -4.992473,8.798929 -0.267682,2.615639 1.322242,9.757364 1.322242,9.757364 0,0 8.978439,0 8.978439,0 0,-6.245804 7.337249,-11.425794 9.072997,-14.581552 1.099464,-1.998588 1.25493,-2.836811 1.25493,-4.580572 0,-2.702183 0,-8.534482 0,-9.433607 0,-3.431423 -4.447548,-3.356098 -4.447548,0 0,0 0,0 0,0 M 15.637742,32.73026 c -2.775916,-1.617146 -4.136624,-2.365614 -5.409182,-3.112483 -2.9409952,-1.721324 -5.2649332,1.92006 -2.8496342,3.578877 1.317432,0.905532 5.5325842,3.519572 6.3323422,4.130208 0.777318,0.594605 0.02059,1.944095 -1.051381,1.311023 -1.561049,-0.923167 -5.9284632,-3.646187 -6.9349692,-4.817779 -0.968047,-1.129917 -1.275769,-2.388052 -1.275769,-3.607723 0,-1.599514 0,-6.667312 0,-7.521561 0,-3.356098 -4.4491488,-3.431423 -4.4491488,0 0,0.899125 0,6.731424 0,9.433607 0,1.745366 0.1554965,2.581984 1.2549313,4.580572 1.7341425,3.155758 9.0746017,8.335748 9.0746017,14.581552 0,0 8.976833,0 8.976833,0 0,0 1.589894,-7.141725 1.320638,-9.757364 -0.538515,-5.253715 -2.317531,-7.242691 -4.989262,-8.798929 0,0 0,0 0,0 M 7.4045668,22.541771 c 0,0.801356 0.48242,1.727726 1.097864,2.110779 0,0 12.1710512,7.072802 12.1710512,7.072802 0,0 0,-12.722387 0,-12.722387 0,0 -13.2689152,-7.638569 -13.2689152,-7.638569 0,0 0,11.177375 0,11.177375 0,0 0,0 0,0 m 16.6458472,9.185187 c 0,0 12.17266,-7.072808 12.17266,-7.072808 0.615446,-0.383017 1.097861,-1.311023 1.097861,-2.112379 0,0 0,-11.177375 0,-11.177375 0,0 -13.270521,7.638569 -13.270521,7.638569 0,0 0,12.723993 0,12.723993 0,0 0,0 0,0 M 23.537523,0.22549343 c -0.641093,-0.33819157 -1.682859,-0.29166979 -2.376834,0.11061034 0,0 -13.1326892,7.44784123 -13.1326892,7.44784123 0,0 14.3347262,8.249203 14.3347262,8.249203 0,0 14.30588,-8.2315695 14.30588,-8.2315695 0,0 -13.131083,-7.5760609 -13.131083,-7.5760609 0,0 0,0 0,0"
     fill-rule="evenodd"
     id="path2"
     style="overflow:visible;stroke-width:1.60272" />
</svg>
