<?xml version="1.0" encoding="UTF-8" standalone="no"?>
<!-- Created with Inkscape (http://www.inkscape.org/) -->

<svg
   width="51.310066mm"
   height="45.506184mm"
   viewBox="0 0 51.310066 45.506184"
   version="1.1"
   id="svg16369"
   xmlns="http://www.w3.org/2000/svg"
   xmlns:svg="http://www.w3.org/2000/svg">
  <defs
     id="defs16366" />
  <g
     id="layer1"
     transform="translate(-11.087235,-61.618042)">
    <g
       id="g3504"
       transform="matrix(0.33821743,0,0,0.33821743,58.272495,49.89624)"
       style="fill:#ffffff;fill-opacity:1;stroke:#09328b;stroke-width:3.91144;stroke-linejoin:round;stroke-miterlimit:7;stroke-dasharray:none;stroke-opacity:1;paint-order:stroke fill markers">
      <path
         d="m -1.8422884,48.590012 c -15.8662896,-15.983573 -41.8487676,-15.983573 -57.9861566,0 l -3.828641,3.792153 -3.831027,-3.792153 c -15.863915,-15.983573 -41.846387,-15.983573 -57.983777,0 -16.13738,15.71506 -16.13738,41.449886 0,57.433458 l 61.814804,61.22561 61.8147976,-61.22561 c 16.1350084,-15.71506 16.1350084,-41.449885 0,-57.433458 M -58.187594,127.69527 v 6.5032 h -10.941367 v -6.5032 c -5.469492,-1.89607 -9.571616,-6.49847 -10.665512,-12.45993 h 11.488316 c 0.818044,1.62285 2.734745,2.70633 4.649071,2.70633 3.008219,0 5.469492,-2.43782 5.469492,-5.41501 0,-2.97955 -2.461273,-5.41972 -5.469492,-5.41972 -4.924928,0 -9.300524,-2.1693 -12.308743,-5.41736 -2.461278,-2.97955 -4.104499,-6.771699 -4.104499,-10.837076 0,-7.047283 4.651446,-13.004026 10.941367,-15.173326 v -6.503191 h 10.941367 v 6.503191 c 5.467116,1.900787 9.571613,6.503189 10.667892,12.464641 h -11.490697 c -0.818046,-1.627564 -2.734747,-2.706324 -4.646687,-2.706324 -3.008227,0 -5.471875,2.433103 -5.471875,5.415009 0,2.979547 2.463648,5.419713 5.471875,5.419713 4.922542,0 9.298138,2.164592 12.30636,5.417363 2.463648,2.97955 4.102121,6.77171 4.102121,10.83708 0,7.04257 -4.646692,13.00403 -10.938989,15.16861"
         style="fill:#ffffff;fill-opacity:1;stroke:#09328b;stroke-width:3.91144;stroke-linecap:round;stroke-linejoin:round;stroke-miterlimit:7;stroke-dasharray:none;stroke-opacity:1;paint-order:stroke fill markers"
         id="path44-6" />
    </g>
  </g>
</svg>
