<?xml version="1.0" encoding="UTF-8" standalone="no"?>
<!-- Created with Inkscape (http://www.inkscape.org/) -->

<svg
   width="43.332603mm"
   height="43.3326mm"
   viewBox="0 0 43.332603 43.3326"
   version="1.1"
   id="svg16369"
   xmlns="http://www.w3.org/2000/svg"
   xmlns:svg="http://www.w3.org/2000/svg">
  <defs
     id="defs16366" />
  <path
     fill="#082b76"
     d="m 42.610845,34.66608 c 0,0 -2.889743,0 -2.889743,0 0,0 0,-5.77813 0,-5.77813 0,-0.555199 -0.60124,-0.903214 -1.083317,-0.625612 -0.223453,0.129997 -0.360206,0.368344 -0.360206,0.625612 0,0 0,5.77813 0,5.77813 0,0 -15.889525,0 -15.889525,0 0,0 0,-15.888168 0,-15.888168 0,0 5.056372,0 5.056372,0 0,0 0,5.055021 0,5.055021 0,0.399463 0.322282,0.72176 0.721759,0.72176 0,0 4.333262,0 4.333262,0 0.399462,0 0.72176,-0.322283 0.72176,-0.72176 0,0 0,-5.055021 0,-5.055021 0,0 5.056372,0 5.056372,0 0,0 0,7.22165 0,7.22165 0,0.556554 0.601239,0.903213 1.083316,0.625612 0.223453,-0.128617 0.360207,-0.366962 0.360207,-0.625612 0,0 0,-7.94476 0,-7.94476 0,-0.398131 -0.322282,-0.721759 -0.721759,-0.721759 0,0 -7.94476,0 -7.94476,0 0,0 0,-16.6112839 0,-16.6112839 C 31.054583,0.323628 30.732302,0 30.332824,0 c 0,0 -17.333044,0 -17.333044,0 -0.399461,0 -0.721758,0.3236638 -0.721758,0.7217591 0,0 0,6.4998905 0,6.4998905 0,0.5565544 0.601239,0.9032134 1.083317,0.6256124 0.223452,-0.128617 0.360206,-0.366963 0.360206,-0.6256124 0,0 0,-5.7767803 0,-5.7767803 0,0 5.056373,0 5.056373,0 0,0 0,5.0550212 0,5.0550212 0,0.3994617 0.322282,0.7217591 0.721759,0.7217591 0,0 4.333261,0 4.333261,0 0.399463,0 0.72176,-0.322282 0.72176,-0.7217591 0,0 0,-5.0550212 0,-5.0550212 0,0 5.056372,0 5.056372,0 0,0 0,15.8881737 0,15.8881737 0,0 -15.889525,0 -15.889525,0 0,0 0,-7.22165 0,-7.22165 0,-0.556554 -0.601239,-0.903213 -1.083316,-0.625617 -0.223454,0.128668 -0.360207,0.366963 -0.360207,0.625617 0,0 0,7.22165 0,7.22165 0,0 -3.6115031,0 -3.6115031,0 -0.5565493,0 -0.9032135,0.60124 -0.6256119,1.083311 0.1286159,0.223454 0.3669623,0.361537 0.6256119,0.361537 0,0 1.4448741,0 1.4448741,0 0,0 0,5.055022 0,5.055022 0,0.399462 0.322282,0.721759 0.72176,0.721759 0,0 4.333257,0 4.333257,0 0.399461,0 0.721759,-0.322282 0.721759,-0.721759 0,0 0,-5.055022 0,-5.055022 0,0 5.056372,0 5.056372,0 0,0 0,15.888169 0,15.888169 0,0 -15.8895199,0 -15.8895199,0 0,0 0,-15.888169 0,-15.888169 0,0 0.7231103,0 0.7231103,0 0.5551981,0 0.9032135,-0.602596 0.625617,-1.083316 -0.1299978,-0.223453 -0.3683443,-0.361537 -0.625617,-0.361537 0,0 -1.4448695,0 -1.4448695,0 -0.3994617,0 -0.7217589,0.323612 -0.7217589,0.721759 0,0 0,16.611278 0,16.611278 0,0 -2.88974389,0 -2.88974389,0 C 0.32362801,34.666075 0,34.989739 0,35.387835 c 0,0 0,7.223005 0,7.223005 0,0.398132 0.32361265,0.72176 0.72175911,0.72176 0,0 4.33326199,0 4.33326199,0 0.3994618,0 0.7231103,-0.323665 0.7231103,-0.72176 0,0 0,-3.611503 0,-3.611503 0,0 12.9997806,0 12.9997806,0 0,0 0,3.611503 0,3.611503 0,0.398132 0.322283,0.72176 0.72176,0.72176 0,0 4.333261,0 4.333261,0 0.399463,0 0.72176,-0.323665 0.72176,-0.72176 0,0 0,-3.611503 0,-3.611503 0,0 5.056372,0 5.056372,0 0.555198,0 0.903213,-0.601239 0.625612,-1.083316 -0.129998,-0.223453 -0.368344,-0.361537 -0.625612,-0.361537 0,0 -28.1661957,0 -28.1661957,0 0,0 0,-1.443513 0,-1.443513 0,0 40.4428607,0 40.4428607,0 0,0 0,1.443513 0,1.443513 0,0 -5.776775,0 -5.776775,0 -0.556554,0 -0.903213,0.602596 -0.625617,1.083316 0.128667,0.223454 0.366962,0.361537 0.625617,0.361537 0,0 1.443514,0 1.443514,0 0,0 0,3.611503 0,3.611503 0,0.398132 0.323663,0.72176 0.723115,0.72176 0,0 4.333261,0 4.333261,0 0.398132,0 0.72176,-0.323665 0.72176,-0.72176 0,0 0,-7.223005 0,-7.223005 0,-0.398131 -0.323664,-0.72176 -0.72176,-0.72176 0,0 0,0 0,0 M 23.111175,5.7781262 c 0,0 -2.889745,0 -2.889745,0 0,0 0,-4.333262 0,-4.333262 0,0 2.889745,0 2.889745,0 0,0 0,4.333262 0,4.333262 M 14.44465,23.111169 c 0,0 -2.889738,0 -2.889738,0 0,0 0,-4.333262 0,-4.333262 0,0 2.889738,0 2.889738,0 0,0 0,4.333262 0,4.333262 m 15.888174,-4.333262 c 0,0 1.444869,0 1.444869,0 0,0 0,4.333262 0,4.333262 0,0 -2.889743,0 -2.889743,0 0,0 0,-4.333262 0,-4.333262 0,0 1.444874,0 1.444874,0 m -7.221649,20.221436 c 0,0 0,2.888387 0,2.888387 0,0 -2.889745,0 -2.889745,0 0,0 0,-2.888387 0,-2.888387 0,0 2.889745,0 2.889745,0 m -18.7779131,0 c 0,0 0,2.888387 0,2.888387 0,0 -2.8883926,0 -2.8883926,0 0,0 0,-2.888387 0,-2.888387 0,0 2.8883926,0 2.8883926,0 M 41.88773,41.88773 c 0,0 -2.888387,0 -2.888387,0 0,0 0,-2.888387 0,-2.888387 0,0 2.888387,0 2.888387,0 0,0 0,2.888387 0,2.888387 M 26.721321,31.777693 c 0,0 0,0.721759 0,0.721759 0,0.556555 0.602592,0.903214 1.083317,0.625612 0.223453,-0.128667 0.361537,-0.366962 0.361537,-0.625612 0,0 0,-0.721759 0,-0.721759 0,-0.556555 -0.60124,-0.903214 -1.083312,-0.625612 -0.223453,0.128617 -0.361537,0.366963 -0.361537,0.625612 0,0 0,0 0,0 m -2.888388,0 c 0,0 0,0.721759 0,0.721759 0,0.556555 0.601241,0.903214 1.083313,0.625612 0.223452,-0.128667 0.361537,-0.366962 0.361537,-0.625612 0,0 0,-0.721759 0,-0.721759 0,-0.556555 -0.602596,-0.903214 -1.083318,-0.625612 -0.223452,0.128617 -0.361537,0.366963 -0.361537,0.625612 0,0 0,0 0,0 m -12.99978,0.721759 c 0,0 0,-0.721759 0,-0.721759 0,-0.556555 -0.60124,-0.903214 -1.0833171,-0.625612 -0.223453,0.128617 -0.3615374,0.366963 -0.3615374,0.625612 0,0 0,0.721759 0,0.721759 0,0.556555 0.6025964,0.903214 1.0833165,0.625612 0.223453,-0.128667 0.361538,-0.366962 0.361538,-0.625612 0,0 0,0 0,0 M 6.4998905,31.777693 c 0,0 0,0.721759 0,0.721759 0,0.556555 0.6012398,0.903214 1.0833167,0.625612 0.223453,-0.128667 0.3615373,-0.366962 0.3615373,-0.625612 0,0 0,-0.721759 0,-0.721759 0,-0.556555 -0.6025911,-0.903214 -1.0833117,-0.625612 -0.2234529,0.128617 -0.3615372,0.366963 -0.3615372,0.625612 0,0 0,0 0,0 M 19.499677,15.16641 c 0,0 0,-0.72176 0,-0.72176 0,-0.556549 -0.60124,-0.903213 -1.083318,-0.625612 -0.223452,0.128617 -0.361537,0.366962 -0.361537,0.625612 0,0 0,0.72176 0,0.72176 0,0.556554 0.602591,0.903213 1.083313,0.625617 0.223452,-0.128667 0.361537,-0.366962 0.361537,-0.625617 0,0 0,0 0,0 m -2.888388,0 c 0,0 0,-0.72176 0,-0.72176 0,-0.556549 -0.602596,-0.903213 -1.083317,-0.625612 -0.223453,0.128617 -0.361538,0.366962 -0.361538,0.625612 0,0 0,0.72176 0,0.72176 0,0.556554 0.601241,0.903213 1.083318,0.625617 0.223453,-0.128667 0.361537,-0.366962 0.361537,-0.625617 0,0 0,0 0,0 m 16.609928,23.832933 c 0.556554,0 0.903213,-0.60124 0.625612,-1.083317 -0.128617,-0.223453 -0.366963,-0.361537 -0.625612,-0.361537 0,0 -0.72176,0 -0.72176,0 -0.556554,0 -0.903213,0.602596 -0.625617,1.083316 0.128667,0.223453 0.366962,0.361538 0.625617,0.361538 0,0 0.72176,0 0.72176,0"
     fill-rule="evenodd"
     id="path498"
     style="overflow:visible;stroke-width:1.35414" />
</svg>
