<?xml version="1.0" encoding="UTF-8" standalone="no"?>
<!-- Created with Inkscape (http://www.inkscape.org/) -->

<svg
   width="51.322899mm"
   height="33.815277mm"
   viewBox="0 0 51.322899 33.815277"
   version="1.1"
   id="svg16369"
   xmlns="http://www.w3.org/2000/svg"
   xmlns:svg="http://www.w3.org/2000/svg">
  <defs
     id="defs16366" />
  <g
     id="layer1"
     transform="translate(46.83642,-74.152736)">
    <path
       d="m -27.415477,91.309438 h -6.013497 v -6.0135 h 6.013497 z"
       style="fill:#ffffff;fill-opacity:1;stroke:#09328b;stroke-width:1.32292;stroke-linecap:round;stroke-linejoin:round;stroke-miterlimit:7;stroke-dasharray:none;stroke-opacity:1;paint-order:stroke fill markers"
       id="path1043" />
    <path
       id="path905"
       style="fill:#ffffff;fill-opacity:1;stroke:#09328b;stroke-width:1.32292;stroke-linecap:round;stroke-linejoin:round;stroke-miterlimit:7;stroke-dasharray:none;stroke-opacity:1;paint-order:stroke fill markers"
       d="m -7.459292,81.376118 c -1.732638,0 -3.137371,1.404464 -3.137371,3.137365 0,1.732905 1.404733,3.137625 3.137371,3.137625 1.732901,0 3.137614,-1.40472 3.137614,-3.137625 0,-1.732901 -1.404713,-3.137365 -3.137614,-3.137365 z m -1.960825,4.18645 3.660342,0.0305 c -0.381429,1.87903 -3.219997,2.06112 -3.660342,-0.0305 z m -1.026189,2.38673 c -1.326966,1.33462 -1.326897,0.67388 -1.326897,1.33466 v 7.33857 c 0.664409,0.66731 0.358038,0.66732 0.664326,0.66732 0.73555,0 0.662571,-0.66732 0.662571,-0.66732 v -5.33772 c 0.664672,0 0.28488,-1.24138 0.664693,0 0.04657,0.23662 0,15.344972 0,15.344972 0.663618,0.66731 0.170823,0.66733 0.663577,0.66733 1.156101,0 1.327271,-0.66733 1.327271,-0.66733 0,-8.673692 -0.01615,-8.370502 0,-8.673722 0.272425,-0.48579 0.412338,-0.48397 0.674451,0 -6.93e-4,0.28755 -0.01026,8.673722 -0.01026,8.673722 1.326439,0.66731 0.254932,0.66733 1.326398,0.66733 0.494603,0 0.663569,-0.66733 0.663569,-0.66733 -0.0042,-15.344942 0.01012,-15.032612 -0.0042,-15.344972 0.305227,-1.30589 0.667326,0 0.667326,0 v 5.33772 c 0.664409,0.66731 -0.221201,0.66732 0.664325,0.66732 0.374256,0 0.663695,-0.66732 0.663695,-0.66732 v -7.33857 c 0,-0.66078 -1.327271,-1.33466 -1.327271,-1.33466 z" />
    <path
       d="m -12.230783,100.45633 v -4.462572 c 0,-0.40196 -0.804211,-0.8115 -0.804211,-0.8115 h -3.62069 c -0.804211,0.8115 -0.804211,0.40954 -0.804211,0.8115 v 4.462572 c 0.402768,0.40562 0.21748,0.40562 0.402768,0.40562 0.445521,0 0.401443,-0.40562 0.401443,-0.40562 v -3.245982 c 0.403035,0 0.172879,-0.75501 0.403035,0 0.028,0.14409 0,9.331552 0,9.331552 0.40197,0.40588 0.103196,0.40588 0.40197,0.40588 0.700753,0 0.804218,-0.40588 0.804218,-0.40588 0,-5.2746 -0.0095,-5.09023 0,-5.2746 0.165224,-0.29552 0.24995,-0.29421 0.409102,0 -4.85e-4,0.1747 -0.0062,5.2746 -0.0062,5.2746 0.803691,0.40588 0.154405,0.40588 0.803691,0.40588 0.299828,0 0.40224,-0.40588 0.40224,-0.40588 -0.0028,-9.331552 0.0062,-9.141692 -0.0028,-9.331552 0.185024,-0.79424 0.404355,0 0.404355,0 v 3.245982 c 0.40303,0.40562 -0.134078,0.40562 0.40303,0.40562 0.226725,0 0.401977,-0.40562 0.401977,-0.40562"
       style="fill:#ffffff;fill-opacity:1;stroke:#09328b;stroke-width:1.32292;stroke-linecap:round;stroke-linejoin:round;stroke-miterlimit:7;stroke-dasharray:none;stroke-opacity:1;paint-order:stroke fill markers"
       id="path947" />
    <path
       id="path953"
       style="fill:#ffffff;fill-opacity:1;stroke:#09328b;stroke-width:1.32292;stroke-linecap:round;stroke-linejoin:round;stroke-miterlimit:7;stroke-dasharray:none;stroke-opacity:1;paint-order:stroke fill markers"
       d="m -14.84515,90.970338 c -1.010823,0 -1.830355,0.81934 -1.830355,1.83024 0,1.01089 0.819532,1.83011 1.830355,1.83011 1.010817,0 1.829984,-0.81922 1.829984,-1.83011 0,-1.0109 -0.819167,-1.83024 -1.829984,-1.83024 z m -1.045954,2.40213 2.353085,0.019 c -0.245146,1.17457 -2.069772,1.28826 -2.353085,-0.019 z" />
    <path
       id="path959"
       style="fill:#ffffff;fill-opacity:1;stroke:#09328b;stroke-width:1.32292;stroke-linecap:round;stroke-linejoin:round;stroke-miterlimit:7;stroke-dasharray:none;stroke-opacity:1;paint-order:stroke fill markers"
       d="m -21.728665,81.580381 c -1.37125,0 -2.483925,1.112481 -2.483925,2.483927 0,0.443526 0.117862,0.859378 0.321717,1.21982 l 1.673004,-0.0762 c -0.07459,0.30656 -0.215015,0.46579 -0.312962,0.54887 -0.192442,0.16323 -0.465529,0.23489 -0.779276,0.22215 0.429744,0.3554 0.980492,0.56913 1.581442,0.56913 1.37125,0 2.483676,-1.11262 2.483676,-2.4838 0,-1.371446 -1.112426,-2.483927 -2.483676,-2.483927 z m 0.522853,4.935077 c -0.578303,0 -1.045956,0.57212 -1.045956,1.27737 v 1.2337 l -5.02714,1.97309 c -0.536313,0.21041 -0.85552,0.67128 -0.712105,1.02994 0.142892,0.35685 0.69477,0.47785 1.231079,0.26718 l 4.508166,-1.7692 v 4.64589 c 0,0.70524 0.467653,1.27736 1.045956,1.27736 0.575333,0 1.045705,-0.57212 1.045705,-1.27736 v -7.3806 c 0,-0.70525 -0.470372,-1.27737 -1.045705,-1.27737 z m -1.045956,9.83213 v 9.466272 c 0,0.69307 0.467402,1.25346 1.045706,1.25346 0.57558,0 1.045955,-0.56039 1.045955,-1.25346 v -9.466272 c -0.07179,0.11281 -0.15197,0.20884 -0.246291,0.29495 -0.575334,0.53054 -1.402729,0.39787 -1.84537,-0.29495 z" />
    <path
       id="path10441"
       style="fill:#ffffff;fill-opacity:1;stroke:#09328b;stroke-width:1.32292;stroke-linecap:round;stroke-linejoin:round;stroke-miterlimit:7;stroke-dasharray:none;stroke-opacity:1;paint-order:stroke fill markers"
       d="m 0.792528,88.878168 c -1.217929,0 -2.205355,0.98724 -2.205355,2.20535 0,1.21811 0.987426,2.20553 2.205355,2.20553 1.218108,0 2.205528,-0.98742 2.205528,-2.20553 0,-1.21811 -0.98742,-2.20535 -2.205528,-2.20535 z m -1.378329,2.94279 2.572977,0.0215 c -0.268121,1.32084 -2.263439,1.44884 -2.572977,-0.0215 z m -0.721342,1.67771 c -0.932766,0.93814 -0.932717,0.47369 -0.932717,0.93817 v 5.15851 c 0.467034,0.469082 0.251675,0.469092 0.466972,0.469092 0.517051,0 0.465745,-0.469092 0.465745,-0.469092 v -3.75205 c 0.467221,0 0.200257,-0.87261 0.467242,0 0.03271,0.16633 0,10.786482 0,10.786482 0.466472,0.46906 0.120071,0.46908 0.466444,0.46908 0.81266,0 0.932981,-0.46908 0.932981,-0.46908 0,-6.09702 -0.01137,-5.8839 0,-6.09704 0.191497,-0.34148 0.289841,-0.3402 0.474096,0 -5.55e-4,0.20212 -0.0072,6.09704 -0.0072,6.09704 0.932398,0.46906 0.179203,0.46908 0.932363,0.46908 0.347677,0 0.466452,-0.46908 0.466452,-0.46908 -0.0028,-10.786462 0.0071,-10.566912 -0.0028,-10.786482 0.214548,-0.91795 0.469078,0 0.469078,0 v 3.75205 c 0.467034,0.469082 -0.155486,0.469092 0.466972,0.469092 0.263083,0 0.466535,-0.469092 0.466535,-0.469092 v -5.15851 c 0,-0.46448 -0.93298,-0.93817 -0.93298,-0.93817 z" />
    <path
       id="path941"
       style="fill:#ffffff;fill-opacity:1;stroke:#09328b;stroke-width:1.32292;stroke-linecap:round;stroke-linejoin:round;stroke-miterlimit:7;stroke-dasharray:none;stroke-opacity:1;paint-order:stroke fill markers"
       d="m -36.108864,74.814196 c -1.443889,0 -2.614639,1.1708 -2.614639,2.614761 0,1.44396 1.17075,2.614387 2.614639,2.614387 0.641669,0 1.228409,-0.231847 1.683511,-0.615416 -0.795973,0.159519 -1.703549,-0.21572 -1.923424,-1.224076 l 2.729592,0.0219 c 0.08066,-0.25137 0.124834,-0.518874 0.124834,-0.796788 0,-1.443961 -1.170623,-2.614762 -2.614513,-2.614762 z m -1.357791,5.872709 c -0.215818,0.0014 -0.445772,0.08071 -0.64381,0.231903 -0.08638,0.01656 -0.159106,0.05413 -0.211517,0.114457 -0.04066,0.04671 -0.06577,0.103785 -0.07693,0.167989 l -3.83221,4.073874 c -0.315019,0.33469 -0.392167,0.78382 -0.218022,1.09648 v 6.87039 c 0,0.54086 0.411406,0.97816 0.914866,0.97816 0.505933,0 0.915243,-0.4373 0.915243,-0.97816 v -7.3123 l 3.182397,-3.382786 4.079251,3.515616 c 0.434377,0.37463 0.955199,0.48557 1.160284,0.24967 0.206149,-0.23722 0.0205,-0.73287 -0.414405,-1.1075 l -4.153427,-3.580037 c 0.07051,-0.288421 0.0053,-0.576502 -0.202512,-0.761013 -0.135703,-0.120411 -0.312125,-0.177907 -0.499211,-0.176743 z" />
    <path
       d="m -36.239635,95.317068 h -9.935325 v -1.04581 h 9.935325 z"
       style="fill:#ffffff;fill-opacity:1;fill-rule:nonzero;stroke:#09328b;stroke-width:1.32292;stroke-linecap:round;stroke-linejoin:round;stroke-miterlimit:7;stroke-dasharray:none;stroke-opacity:1;paint-order:stroke fill markers"
       id="path1047" />
  </g>
</svg>
