<?xml version="1.0" encoding="UTF-8" standalone="no"?>
<!-- Created with Inkscape (http://www.inkscape.org/) -->

<svg
   width="51.322918mm"
   height="48.158367mm"
   viewBox="0 0 51.322918 48.158368"
   version="1.1"
   id="svg16369"
   sodipodi:docname="route.svg"
   inkscape:version="1.2.1 (9c6d41e410, 2022-07-14)"
   xmlns:inkscape="http://www.inkscape.org/namespaces/inkscape"
   xmlns:sodipodi="http://sodipodi.sourceforge.net/DTD/sodipodi-0.dtd"
   xmlns="http://www.w3.org/2000/svg"
   xmlns:svg="http://www.w3.org/2000/svg">
  <sodipodi:namedview
     id="namedview1222"
     pagecolor="#ffffff"
     bordercolor="#666666"
     borderopacity="1.0"
     inkscape:showpageshadow="2"
     inkscape:pageopacity="0.0"
     inkscape:pagecheckerboard="0"
     inkscape:deskcolor="#d1d1d1"
     inkscape:document-units="mm"
     showgrid="false"
     inkscape:zoom="5.642365"
     inkscape:cx="39.876896"
     inkscape:cy="91.096553"
     inkscape:window-width="2560"
     inkscape:window-height="1411"
     inkscape:window-x="0"
     inkscape:window-y="0"
     inkscape:window-maximized="1"
     inkscape:current-layer="svg16369" />
  <defs
     id="defs16366" />
  <g
     id="layer1"
     transform="translate(35.667009,-52.252777)"
     style="fill:#09328b;fill-opacity:1;stroke:#09328b;stroke-opacity:1;stroke-width:0.5;stroke-dasharray:none">
    <path
       d="m -33.442833,59.158963 c 0,-3.020365 1.386975,-4.68333 3.905928,-4.68333 2.519813,0 3.906787,1.662965 3.906787,4.68333 0,2.75009 -2.711922,6.097108 -3.906787,7.438153 -1.194005,-1.341045 -3.905928,-4.688063 -3.905928,-7.438153 z m 21.875003,6.244726 c 0,-0.860748 0.70081,-1.560968 1.56228,-1.560968 0.8619,0 1.56272,0.70022 1.56272,1.560968 0,0.861178 -0.70082,1.561397 -1.56272,1.561397 -0.86147,0 -1.56228,-0.700219 -1.56228,-1.561397 z M -14.692831,54.475633 H -3.75555 v 2.341665 7.805693 h -3.22407 c -0.0276,-0.105868 -0.0697,-0.205718 -0.10768,-0.308148 -0.0184,-0.04993 -0.0315,-0.10156 -0.0526,-0.150632 -0.075,-0.171717 -0.16281,-0.336121 -0.26662,-0.490196 -0.022,-0.03444 -0.0512,-0.06413 -0.0763,-0.09727 -0.0853,-0.118352 -0.17574,-0.230678 -0.27654,-0.335261 -0.046,-0.04735 -0.0965,-0.08909 -0.14472,-0.133414 -0.0897,-0.0822 -0.18134,-0.1601 -0.27997,-0.231112 -0.0582,-0.04218 -0.1176,-0.08048 -0.17834,-0.117923 -0.10083,-0.0624 -0.20459,-0.118351 -0.31357,-0.169997 -0.0637,-0.03055 -0.12707,-0.06112 -0.19426,-0.08737 -0.11932,-0.04691 -0.24423,-0.08307 -0.37001,-0.114911 -0.0603,-0.0155 -0.11845,-0.03487 -0.18005,-0.04648 -0.18996,-0.03615 -0.38421,-0.05895 -0.58537,-0.05895 -0.20073,0 -0.39542,0.02281 -0.5858,0.05982 -0.0616,0.0112 -0.12061,0.03185 -0.18048,0.04648 -0.12664,0.03185 -0.24983,0.068 -0.36957,0.11491 -0.0663,0.02626 -0.12966,0.05682 -0.19469,0.08737 -0.10769,0.05164 -0.21236,0.106728 -0.312727,0.169997 -0.06121,0.0383 -0.1206,0.07574 -0.178321,0.117921 -0.09863,0.07101 -0.190818,0.148911 -0.28084,0.231112 -0.04823,0.04433 -0.0982,0.08565 -0.144296,0.133416 -0.100798,0.104586 -0.191246,0.216907 -0.27653,0.334831 -0.02416,0.03357 -0.05297,0.06326 -0.07664,0.09769 -0.102952,0.154506 -0.192117,0.318046 -0.266202,0.490197 -0.02113,0.0482 -0.03364,0.100709 -0.05258,0.150201 -0.03837,0.10199 -0.08054,0.201844 -0.107689,0.308577 h -1.660918 z m 15.096061,3.122363 1.36543,3.412006 c 0.11932,0.296526 0.40618,0.490625 0.72623,0.490625 h 1.56227 v 3.122364 H 2.39539 c -0.0271,-0.105868 -0.0694,-0.205718 -0.10768,-0.308148 -0.019,-0.04993 -0.0315,-0.10156 -0.0526,-0.150632 -0.075,-0.171717 -0.16325,-0.336121 -0.26619,-0.490196 -0.0229,-0.03444 -0.0517,-0.06413 -0.0766,-0.09727 -0.0853,-0.118352 -0.17576,-0.230678 -0.27654,-0.335261 -0.0461,-0.04735 -0.0961,-0.08909 -0.1443,-0.133414 -0.09,-0.0822 -0.18133,-0.1601 -0.28084,-0.231112 -0.0578,-0.04218 -0.11716,-0.08048 -0.17832,-0.117923 -0.10039,-0.0624 -0.20417,-0.118351 -0.31271,-0.169997 -0.0646,-0.03055 -0.12751,-0.06112 -0.1947,-0.08737 -0.11975,-0.04691 -0.24379,-0.08307 -0.36957,-0.114911 -0.0611,-0.0155 -0.11889,-0.03487 -0.18048,-0.04648 -0.18996,-0.03615 -0.38422,-0.05895 -0.58494,-0.05895 -0.19254,0 -0.37819,0.02367 -0.56125,0.05724 -0.0448,0.0078 -0.0884,0.01722 -0.13311,0.02626 -0.17702,0.0409 -0.35104,0.09081 -0.51601,0.160962 -0.01,0.0039 -0.0181,0.0095 -0.0271,0.01377 -0.112,0.04864 -0.22054,0.101141 -0.32521,0.16182 v -5.103375 h 2.59605 z m -2.59606,7.805693 c 0,-0.860748 0.70081,-1.560968 1.56272,-1.560968 0.86147,0 1.56227,0.70022 1.56227,1.560968 0,0.861178 -0.7008,1.561397 -1.56227,1.561397 -0.86191,0 -1.56272,-0.700219 -1.56272,-1.561397 z m -4.79841,0.780698 h 3.34683 c 0.0719,0.278022 0.18219,0.538399 0.32348,0.780699 h -3.9938 c 0.14129,-0.2423 0.25155,-0.502677 0.32349,-0.780699 z M 9.52581,85.699265 c 2.51938,0 3.90636,1.662964 3.90636,4.68333 0,2.749659 -2.71193,6.097108 -3.90636,7.438152 -1.19487,-1.341474 -3.90592,-4.688493 -3.90592,-7.438152 0,-3.020366 1.3861,-4.68333 3.90592,-4.68333 z m -14.06271,4.68333 h -25.780934 c -2.585284,0 -4.687715,2.100654 -4.687715,4.683758 0,2.583103 2.102431,4.68333 4.687715,4.68333 H 9.52581 c 0.20761,0 0.40704,-0.08263 0.55393,-0.23025 0.20072,-0.200984 4.91471,-4.982439 4.91471,-9.136838 0,-3.910808 -2.04429,-6.244727 -5.46864,-6.244727 -3.42393,0 -5.46865,2.333919 -5.46865,6.244727 0,2.88049 2.26396,6.058373 3.72028,7.806123 h -38.095274 c -1.723381,0 -3.124999,-1.400438 -3.124999,-3.122365 0,-1.721926 1.401618,-3.122362 3.124999,-3.122362 H -4.5369 c 2.58528,0 4.68771,-2.100658 4.68771,-4.683762 0,-2.583104 -2.10243,-4.683329 -4.68771,-4.683329 h -15.624575 c -1.723379,0 -3.125,-1.400437 -3.125,-3.122792 0,-1.721929 1.401621,-3.122364 3.125,-3.122364 H 10.30673 c 2.58529,0 4.68772,-2.100655 4.68772,-4.682898 0,-2.583106 -2.10243,-4.68376 -4.68772,-4.68376 H 2.06028 c 0.14127,-0.2423 0.25153,-0.502677 0.32347,-0.780699 h 2.45477 c 0.43204,0 0.78137,-0.348603 0.78137,-0.780698 v -4.68333 c 0,-0.431664 -0.34933,-0.780698 -0.78137,-0.780698 H 3.02339 L 1.65797,56.527657 C 1.53822,56.231128 1.25177,56.0366 0.93216,56.0366 h -3.12499 v -2.341665 c 0,-0.431666 -0.34933,-0.780698 -0.78136,-0.780698 h -12.500001 c -0.43203,0 -0.781356,0.349032 -0.781356,0.780698 v 4.68376 h -1.562285 v 1.560966 h 1.562285 v 1.560966 h -3.125002 v 1.561397 h 3.125002 v 2.341665 c 0,0.432095 0.349326,0.780698 0.781356,0.780698 h 2.45477 c 0.07192,0.278022 0.182206,0.538399 0.323487,0.780699 h -15.092177 c 1.456322,-1.74775 3.720278,-4.925631 3.720278,-7.806123 0,-3.910808 -2.04428,-6.244726 -5.469072,-6.244726 -3.423932,0 -5.468644,2.333918 -5.468644,6.244726 0,4.1544 4.713991,8.935424 4.915146,9.13684 0.14688,0.147617 0.345882,0.23068 0.553498,0.23068 H 10.30673 c 1.72382,0 3.12544,1.400437 3.12544,3.122363 0,1.721496 -1.40162,3.121932 -3.12544,3.121932 h -30.468205 c -2.585286,0 -4.687716,2.100654 -4.687716,4.68333 0,2.583105 2.10243,4.68376 4.687716,4.68376 H -4.5369 c 1.72337,0 3.12499,1.400436 3.12499,3.122361 0,1.721926 -1.40162,3.122366 -3.12499,3.122366 z"
       style="fill:#09328b;fill-opacity:1;stroke:#09328b;stroke-width:0.5;stroke-linecap:round;stroke-linejoin:round;stroke-miterlimit:7;stroke-dasharray:none;stroke-opacity:1;paint-order:stroke fill markers"
       id="path1168" />
  </g>
</svg>
