<!--
Heart Bill by Till Teenck from the Noun Project
https://thenounproject.com/term/heart-bill/98293/
-->
<svg xmlns="http://www.w3.org/2000/svg" xmlns:xlink="http://www.w3.org/1999/xlink" version="1.1" x="0px" y="0px" viewBox="10.00 31.70 80.00 46.50" enable-background="new 0 0 100 100" xml:space="preserve">
  <style type="text/css">
    .primary-color{fill:#09328B;}
  </style>
  <g>
    <path class="primary-color" d="M50,69.5c-0.4,0-0.7-0.1-1-0.4C43.4,64.2,36.5,58,36.5,50.9c0-6.2,3.8-8.4,7.4-8.4c2.5,0,4.8,1.9,6.1,3.3   c1.3-1.4,3.6-3.3,6.1-3.3c3.6,0,7.4,2.2,7.4,8.4c0,7.2-6.9,13.3-12.5,18.2C50.7,69.4,50.4,69.5,50,69.5z M43.9,45.5   c-2.8,0-4.4,1.9-4.4,5.4c0,5.4,5.6,10.7,10.5,15.1c4.9-4.4,10.5-9.7,10.5-15.1c0-4.7-2.8-5.4-4.4-5.4c-1.9,0-4.2,2.6-4.9,3.5   c-0.6,0.8-1.9,0.8-2.4,0C48.1,48.1,45.8,45.5,43.9,45.5z"/>
    <path class="primary-color" d="M88.5,78.2h-77c-0.8,0-1.5-0.7-1.5-1.5V33.2c0-0.8,0.7-1.5,1.5-1.5h77c0.8,0,1.5,0.7,1.5,1.5v43.5   C90,77.6,89.3,78.2,88.5,78.2z M13,75.2h74V34.8H13V75.2z"/>
    <g>
      <path class="primary-color" d="M29.5,55c0-6.1,2.6-11.5,6.8-15.2H19.5c-0.8,0-1.5,0.7-1.5,1.5v27.5c0,0.8,0.7,1.5,1.5,1.5h16.8    C32.1,66.5,29.5,61.1,29.5,55z"/>
      <path class="primary-color" d="M80.5,39.8H63.7c4.2,3.8,6.8,9.2,6.8,15.2s-2.6,11.5-6.8,15.2h16.8c0.8,0,1.5-0.7,1.5-1.5V41.2    C82,40.4,81.3,39.8,80.5,39.8z"/>
    </g>
  </g>
</svg>
