<!--
Box by Mahabbah from the Noun Project
https://thenounproject.com/term/box/1897159/
-->
<svg xmlns="http://www.w3.org/2000/svg" xmlns:xlink="http://www.w3.org/1999/xlink" xml:space="preserve" style="shape-rendering:geometricPrecision;text-rendering:geometricPrecision;image-rendering:optimizeQuality;" viewBox="0 0 6.6428 7.1001375" x="0px" y="0px" fill-rule="evenodd" clip-rule="evenodd">
  <defs>
    <style type="text/css">
      .primary-color { fill:#09328B; }
      .primary-color--alt {
        fill:#09328B;
        fill-rule:nonzero;
      }
    </style>
  </defs>
  <g>
    <path class="primary-color--alt" d="M6.25641 0.972385l-0.374494 -0.609291c-0.0131998,-0.0210997 -0.0272996,-0.0545992 -0.0562992,-0.0545992l-1.63058 0 0.0958986 0.66389 1.96547 0zm-3.71494 3.43695c0,0.101198 -0.0119998,0.199797 -0.0342995,0.294296l3.43525 0c0.215297,0 0.391994,-0.176697 0.391994,-0.391994l0 -3.03085 -2.02487 0 -0.00109998 1.10928 -0.540292 -0.289596 -0.540192 0.289596 -0.00109998 -1.10928 -2.04587 0 0 1.86087c0.734889,-0.0511992 1.36048,0.529192 1.36048,1.26768zm-0.151698 0.602791c-0.221797,0.410594 -0.64979,0.66799 -1.11898,0.66799 -0.701889,0 -1.27078,-0.568991 -1.27078,-1.27078 0,-0.549492 0.352995,-1.03568 0.872587,-1.20708l0 -2.21477 0.500592 -0.788788c0.0756989,-0.120198 0.163298,-0.198697 0.316495,-0.198697l4.13594 0c0.153198,0 0.240796,0.0784988 0.316395,0.198697l0.500792 0.789088c0,1.10788 0,2.21597 0,3.32385 0,0.385594 -0.314895,0.700489 -0.700389,0.700489l-3.55265 0zm-1.11898 -1.56518c-0.531592,0 -0.962386,0.430894 -0.962386,0.962386 0,0.531492 0.430794,0.962286 0.962386,0.962286 0.531492,0 0.962286,-0.430794 0.962286,-0.962286 0,-0.531492 -0.430794,-0.962386 -0.962286,-0.962386zm2.67936 -3.13845l-0.363895 0 -0.0959986 0.66389 0.555892 0 -0.0959986 -0.66389zm-0.608791 0l-1.65168 0c-0.0289996,0 -0.0430994,0.0333995 -0.0562992,0.0545992l-0.385694 0.609291 1.99777 0 0.0958986 -0.66389zm0.127398 0.972285l0.000599991 0.705389 0.298796 -0.160298 0.298896 0.160298 0.000599991 -0.705389 -0.598891 0z"/>
    <path class="primary-color" d="M3.67654 3.21955l1.16018 0c0.116998,0 0.116998,0.176797 0,0.176797l-1.16018 0c-0.116998,0 -0.116998,-0.176797 0,-0.176797z"/>
    <path class="primary-color" d="M3.67654 3.79374l1.60638 0c0.116898,0 0.116898,0.176797 0,0.176797l-1.60638 0c-0.116998,0 -0.116998,-0.176797 0,-0.176797z"/>
    <path class="primary-color" d="M5.56782 3.79374l0.281196 0c0.116898,0 0.116898,0.176797 0,0.176797l-0.281196 0c-0.116998,0 -0.116998,-0.176797 0,-0.176797z"/>
    <path class="primary-color" d="M1.87027 4.19114l-0.65389 0.65379c-0.064099,0.064199 -0.159698,0.064099 -0.223797,0l-0.321395 -0.321495c-0.144298,-0.144198 0.0737989,-0.362295 0.218097,-0.218097l0.215197 0.215297 0.547692 -0.547592c0.144198,-0.144298 0.362295,0.0737989 0.218097,0.218097z"/>
  </g>
</svg>
