<!--
Maps by thirddesign from the Noun Project
https://thenounproject.com/term/maps/3610706/
-->
<svg xmlns="http://www.w3.org/2000/svg" xmlns:xlink="http://www.w3.org/1999/xlink" version="1.1" x="0px" y="0px" viewBox="3.50 3.50 41.02 41.02" style="enable-background:new 0 0 48 48;" xml:space="preserve">
  <style type="text/css">
    .primary-color{fill:#09328B;}
  </style>
  <path class="primary-color" d="M43,11.5h-3.55c0.02-0.17,0.05-0.35,0.05-0.5c0-4.14-3.36-7.5-7.5-7.5s-7.5,3.36-7.5,7.5c0,0.15,0.03,0.33,0.05,0.5h-4.4  l-7.88-4.92c-0.16-0.1-0.37-0.1-0.53,0l-8,5C3.59,11.67,3.5,11.83,3.5,12v32c0,0.18,0.1,0.35,0.26,0.44  c0.16,0.09,0.35,0.08,0.51-0.01L12,39.59l7.74,4.83c0.01,0.01,0.02,0,0.03,0.01c0.07,0.04,0.15,0.07,0.24,0.07h23  c0.83,0,1.5-0.67,1.5-1.5V13C44.5,12.17,43.83,11.5,43,11.5z M32,4.5c3.58,0,6.5,2.92,6.5,6.5c0,3.14-5.01,10.88-6.5,13.11  c-1.49-2.23-6.5-9.97-6.5-13.11C25.5,7.42,28.42,4.5,32,4.5z M43.5,43c0,0.28-0.22,0.5-0.5,0.5H20.14l-7.64-4.78V13  c0-0.28-0.22-0.5-0.5-0.5s-0.5,0.22-0.5,0.5v25.72l-7,4.37V12.28L12,7.59l7.5,4.69V37c0,0.28,0.22,0.5,0.5,0.5s0.5-0.22,0.5-0.5  V12.5h4.24c1.18,4.53,6.59,12.41,6.85,12.78c0.09,0.14,0.25,0.22,0.41,0.22s0.32-0.08,0.41-0.22c0.26-0.37,5.67-8.26,6.85-12.78H43  c0.28,0,0.5,0.22,0.5,0.5V43z"/>
  <path class="primary-color" d="M35.5,11c0-1.93-1.57-3.5-3.5-3.5s-3.5,1.57-3.5,3.5s1.57,3.5,3.5,3.5S35.5,12.93,35.5,11z M29.5,11  c0-1.38,1.12-2.5,2.5-2.5s2.5,1.12,2.5,2.5s-1.12,2.5-2.5,2.5S29.5,12.38,29.5,11z"/>
  <path class="primary-color" d="M33.41,25.65c-0.2-0.2-0.51-0.2-0.71,0L32,26.35l-0.71-0.71c-0.2-0.2-0.51-0.2-0.71,0s-0.2,0.51,0,0.71l0.71,0.71  l-0.71,0.71c-0.2,0.2-0.2,0.51,0,0.71c0.1,0.1,0.23,0.15,0.35,0.15s0.26-0.05,0.35-0.15L32,27.77l0.71,0.71  c0.1,0.1,0.23,0.15,0.35,0.15s0.26-0.05,0.35-0.15c0.2-0.2,0.2-0.51,0-0.71l-0.71-0.71l0.71-0.71  C33.61,26.16,33.61,25.84,33.41,25.65z"/>
</svg>
