<!--
Truck by Chrystina Angeline from the Noun Project
https://thenounproject.com/term/truck/1731459/
-->
<svg xmlns="http://www.w3.org/2000/svg" xmlns:xlink="http://www.w3.org/1999/xlink" version="1.1" x="0px" y="0px" viewBox="0 0 372 372" style="enable-background:new 0 0 372 372;shape-rendering:geometricPrecision;text-rendering:geometricPrecision;image-rendering:optimizeQuality;" fill-rule="evenodd" clip-rule="evenodd" xml:space="preserve">
  <style type="text/css">
    .primary-color{fill:#09328B;}
  </style>
  <path class="primary-color" d="M28 207l150 0 0 -173 -145 0 0 -10 155 0 0 50c44,0 88,0 132,0l52 105 0 105 -77 0c-2,26 -24,45 -50,45 -26,0 -47,-20 -50,-45l-167 0 0 -77zm200 136c6,0 6,-10 0,-10l-96 0c-7,0 -7,10 0,10l96 0zm-120 0c6,0 6,-10 0,-10l-27 0c-7,0 -7,10 0,10l27 0zm-73 -333c7,0 7,-10 0,-10l-15 0c-6,0 -6,10 0,10l15 0zm319 33c6,0 6,-10 0,-10l-11 0c-7,0 -7,10 0,10l11 0zm-216 130c7,0 7,-10 0,-10l-53 0c-7,0 -7,10 0,10l53 0zm0 -100c7,0 7,-10 0,-10l-20 0c-7,0 -7,10 0,10l20 0zm-120 50c7,0 7,-10 0,-10l-12 0c-7,0 -7,10 0,10l12 0zm204 -80c-7,0 -7,-10 0,-10l100 0c6,0 6,10 0,10l-100 0zm-165 -33c-6,0 -6,-10 0,-10l250 0c7,0 7,10 0,10l-250 0zm-52 63c-7,0 -7,-10 0,-10l91 0c7,0 7,10 0,10l-91 0zm33 50c-6,0 -6,-10 0,-10l100 0c7,0 7,10 0,10l-100 0zm-33 50c-7,0 -7,-10 0,-10l54 0c6,0 6,10 0,10l-54 0zm0 170c-7,0 -7,-10 0,-10l55 0c7,0 7,10 0,10l-55 0zm222 -231c-4,-5 3,-12 7,-7l59 58c4,5 -3,12 -7,7l-59 -58zm-14 29c-5,-4 2,-12 7,-7l29 29c5,5 -2,12 -7,7l-29 -29zm-11 50l31 0 0 10 -31 0 0 -10zm99 -96l43 85c-47,0 -95,0 -142,0l0 -85c33,0 66,0 99,0zm-56 151c-18,0 -32,15 -32,33 0,18 14,33 32,33 18,0 33,-15 33,-33 0,-18 -15,-33 -33,-33z"/>
</svg>
