<!--
sack by Creative Stall from the Noun Project
https://thenounproject.com/term/sack/1468937/
-->
<svg xmlns="http://www.w3.org/2000/svg" xmlns:xlink="http://www.w3.org/1999/xlink" version="1.1" x="0px" y="0px" viewBox="0 0 65 65" enable-background="new 0 0 65 65" xml:space="preserve">
  <style type="text/css">
    .primary-color{fill:#09328B;}
  </style>
<g>
<g>
<g>
<path class="primary-color" d="M33.592,11.49c-0.688,0-1.338-0.194-1.967-0.382c-0.524-0.157-1.021-0.305-1.516-0.338     c-0.688-0.048-1.359,0.122-2.082,0.3c-0.525,0.129-1.069,0.263-1.631,0.316c-1.5,0.141-2.801-0.292-4.354-1.417     c-0.429-0.31-0.718-0.35-0.922-0.35c-0.275,0-0.566,0.087-0.902,0.189c-0.41,0.124-0.875,0.264-1.456,0.294l-0.193,0.005     c-1.057,0-2.02-0.436-2.578-1.168c-0.726-0.952-0.646-2.332,0.177-3.076c0.549-0.498,1.259-0.607,1.886-0.704     c0.382-0.059,0.742-0.114,1.048-0.244c0.64-0.271,1.098-0.887,1.583-1.539c0.571-0.768,1.161-1.562,2.127-1.904     c1.018-0.361,2.213-0.001,3.273,0.394c0.596,0.222,1.158,0.431,1.718,0.497c1.163,0.134,2.309-0.346,3.532-0.856     c1.096-0.457,2.229-0.93,3.393-0.93c0.423,0,0.833,0.063,1.221,0.189c0.891,0.289,1.584,0.886,2.256,1.464     c0.644,0.554,1.251,1.078,1.979,1.288c0.777,0.226,1.758,0.048,2.767-0.176c0.246-0.055,0.492-0.109,0.737-0.157     c1.767-0.342,3.235,0.009,3.997,0.987c0.445,0.572,0.611,1.319,0.467,2.105c-0.181,0.985-0.825,1.919-1.68,2.438     c-0.873,0.53-1.939,0.776-3.357,0.776c-0.431,0-0.863-0.021-1.287-0.05l-0.245-0.017c-0.539-0.037-1.086-0.074-1.627-0.074     c-0.953,0-1.69,0.123-2.319,0.387c-0.422,0.177-0.822,0.428-1.246,0.694c-0.729,0.458-1.482,0.931-2.399,1.037     C33.856,11.483,33.724,11.49,33.592,11.49z M29.879,9.762c0.099,0,0.198,0.003,0.298,0.01c0.606,0.041,1.18,0.212,1.734,0.378     c0.688,0.205,1.324,0.398,1.963,0.324c0.692-0.081,1.319-0.474,1.983-0.891c0.439-0.276,0.894-0.561,1.391-0.769     c0.756-0.317,1.615-0.465,2.706-0.465c0.563,0,1.133,0.039,1.695,0.077l0.243,0.016c0.402,0.027,0.813,0.048,1.221,0.048     c1.227,0,2.129-0.201,2.838-0.631c0.609-0.37,1.087-1.063,1.216-1.765c0.065-0.355,0.07-0.869-0.272-1.31     c-0.522-0.671-1.631-0.886-3.019-0.62c-0.235,0.046-0.473,0.099-0.71,0.151c-1.082,0.242-2.278,0.444-3.262,0.161     c-0.937-0.271-1.656-0.892-2.353-1.491c-0.624-0.537-1.213-1.043-1.912-1.27c-1.165-0.378-2.517,0.127-3.919,0.712     c-1.285,0.536-2.63,1.088-4.035,0.927c-0.679-0.08-1.324-0.32-1.949-0.553c-0.949-0.353-1.853-0.65-2.591-0.388     c-0.679,0.241-1.154,0.881-1.659,1.559c-0.543,0.731-1.105,1.486-1.994,1.863c-0.421,0.178-0.86,0.246-1.286,0.312     c-0.559,0.086-1.041,0.161-1.367,0.457c-0.433,0.391-0.457,1.198-0.053,1.728c0.37,0.485,1.036,0.774,1.783,0.774l0.143-0.004     c0.459-0.023,0.845-0.14,1.219-0.252c0.88-0.266,1.775-0.36,2.698,0.309c1.346,0.975,2.44,1.348,3.674,1.23     c0.488-0.045,0.973-0.165,1.484-0.291C28.459,9.933,29.153,9.762,29.879,9.762z"/>
</g>
<g>
<path class="primary-color" d="M31.489,64.425c-2.87,0-5.541-0.32-8.056-0.961c-5.587-1.423-10.646-4.832-14.246-9.601     c-6.036-7.997-5.282-19.407,1.753-26.54c1.625-1.648,3.524-3.005,5.361-4.319c1.353-0.967,2.751-1.967,4.014-3.066     c1-0.871,2.176-2.057,2.396-3.52c0.172-1.149-0.274-2.453-1.227-3.576c-0.891-1.052-2.089-1.844-3.248-2.611     c-0.231-0.152-0.294-0.462-0.142-0.693c0.151-0.231,0.461-0.293,0.692-0.141c1.218,0.805,2.478,1.638,3.461,2.798     c1.138,1.343,1.667,2.936,1.451,4.371c-0.268,1.786-1.598,3.143-2.728,4.125c-1.299,1.131-2.717,2.146-4.089,3.126     c-1.802,1.289-3.666,2.622-5.23,4.207c-6.69,6.783-7.407,17.632-1.667,25.236c3.463,4.588,8.326,7.868,13.693,9.235     c4.899,1.247,10.435,1.239,16.923-0.025c3.41-0.665,7.735-1.789,10.941-4.609c2.816-2.479,4.801-6.279,6.065-11.62     c2.071-8.741,0.221-13.57-7.074-18.456c-1.233-0.827-2.541-1.6-3.806-2.348c-1.923-1.137-3.91-2.313-5.715-3.717     c-0.933-0.725-1.944-1.632-2.384-2.869c-0.768-2.168,0.51-4.391,1.339-5.522c0.353-0.482,0.736-0.943,1.12-1.404     c0.787-0.946,1.53-1.84,2.006-2.894c0.115-0.252,0.41-0.363,0.662-0.25c0.251,0.113,0.363,0.41,0.25,0.661     c-0.532,1.178-1.354,2.167-2.15,3.123c-0.37,0.445-0.741,0.891-1.082,1.356c-0.713,0.972-1.816,2.863-1.202,4.597     c0.351,0.991,1.194,1.746,2.054,2.414c1.755,1.364,3.715,2.524,5.611,3.645c1.275,0.755,2.596,1.536,3.853,2.378     c7.623,5.105,9.652,10.396,7.49,19.518c-1.313,5.549-3.4,9.521-6.378,12.141c-3.386,2.978-7.876,4.151-11.41,4.839     C37.466,64.101,34.377,64.425,31.489,64.425z"/>
</g>
<g>
<path class="primary-color" d="M32.828,21.058c-0.704,0-1.421-0.069-2.14-0.209c-2.6-0.507-5.185-1.899-7.683-4.137     c-0.205-0.185-0.223-0.501-0.038-0.706c0.186-0.206,0.501-0.222,0.706-0.039c2.361,2.116,4.786,3.428,7.206,3.9     c2.829,0.554,5.735-0.158,7.577-1.856c0.202-0.186,0.521-0.174,0.706,0.029c0.188,0.203,0.175,0.52-0.028,0.707     C37.507,20.248,35.245,21.058,32.828,21.058z"/>
</g>
<g>
<path class="primary-color" d="M33.28,21.842c-3.833,0-7.688-1.326-10.664-3.733c-0.215-0.173-0.248-0.488-0.074-0.703     c0.173-0.215,0.488-0.248,0.703-0.074c3.381,2.734,7.968,3.986,12.268,3.348c1.602-0.238,2.619-0.753,3.112-1.577     c0.142-0.238,0.449-0.313,0.686-0.172c0.237,0.142,0.314,0.449,0.172,0.686c-0.656,1.096-1.906,1.768-3.823,2.052     C34.873,21.785,34.077,21.842,33.28,21.842z"/>
</g>
<g>
<path class="primary-color" d="M33.254,22.658c-3.674,0-7.937-1.257-11.396-3.432c-0.233-0.147-0.304-0.456-0.156-0.689     c0.148-0.235,0.457-0.302,0.689-0.157c3.951,2.484,8.982,3.719,12.813,3.139c1.736-0.261,3.309-0.896,4.545-1.837     c0.22-0.167,0.533-0.126,0.701,0.095c0.167,0.22,0.124,0.534-0.096,0.701c-1.37,1.042-3.1,1.744-5.002,2.031     C34.683,22.609,33.979,22.658,33.254,22.658z"/>
</g>
<g>
<path class="primary-color" d="M17.47,27.189c-0.236,0-0.446-0.168-0.49-0.409c-0.051-0.271,0.129-0.533,0.4-0.583c2.666-0.495,3.734-2.228,4.678-3.756     c0.299-0.483,0.58-0.94,0.894-1.32c0.78-0.946,2.118-1.837,3.516-1.509c0.269,0.064,0.436,0.333,0.372,0.601     c-0.063,0.268-0.326,0.436-0.601,0.372c-0.964-0.228-1.928,0.458-2.516,1.171c-0.27,0.328-0.534,0.756-0.813,1.209     c-0.947,1.536-2.245,3.639-5.348,4.215C17.531,27.187,17.5,27.189,17.47,27.189z"/>
</g>
<g>
<path class="primary-color" d="M19.98,35.414c-0.188,0-0.369-0.107-0.454-0.29c-0.115-0.251-0.007-0.548,0.244-0.664     c4.849-2.246,5.382-3.587,5.556-8.342c0.071-1.935,0.238-3.955,1.405-5.525c0.167-0.222,0.481-0.266,0.699-0.103     c0.222,0.165,0.269,0.478,0.104,0.7c-0.996,1.34-1.143,3.187-1.208,4.965c-0.19,5.177-0.932,6.802-6.136,9.213     C20.123,35.399,20.051,35.414,19.98,35.414z"/>
</g>
</g>
<g>
<path class="primary-color" d="M58.053,41.042c-0.072,0-0.144-0.031-0.193-0.091l-5.47-6.632c-0.087-0.106-0.072-0.264,0.034-0.352    c0.107-0.088,0.264-0.073,0.353,0.034l5.47,6.632c0.087,0.106,0.072,0.264-0.034,0.352C58.165,41.024,58.108,41.042,58.053,41.042    z"/>
</g>
<g>
<path class="primary-color" d="M57.661,45.455c-0.066,0-0.13-0.025-0.179-0.075c-2.012-2.062-3.787-4.359-5.278-6.829    c-0.071-0.118-0.033-0.272,0.085-0.343c0.116-0.072,0.271-0.034,0.343,0.084c1.472,2.437,3.224,4.704,5.208,6.738    c0.097,0.099,0.095,0.257-0.004,0.354C57.787,45.431,57.724,45.455,57.661,45.455z"/>
</g>
<g>
<path class="primary-color" d="M56.92,50.505c-0.074,0-0.148-0.033-0.197-0.097c-2.031-2.616-4.237-5.144-6.559-7.515    c-0.097-0.099-0.095-0.257,0.004-0.354c0.099-0.095,0.257-0.096,0.354,0.004c2.334,2.384,4.554,4.926,6.596,7.558    c0.085,0.109,0.066,0.266-0.044,0.351C57.027,50.488,56.974,50.505,56.92,50.505z"/>
</g>
<g>
<path class="primary-color" d="M54.536,54.058c-0.07,0-0.14-0.029-0.19-0.086l-5.719-6.618c-0.09-0.104-0.078-0.263,0.026-0.353    c0.104-0.091,0.262-0.078,0.353,0.025l5.719,6.618c0.09,0.104,0.078,0.263-0.026,0.353C54.652,54.038,54.594,54.058,54.536,54.058    z"/>
</g>
<g>
<path class="primary-color" d="M52.047,57.506c-0.078,0-0.156-0.037-0.205-0.106c-1.447-2.063-2.979-4.109-4.549-6.084    c-0.086-0.108-0.068-0.266,0.04-0.352c0.107-0.085,0.266-0.068,0.351,0.04c1.577,1.982,3.114,4.038,4.568,6.108    c0.079,0.113,0.052,0.269-0.062,0.348C52.146,57.492,52.097,57.506,52.047,57.506z"/>
</g>
<g>
<path class="primary-color" d="M47.539,61.389c-0.078,0-0.155-0.037-0.204-0.106l-4.53-6.432c-0.08-0.113-0.053-0.269,0.061-0.349    c0.11-0.079,0.268-0.053,0.348,0.061l4.53,6.432c0.08,0.113,0.053,0.269-0.06,0.349C47.64,61.374,47.589,61.389,47.539,61.389z"/>
</g>
<g>
<path class="primary-color" d="M49.591,59.711c-0.078,0-0.155-0.037-0.204-0.105c-1.237-1.749-2.436-3.558-3.561-5.378    c-0.072-0.117-0.036-0.271,0.081-0.344c0.118-0.071,0.271-0.036,0.345,0.082c1.119,1.811,2.312,3.611,3.543,5.352    c0.08,0.113,0.053,0.269-0.06,0.349C49.691,59.696,49.641,59.711,49.591,59.711z"/>
</g>
<g>
<path class="primary-color" d="M42.975,62.685c-0.106,0-0.204-0.068-0.238-0.174c-0.695-2.178-1.926-4.176-3.558-5.779    c-0.099-0.097-0.101-0.255-0.004-0.354c0.098-0.099,0.258-0.099,0.354-0.003c1.69,1.659,2.965,3.729,3.684,5.983    c0.042,0.132-0.03,0.272-0.162,0.314C43.025,62.681,43,62.685,42.975,62.685z"/>
</g>
<g>
<path class="primary-color" d="M37.896,63.323c-0.101,0-0.195-0.061-0.233-0.16c-0.623-1.617-1.498-3.117-2.602-4.46    c-0.088-0.106-0.072-0.264,0.034-0.352c0.107-0.087,0.265-0.072,0.353,0.035c1.138,1.384,2.04,2.931,2.682,4.598    c0.05,0.129-0.015,0.273-0.143,0.323C37.956,63.318,37.926,63.323,37.896,63.323z"/>
</g>
<g>
<path class="primary-color" d="M33.774,63.96c-0.096,0-0.188-0.056-0.229-0.149c-0.581-1.316-1.348-2.537-2.278-3.628    c-0.09-0.105-0.077-0.263,0.028-0.353c0.104-0.088,0.262-0.077,0.353,0.028c0.962,1.128,1.754,2.391,2.354,3.75    c0.056,0.126-0.001,0.274-0.128,0.33C33.843,63.954,33.809,63.96,33.774,63.96z"/>
</g>
<g>
<path class="primary-color" d="M30.615,63.853c-0.107,0-0.206-0.069-0.239-0.176c-0.421-1.371-1.253-2.641-2.343-3.577    c-0.104-0.09-0.116-0.248-0.026-0.353c0.089-0.104,0.249-0.116,0.353-0.026c1.16,0.997,2.046,2.349,2.495,3.809    c0.04,0.132-0.034,0.272-0.166,0.313C30.664,63.85,30.64,63.853,30.615,63.853z"/>
</g>
<g>
<path class="primary-color" d="M26.719,63.536c-0.091,0-0.179-0.05-0.223-0.137c-0.571-1.129-1.333-2.133-2.266-2.985    c-0.102-0.093-0.108-0.251-0.016-0.353c0.093-0.103,0.253-0.108,0.354-0.016c0.978,0.893,1.775,1.945,2.373,3.128    c0.063,0.123,0.014,0.273-0.11,0.336C26.795,63.527,26.757,63.536,26.719,63.536z"/>
</g>
<g>
<path class="primary-color" d="M24.188,63.43c-0.081,0-0.16-0.039-0.208-0.112c-0.624-0.938-1.387-1.77-2.267-2.473    c-0.107-0.086-0.125-0.243-0.039-0.351c0.086-0.108,0.245-0.125,0.352-0.04c0.92,0.735,1.718,1.605,2.37,2.587    c0.076,0.115,0.045,0.27-0.069,0.346C24.284,63.416,24.236,63.43,24.188,63.43z"/>
</g>
<g>
<path class="primary-color" d="M59.633,41.485c-0.076,0-0.151-0.035-0.2-0.101c-2.048-2.753-3.886-5.694-5.465-8.743    c-0.063-0.123-0.016-0.273,0.106-0.337c0.123-0.063,0.273-0.016,0.337,0.107c1.567,3.024,3.392,5.942,5.422,8.673    c0.083,0.111,0.06,0.268-0.051,0.35C59.737,41.469,59.685,41.485,59.633,41.485z"/>
</g>
<g>
<path class="primary-color" d="M21.562,62.873c-0.077,0-0.153-0.036-0.202-0.103c-0.081-0.111-0.057-0.268,0.055-0.349    c1.227-0.893,2.538-1.688,3.896-2.365c0.121-0.061,0.272-0.012,0.335,0.112c0.062,0.124,0.012,0.273-0.112,0.335    c-1.332,0.665-2.619,1.446-3.823,2.322C21.665,62.857,21.613,62.873,21.562,62.873z"/>
</g>
<g>
<path class="primary-color" d="M23.873,63.675c-0.076,0-0.152-0.035-0.201-0.102c-0.082-0.111-0.059-0.267,0.053-0.35    c1.945-1.437,4.036-2.693,6.216-3.735c0.122-0.059,0.273-0.007,0.333,0.118c0.06,0.125,0.007,0.274-0.118,0.333    c-2.149,1.028-4.214,2.269-6.134,3.687C23.977,63.659,23.925,63.675,23.873,63.675z"/>
</g>
<g>
<path class="primary-color" d="M27.333,63.812c-0.078,0-0.155-0.037-0.204-0.106c-0.08-0.113-0.053-0.269,0.06-0.348l5.811-4.103    c0.113-0.08,0.269-0.053,0.349,0.06c0.08,0.113,0.053,0.269-0.06,0.348l-5.811,4.103C27.434,63.797,27.383,63.812,27.333,63.812z"/>
</g>
<g>
<path class="primary-color" d="M30.286,64.325c-0.069,0-0.139-0.029-0.188-0.086c-0.091-0.104-0.08-0.262,0.024-0.353    c2.474-2.159,5.173-4.081,8.022-5.711c0.119-0.07,0.272-0.027,0.341,0.093c0.068,0.12,0.027,0.272-0.093,0.341    c-2.82,1.614-5.492,3.517-7.941,5.655C30.403,64.304,30.345,64.325,30.286,64.325z"/>
</g>
<g>
<path class="primary-color" d="M34.623,63.834c-0.07,0-0.141-0.03-0.19-0.088c-0.09-0.105-0.077-0.263,0.028-0.353l8.207-6.996    c0.104-0.089,0.263-0.077,0.353,0.028c0.09,0.105,0.077,0.263-0.028,0.353l-8.207,6.997    C34.738,63.814,34.681,63.834,34.623,63.834z"/>
</g>
<g>
<path class="primary-color" d="M38.511,63.413c-0.068,0-0.137-0.028-0.187-0.083c-0.092-0.103-0.083-0.261,0.02-0.353    c2.592-2.317,4.961-4.902,7.042-7.684c0.083-0.111,0.241-0.132,0.35-0.05c0.111,0.083,0.134,0.239,0.051,0.35    c-2.102,2.808-4.493,5.418-7.108,7.757C38.63,63.392,38.57,63.413,38.511,63.413z"/>
</g>
<g>
<path class="primary-color" d="M42.071,62.426c-0.059,0-0.117-0.021-0.165-0.062c-0.104-0.091-0.114-0.249-0.022-0.353    c2.843-3.237,5.859-6.391,8.964-9.375c0.099-0.096,0.257-0.092,0.354,0.007c0.096,0.1,0.092,0.258-0.008,0.354    c-3.094,2.974-6.1,6.118-8.935,9.345C42.21,62.397,42.141,62.426,42.071,62.426z"/>
</g>
<g>
<path class="primary-color" d="M47.083,54.459c-0.052,0-0.104-0.016-0.148-0.049c-0.111-0.082-0.135-0.238-0.053-0.35l3.957-5.372    c0.082-0.111,0.239-0.135,0.35-0.053c0.111,0.082,0.135,0.238,0.053,0.35l-3.957,5.372C47.235,54.424,47.159,54.459,47.083,54.459    z"/>
</g>
<g>
<path class="primary-color" d="M46.004,61.376c-0.05,0-0.1-0.015-0.142-0.045c-0.113-0.079-0.142-0.234-0.063-0.348c1.757-2.529,3.7-4.968,5.777-7.249    c0.093-0.103,0.252-0.108,0.353-0.017c0.103,0.093,0.109,0.251,0.017,0.354c-2.062,2.265-3.991,4.686-5.736,7.197    C46.161,61.338,46.083,61.376,46.004,61.376z"/>
</g>
<g>
<path class="primary-color" d="M50.959,58.673c-0.036,0-0.073-0.008-0.108-0.025c-0.125-0.06-0.177-0.209-0.117-0.333    c1.418-2.939,3.051-5.808,4.854-8.526c0.076-0.116,0.232-0.146,0.347-0.07c0.114,0.077,0.146,0.231,0.069,0.347    c-1.79,2.7-3.412,5.548-4.819,8.467C51.141,58.621,51.052,58.673,50.959,58.673z"/>
</g>
<g>
<path class="primary-color" d="M51.352,51.104c-0.057,0-0.114-0.019-0.161-0.059c-0.105-0.089-0.119-0.247-0.03-0.352    c1.623-1.934,3.162-3.964,4.575-6.036c0.077-0.115,0.233-0.143,0.347-0.066c0.114,0.078,0.144,0.233,0.065,0.348    c-1.422,2.085-2.971,4.129-4.604,6.075C51.493,51.073,51.423,51.104,51.352,51.104z"/>
</g>
<g>
<path class="primary-color" d="M50.176,47.585c-0.046,0-0.093-0.013-0.134-0.039c-0.117-0.074-0.151-0.228-0.077-0.345    c1.705-2.689,3.689-5.215,5.898-7.506c0.097-0.1,0.255-0.102,0.354-0.007c0.099,0.096,0.102,0.254,0.006,0.354    c-2.185,2.268-4.148,4.767-5.836,7.427C50.339,47.544,50.259,47.585,50.176,47.585z"/>
</g>
<g>
<path class="primary-color" d="M54.592,44.671c-0.055,0-0.11-0.018-0.156-0.055c-0.107-0.086-0.125-0.244-0.039-0.352l3.667-4.587    c0.088-0.107,0.244-0.124,0.352-0.039c0.107,0.086,0.125,0.244,0.039,0.351l-3.667,4.587    C54.737,44.639,54.665,44.671,54.592,44.671z"/>
</g>
<g>
<path class="primary-color" d="M52.481,40.121c-0.058,0-0.116-0.02-0.163-0.061c-0.104-0.09-0.116-0.249-0.026-0.353l3.642-4.218    c0.091-0.104,0.25-0.115,0.353-0.026c0.104,0.09,0.116,0.248,0.026,0.353l-3.642,4.218C52.621,40.092,52.552,40.121,52.481,40.121    z"/>
</g>
<g>
<path class="primary-color" d="M52.921,35.92c-0.051,0-0.101-0.015-0.146-0.047c-0.112-0.081-0.138-0.237-0.058-0.349    c0.756-1.054,1.618-2.038,2.564-2.924c0.099-0.094,0.257-0.09,0.354,0.012c0.094,0.101,0.089,0.259-0.012,0.354    c-0.922,0.864-1.764,1.823-2.5,2.85C53.075,35.884,52.999,35.92,52.921,35.92z"/>
</g>
<g>
<path class="primary-color" d="M55.492,37.178c-0.054,0-0.108-0.018-0.154-0.053c-0.108-0.085-0.128-0.242-0.043-0.351    c0.704-0.898,1.325-1.867,1.847-2.879c0.063-0.124,0.216-0.172,0.337-0.108c0.123,0.063,0.171,0.214,0.108,0.336    c-0.536,1.041-1.175,2.036-1.897,2.959C55.64,37.145,55.566,37.178,55.492,37.178z"/>
</g>
<g>
<path class="primary-color" d="M54.173,50.704c-0.056,0-0.111-0.018-0.157-0.056c-0.108-0.087-0.124-0.244-0.037-0.351l3.645-4.508    c0.086-0.108,0.246-0.124,0.352-0.037c0.107,0.087,0.124,0.244,0.037,0.352l-3.645,4.508    C54.317,50.672,54.245,50.704,54.173,50.704z"/>
</g>
<g>
<path class="primary-color" d="M21.861,51.69c-2.637,0-5.367-1.471-7.148-3.857c-2.654-3.558-3.085-8.815-1.213-14.803    c0.041-0.131,0.182-0.205,0.313-0.164c0.132,0.042,0.206,0.182,0.164,0.313c-1.822,5.831-1.419,10.929,1.137,14.355    c1.688,2.262,4.265,3.656,6.746,3.656c0.033,0,0.082-0.001,0.097,0c0.137,0,0.248,0.109,0.25,0.247    c0.002,0.138-0.108,0.251-0.246,0.253C21.928,51.69,21.894,51.69,21.861,51.69z"/>
</g>
<g>
<path class="primary-color" d="M30.072,46.808c-1.928,0-3.866-0.419-5.667-1.288c-0.125-0.06-0.177-0.209-0.117-0.333    c0.062-0.124,0.209-0.177,0.334-0.117c4.997,2.409,11.098,1.229,14.835-2.875c0.093-0.103,0.252-0.108,0.353-0.017    c0.103,0.093,0.109,0.251,0.017,0.354C37.289,45.318,33.702,46.808,30.072,46.808z"/>
</g>
<g>
<path class="primary-color" d="M35.736,40.292c-0.059,0-0.116-0.02-0.164-0.061c-0.104-0.09-0.115-0.249-0.024-0.353    c2.559-2.953,4.024-6.887,4.021-10.794c0-0.138,0.111-0.25,0.25-0.25l0,0c0.138,0,0.25,0.112,0.25,0.25    c0.004,4.026-1.506,8.08-4.144,11.122C35.876,40.262,35.807,40.292,35.736,40.292z"/>
</g>
<g>
<path class="primary-color" d="M39.026,50.522c-0.061,0-0.121-0.022-0.169-0.066c-0.102-0.094-0.108-0.252-0.015-0.354    c3.479-3.781,5.742-8.673,6.372-13.772c0.018-0.137,0.143-0.234,0.278-0.217c0.138,0.017,0.234,0.142,0.218,0.279    c-0.643,5.202-2.951,10.192-6.501,14.05C39.161,50.495,39.094,50.522,39.026,50.522z"/>
</g>
<g>
<path class="primary-color" d="M34.731,20.206c-0.105,0-0.203-0.067-0.237-0.172c-0.548-1.674-0.295-3.55,0.676-5.019    c0.077-0.116,0.233-0.147,0.347-0.071c0.115,0.076,0.147,0.231,0.071,0.346c-0.875,1.323-1.111,3.081-0.619,4.588    c0.043,0.131-0.028,0.273-0.159,0.315C34.783,20.202,34.757,20.206,34.731,20.206z"/>
</g>
<g>
<path class="primary-color" d="M27.427,19.716c-0.019,0-0.037-0.002-0.057-0.006c-0.135-0.031-0.218-0.166-0.187-0.3c0.359-1.554-0.047-3.286-1.06-4.518    c-0.088-0.106-0.072-0.264,0.034-0.352c0.107-0.088,0.265-0.072,0.353,0.034c1.11,1.35,1.555,3.246,1.16,4.949    C27.644,19.638,27.541,19.716,27.427,19.716z"/>
</g>
<g>
<path class="primary-color" d="M30.861,20.438c-0.065,0-0.13-0.025-0.179-0.075c-0.097-0.099-0.095-0.257,0.004-0.353    c0.536-0.524,0.851-1.332,0.889-2.275c0.034-0.871-0.156-1.75-0.341-2.599c-0.029-0.135,0.057-0.268,0.191-0.297    c0.138-0.029,0.268,0.056,0.297,0.191c0.191,0.88,0.389,1.791,0.352,2.725c-0.042,1.071-0.411,1.999-1.039,2.613    C30.987,20.414,30.925,20.438,30.861,20.438z"/>
</g>
<g>
<path class="primary-color" d="M37.855,9.192c-0.056,0-0.111-0.019-0.157-0.056c-0.107-0.087-0.124-0.245-0.037-0.352l1.742-2.145    c0.088-0.107,0.246-0.122,0.351-0.036c0.107,0.087,0.124,0.245,0.037,0.352L38.05,9.1C38,9.16,37.928,9.192,37.855,9.192z"/>
</g>
<g>
<path class="primary-color" d="M32.431,11.34c-0.036,0-0.072-0.008-0.107-0.024c-0.124-0.059-0.178-0.208-0.118-0.333    c0.455-0.962,0.344-2.022,0.17-2.742c-0.228-0.941-0.672-1.83-1.103-2.69c-0.061-0.124-0.012-0.273,0.111-0.336    c0.124-0.061,0.274-0.012,0.336,0.112c0.442,0.885,0.9,1.799,1.142,2.796c0.192,0.798,0.313,1.979-0.205,3.073    C32.614,11.287,32.524,11.34,32.431,11.34z"/>
</g>
<g>
<path class="primary-color" d="M24.209,9.884c-0.034,0-0.069-0.007-0.102-0.022c-0.126-0.057-0.182-0.205-0.126-0.331    c0.453-1.007,0.536-2.191,0.228-3.25c-0.038-0.132,0.038-0.271,0.17-0.31c0.13-0.04,0.271,0.037,0.31,0.17    c0.341,1.171,0.249,2.481-0.251,3.595C24.396,9.829,24.305,9.884,24.209,9.884z"/>
</g>
<g>
<path class="primary-color" d="M27.916,8.509c-0.138,0-0.249-0.111-0.25-0.249c-0.006-1.341-0.748-2.659-1.892-3.358    c-0.118-0.072-0.155-0.226-0.083-0.344c0.071-0.119,0.228-0.155,0.343-0.083c1.289,0.787,2.126,2.271,2.132,3.782    C28.167,8.396,28.055,8.508,27.916,8.509L27.916,8.509z"/>
</g>
<g>
<path class="primary-color" d="M23.696,10.68c-0.055,0-0.11-0.018-0.156-0.055c-0.107-0.086-0.125-0.244-0.039-0.351l0.526-0.657    c0.086-0.108,0.242-0.126,0.352-0.04c0.108,0.086,0.125,0.243,0.039,0.351l-0.526,0.658C23.842,10.647,23.77,10.68,23.696,10.68z"/>
</g>
</g>
</svg>