<!--
Pallet by Nawicon from the Noun Project
https://thenounproject.com/term/pallet/3364535/
-->
<svg xmlns:dc="http://purl.org/dc/elements/1.1/" xmlns:cc="http://creativecommons.org/ns#" xmlns:rdf="http://www.w3.org/1999/02/22-rdf-syntax-ns#" xmlns:svg="http://www.w3.org/2000/svg" xmlns="http://www.w3.org/2000/svg" xmlns:sodipodi="http://sodipodi.sourceforge.net/DTD/sodipodi-0.dtd" xmlns:inkscape="http://www.inkscape.org/namespaces/inkscape" viewBox="0.50 0.52 15.92 15.92" version="1.1" x="0px" y="0px">
  <style type="text/css">
    .primary-color{fill:#09328B;}
  </style>
  <g class="primary-color" transform="translate(0,-280.06665)">
    <path d="m 6.0859296,280.59633 c -0.4351602,0 -0.7953005,0.35756 -0.7953005,0.79272 v 4.23437 c 0,0.35312 0.5296853,0.35312 0.5296853,0 v -4.23437 c 0,-0.15115 0.1144561,-0.26355 0.2656152,-0.26355 H 8.99583 v 1.09399 l -0.382923,-0.25632 c -0.088744,-0.059 -0.2037426,-0.059 -0.2924865,0 l -0.3829235,0.25632 v -0.30127 c 0,-0.35286 -0.5296826,-0.35286 -0.5296826,0 v 0.7953 c 7.937e-4,0.21131 0.2369396,0.33638 0.4123769,0.21859 l 0.6464724,-0.4315 0.6464723,0.4315 c 0.175437,0.11779 0.411115,-0.007 0.411861,-0.21859 v -1.58802 h 1.3224 c 0.151159,0 0.265616,0.1124 0.265616,0.26355 v 4.76405 c 0,0.15115 -0.114457,0.26355 -0.265616,0.26355 H 8.99583 c -0.203467,0 -0.388191,0.0717 -0.5291663,0.19947 -0.1409753,-0.12778 -0.3256995,-0.19947 -0.5291667,-0.19947 H 3.1755129 c -0.4351602,0 -0.7947818,0.35755 -0.7947818,0.79272 v 4.23436 c -0.0081,0.36079 0.5372655,0.36079 0.5291666,0 v -4.23436 c 0,-0.15116 0.1144666,-0.26355 0.2656152,-0.26355 h 2.9104167 v 1.09399 l -0.3829209,-0.25632 c -0.088749,-0.059 -0.2042583,-0.059 -0.2930049,0 l -0.3829235,0.25632 v -0.30128 c 0,-0.35286 -0.5291667,-0.35286 -0.5291667,0 v 0.7953 c -7.937e-4,0.2122 0.2356882,0.33895 0.411861,0.22066 l 0.6464724,-0.4315 0.6469882,0.4315 c 0.1761728,0.11829 0.4126786,-0.008 0.411861,-0.22066 v -1.58801 H 7.937497 c 0.1410785,0 0.2656178,0.10363 0.2656178,0.30747 v 4.19044 c -0.034525,0.38438 0.5616232,0.38438 0.5270982,0 v -4.19199 c 0,-0.21047 0.127685,-0.30592 0.265617,-0.30592 h 2.910417 v 1.09399 l -0.382924,-0.25632 c -0.08875,-0.059 -0.204256,-0.059 -0.293005,0 l -0.382921,0.25632 v -0.30128 c 0,-0.35286 -0.529166,-0.35286 -0.529166,0 v 0.7953 c -7.94e-4,0.2122 0.235688,0.33895 0.411861,0.22066 l 0.646472,-0.4315 0.646988,0.4315 c 0.176173,0.11829 0.412679,-0.008 0.411861,-0.22066 v -1.58801 h 1.322401 c 0.151149,0 0.265615,0.11239 0.265615,0.26355 v 4.23436 c -0.0081,0.36079 0.537266,0.36079 0.529167,0 v -4.23436 c 0,-0.43517 -0.359622,-0.79272 -0.794782,-0.79272 h -2.16421 c 0.02991,-0.083 0.04909,-0.17084 0.04909,-0.26355 v -4.76405 c 0,-0.43516 -0.36014,-0.79272 -0.795301,-0.79272 z m 0.5291666,4.76147 c -0.3450352,0.008 -0.3450352,0.52151 0,0.52917 h 1.058852 c 0.3450352,-0.008 0.3450352,-0.52151 0,-0.52917 z m -2.9098981,5.82032 c -0.3606959,-0.008 -0.3606959,0.53717 0,0.52916 h 1.0562643 c 0.3606959,0.008 0.3606959,-0.53717 0,-0.52916 z m 5.8197989,0 c -0.360696,-0.008 -0.360696,0.53717 0,0.52916 h 1.058849 c 0.360696,0.008 0.360696,-0.53717 0,-0.52916 z m -8.7322845,1.05885 c -0.1461188,5.3e-4 -0.2641044,0.11949 -0.2635488,0.26561 v 1.05834 c 5.292e-4,0.14531 0.1182344,0.26296 0.2635488,0.26355 h 0.5291667 v 1.05885 H 0.7927125 c -0.1453118,5.3e-4 -0.2629667,0.11823 -0.2635488,0.26355 v 1.05885 c -5.292e-4,0.14612 0.11743,0.26503 0.2635488,0.26561 H 16.140615 c 0.146118,-5.3e-4 0.264104,-0.11949 0.263548,-0.26561 v -1.05885 c -5.29e-4,-0.14532 -0.118237,-0.26297 -0.263548,-0.26355 h -0.529167 v -1.05885 h 0.529167 c 0.145314,-5.3e-4 0.262969,-0.11824 0.263548,-0.26355 v -1.05834 c 5.29e-4,-0.14612 -0.11743,-0.26503 -0.263548,-0.26561 z m 0.2656179,0.52916 H 15.874997 v 0.52917 H 1.0583304 Z m 0.793234,1.05834 h 0.5291667 v 1.05885 H 1.8515644 Z m 1.0583333,0 H 5.556247 v 1.05885 H 2.9098977 Z m 3.1760319,0 h 0.5291666 v 1.05885 H 6.0859296 Z m 1.0583333,0 H 9.789064 v 1.05885 H 7.1442629 Z m 3.1739681,0 h 0.529166 v 1.05885 h -0.529166 z m 1.058333,0 h 2.646865 v 1.05885 h -2.646865 z m 3.176032,0 h 0.529167 v 1.05885 H 14.552596 Z M 1.0583304,295.41248 H 15.874997 v 0.52969 H 1.0583304 Z"/>
  </g>
</svg>
