<!--
open box by HAMEL KHALED from the Noun Project
https://thenounproject.com/term/open-box/3618360/
-->
<svg xmlns="http://www.w3.org/2000/svg" xmlns:xlink="http://www.w3.org/1999/xlink" version="1.1" x="0px" y="0px" viewBox="0 0 64 64" style="enable-background:new 0 0 64 64;" xml:space="preserve">
  <style type="text/css">
    .primary-color{fill:#09328B;}
  </style>
  <path class="primary-color" d="M62.2,21l-8.4-1.7l5-6.7c0.5-0.8-0.1-1.4-0.4-1.5l-12-6c-0.5-0.2-1.1,0-1.3,0.4c-0.2,0.5,0,1.1,0.4,1.3l11,5.5l-4.8,6.4  L33.5,9.6l4.8-6.4l3.3,1.6c0.5,0.2,1.1,0,1.3-0.4c0.2-0.5,0-1.1-0.4-1.3l-4-2c-0.4-0.2-1-0.1-1.2,0.3l-5.5,7.4l-9.3-3.7  C22.1,5,21.8,5,21.5,5.1l-20,12c-0.3,0.2-1,1.2,0.1,1.8l8.8,3.5l-5.2,7c-0.5,0.8,0.1,1.4,0.4,1.5l20,10c0.1,0.1,0.8,0.3,1.2-0.3  L31,35v25.2l-4.3-2.6c-0.5-0.3-1.1-0.1-1.4,0.3c-0.3,0.5-0.1,1.1,0.3,1.4l5.9,3.5c0.1,0.1,0.8,0.2,1,0l20-12  c0.3-0.2,0.5-0.5,0.5-0.9V32c0-0.6-0.4-1-1-1s-1,0.4-1,1v17.4L33,60.2v-27l8.8,1.8c0.2,0,0.5,0,0.7-0.1l2.1-1.2  c0.5-0.3,0.6-0.9,0.3-1.4c-0.3-0.5-0.9-0.6-1.4-0.3l-1.7,1l-7.1-1.4l17.5-10.5l7.1,1.4l-12,7.2c-0.5,0.3-0.6,0.9-0.3,1.4  c0.4,0.7,1.2,0.4,1.4,0.3l14.2-8.5C62.9,22.7,63.3,21.4,62.2,21z M25.7,38.7L7.5,29.6l4.8-6.4l18.2,9.1L25.7,38.7z M32,30.9  l-17.9-8.9l2.4-1.4c0.5-0.3,0.6-0.9,0.3-1.4c-0.3-0.5-0.9-0.6-1.4-0.3l-3.6,2.1l-7.7-3.1L22.1,7.1l7.7,3.1l-11.1,6.7  c-0.5,0.3-0.6,0.9-0.3,1.4c0.3,0.5,0.9,0.6,1.4,0.3L32,11.1l17.9,8.9L32,30.9z"/>
  <path class="primary-color" d="M39.5,52.1l-4,2.4c-0.5,0.3-0.6,0.9-0.3,1.4c0.3,0.6,1.2,0.4,1.4,0.3l4-2.4c0.5-0.3,0.6-0.9,0.3-1.4  C40.6,52,40,51.8,39.5,52.1z"/>
  <path class="primary-color" d="M42.9,47c-0.3-0.5-0.9-0.6-1.4-0.3l-6,3.6c-0.5,0.3-0.6,0.9-0.3,1.4c0.3,0.7,1.2,0.4,1.4,0.3l6-3.6  C43,48.1,43.1,47.5,42.9,47z"/>
  <path class="primary-color" d="M22.6,55.2L13,49.4V37c0-0.6-0.4-1-1-1s-1,0.4-1,1v13c0,0.4,0.2,0.7,0.5,0.9l10,6c0.2,0.1,0.8,0.4,1.4-0.3  C23.2,56.1,23,55.5,22.6,55.2z"/>
</svg>
