<!--
Shipping by shashank singh from the Noun Project
https://thenounproject.com/term/shipping/2027289 
-->
<svg xmlns="http://www.w3.org/2000/svg" xmlns:xlink="http://www.w3.org/1999/xlink" version="1.1" x="0px" y="0px" viewBox="0 0 1024 1280" style="enable-background:new 0 0 1024 1024;" xml:space="preserve">
  <style type="text/css">
    .primary-color{fill:#09328B;}
  </style>
  <g>
    <g>
      <g>
        <path class="primary-color" d="M870.6,593.3c-12.4,31.1-24.9,62.1-37.3,93.2c-19.8,49.5-39.7,99-59.5,148.5     c-4.6,11.4-9.1,22.7-13.7,34.1c9.8-4,19.6-8,29.4-12c-5.3-2.8-10.3-6-15.3-9.4c-3-2.1,2.8,2.3,2.2,1.8c-1.4-1.2-3-2.3-4.5-3.4     c-2.6-2-5.3-3.8-8.1-5.5c-14.3-8.9-30.4-15.6-46.7-19.7c-25.2-6.3-51.7-6.5-76.9,0c-15,3.8-29.6,10.1-43,17.9     c-7.2,4.2-14,9.2-21.1,13.6c-3.4,2.1-6.9,4-10.4,5.9c-1.6,0.8-3.2,1.6-4.8,2.4c-0.8,0.4-1.6,0.7-2.4,1.1     c-0.4,0.2-3.7,1.6-1.5,0.7c2.2-0.9-0.4,0.2-0.7,0.3c-0.8,0.3-1.5,0.6-2.3,0.9c-1.5,0.6-3.1,1.1-4.6,1.6c-3.5,1.2-7,2.2-10.6,3.1     c-2.9,0.7-5.9,1.4-8.9,1.9c-0.8,0.1-5.4,1-2.4,0.4c2.7-0.5,0.4,0-0.2,0c-1.2,0.1-2.4,0.3-3.5,0.4c-5.7,0.5-11.4,0.6-17.1,0.4     c-2.8-0.1-5.6-0.3-8.4-0.6c-0.8-0.1-5.1-0.6-1.7-0.2c3.4,0.4-1.3-0.2-2.2-0.4c-9.5-1.6-18.9-4.3-27.9-7.8     c-0.9-0.4-1.8-0.8-2.8-1.1c1.8,0.5,4.2,1.8,1.3,0.5c-1.9-0.9-3.8-1.7-5.7-2.6c-2.9-1.4-5.8-3-8.6-4.6c-3.7-2.2-7.3-4.5-10.9-7     c-3.2-2.2,3.8,3,2.5,2c-1.8-1.4-3.5-2.8-5.3-4.1c-10.3-7.6-21.9-13.1-33.6-17.9c-49.2-20.1-105-12.5-149,16.7     c-6.6,4.4-13.1,8.8-20.1,12.6c9.8,4,19.6,8,29.4,12c-12.4-31-24.9-62-37.3-93.1c-19.8-49.4-39.6-98.9-59.4-148.3     c-4.5-11.3-9.1-22.7-13.6-34c-4.7,8.2-9.3,16.4-14,24.6c12.6-3.8,25.1-7.7,37.7-11.5c30.2-9.2,60.3-18.4,90.5-27.6     c36.5-11.1,72.9-22.2,109.4-33.4c31.4-9.6,62.8-19.2,94.2-28.7c15.3-4.7,31.1-8.6,46.1-14.1c0.2-0.1,0.4-0.1,0.7-0.2     c-3.5,0-7.1,0-10.6,0c12.5,3.8,25,7.6,37.5,11.5c30,9.2,60,18.4,90,27.5c36.3,11.1,72.6,22.2,108.9,33.3     c31.4,9.6,62.8,19.2,94.2,28.8c15.3,4.7,30.5,9.9,45.9,14c0.2,0.1,0.4,0.1,0.7,0.2c10,3.1,22.3-3.6,24.6-14     c2.5-10.8-3.3-21.3-14-24.6c-12.6-3.9-25.2-7.7-37.8-11.6c-30.2-9.2-60.4-18.5-90.6-27.7c-36.5-11.2-72.9-22.3-109.4-33.5     c-31.4-9.6-62.8-19.2-94.1-28.8c-14.9-4.5-29.7-10-44.8-13.7c-6.6-1.6-11.1-0.1-17,1.7c-7.9,2.4-15.8,4.8-23.7,7.2     c-28.6,8.7-57.3,17.5-85.9,26.2c-36.3,11.1-72.6,22.1-108.9,33.2c-32.7,10-65.4,19.9-98.1,29.9c-17.8,5.4-35.6,10.9-53.4,16.3     c-0.8,0.3-1.7,0.5-2.5,0.8c-9.5,2.9-18.1,14.3-14,24.6c12.4,31,24.9,62,37.3,93.1c19.8,49.4,39.6,98.9,59.4,148.3     c4.5,11.3,9.1,22.7,13.6,34c2.4,6,5.4,10.4,11.6,13c6,2.5,12.1,2.1,17.8-1c13.7-7.5,26-17.3,40.2-24.1c1.6-0.8,3.2-1.4,4.7-2.2     c2.1-1-0.6,0.3-0.9,0.4c0.8-0.3,1.6-0.6,2.3-0.9c3.3-1.3,6.6-2.4,10-3.5c3-0.9,6-1.7,9-2.4c1.7-0.4,3.4-0.8,5.2-1.1     c1.3-0.3,4-0.2,5.1-0.9c0,0-4,0.5-1.7,0.2c0.7-0.1,1.4-0.2,2.1-0.2c1.4-0.1,2.8-0.3,4.2-0.4c3-0.2,6-0.3,8.9-0.3     c5.5,0,10.9,0.4,16.3,0.9c3.6,0.4-4.4-0.7,0.2,0.1c1.2,0.2,2.4,0.4,3.6,0.6c2.5,0.5,5,1,7.5,1.6c4.5,1.1,8.9,2.4,13.3,3.9     c2.1,0.7,4.2,1.5,6.2,2.3c3,1.2,0.6,0.4-1.2-0.5c1,0.5,2,0.9,3,1.3c3.2,1.5,6.4,3,9.5,4.7c4.4,2.4,8.7,5,12.8,7.8     c0.5,0.4,1.1,0.8,1.6,1.2c2.8,2-2.4-1.9-2.8-2.2c0.2,0.2,0.5,0.4,0.7,0.6c3.8,2.9,7.6,5.8,11.6,8.3     c35.3,22.1,78.9,30.1,119.6,21.1c14.8-3.3,29.3-9,42.6-16.2c14.1-7.6,26.6-17.6,41.1-24.5c1.6-0.7,3.1-1.4,4.7-2.1     c-3.2,1.4,0.1,0,1.5-0.5c3.3-1.2,6.6-2.4,10-3.4c3-0.9,6-1.7,9-2.4c2.5-0.6,7.4-0.5,9.5-1.8c-0.3,0.2-4.8,0.5-1,0.1     c0.7-0.1,1.4-0.2,2.1-0.2c1.4-0.1,2.8-0.3,4.2-0.4c3-0.2,5.9-0.3,8.9-0.3c5.5,0,10.8,0.5,16.2,1c2.2,0.2-2.3-0.3-2.2-0.3     c0.5,0.2,1.3,0.2,1.8,0.3c1.2,0.2,2.4,0.4,3.6,0.6c2.7,0.5,5.4,1.1,8.1,1.7c4.5,1.1,8.9,2.4,13.2,3.9c1.9,0.7,3.8,1.4,5.7,2.1     c3,1.2,0.5,0.5-1.2-0.5c1.1,0.6,2.3,1,3.4,1.5c3.2,1.4,6.3,3,9.4,4.7c4.3,2.4,8.6,4.9,12.6,7.7c0.5,0.4,1,0.8,1.6,1.1     c2.7,1.9-2.9-2.2-2.9-2.3c2.2,1.6,4.2,3.3,6.4,4.9c4.7,3.4,9.8,6.4,15,9.1c12.4,6.6,24.5,0.2,29.4-12     c12.4-31.1,24.9-62.1,37.3-93.2c19.8-49.5,39.7-99,59.5-148.5c4.6-11.4,9.1-22.7,13.7-34.1c3.9-9.7-4.2-22.4-14-24.6     C883.6,576.7,874.8,582.9,870.6,593.3z"/>
      </g>
    </g>
    <g>
      <g>
        <path class="primary-color" d="M918.8,494.3c-13.5,27.5-26.9,54.9-40.4,82.4c-1.9,3.9-3.9,7.9-5.8,11.8c7.5-3.1,15.1-6.1,22.6-9.2     c-12.6-3.9-25.2-7.7-37.8-11.6c-30.2-9.2-60.4-18.5-90.6-27.7c-36.5-11.2-72.9-22.3-109.4-33.5c-31.4-9.6-62.8-19.2-94.1-28.8     c-14.9-4.5-29.7-10-44.8-13.7c-6.6-1.6-11.1-0.1-17,1.7c-7.9,2.4-15.8,4.8-23.7,7.2c-28.6,8.7-57.3,17.5-85.9,26.2     c-36.3,11.1-72.6,22.1-108.9,33.2c-32.7,10-65.4,19.9-98.1,29.9c-17.8,5.4-35.6,10.9-53.4,16.3c-0.8,0.3-1.7,0.5-2.5,0.8     c7.5,3.1,15.1,6.1,22.6,9.2c-13.5-27.5-27-54.9-40.4-82.4c-1.9-3.9-3.9-7.9-5.8-11.8c-4,9.8-8,19.6-12,29.4     c14.1-4.6,28.2-9.2,42.2-13.8c33.8-11.1,67.6-22.2,101.5-33.2c40.9-13.4,81.8-26.8,122.7-40.2c35.4-11.6,70.7-23.2,106.1-34.8     c17.1-5.6,34.7-10.4,51.5-16.9c0.2-0.1,0.5-0.2,0.7-0.2c-3.5,0-7.1,0-10.6,0c14.1,4.6,28.2,9.3,42.3,13.9     c33.6,11,67.1,22.1,100.7,33.1c40.9,13.4,81.8,26.9,122.7,40.3c35.1,11.5,70.2,23.1,105.3,34.6c17.2,5.6,34.3,11.9,51.6,17     c0.2,0.1,0.5,0.2,0.7,0.2c9.9,3.3,22.3-3.8,24.6-14c2.5-11-3.3-21.1-14-24.6c-14.1-4.6-28.2-9.3-42.3-13.9     c-33.9-11.1-67.7-22.3-101.6-33.4c-40.9-13.4-81.8-26.9-122.7-40.3c-35.2-11.6-70.5-23.2-105.7-34.7c-16.7-5.5-33.5-12-50.5-16.6     c-6.9-1.9-11.7,0-17.8,2c-8.9,2.9-17.7,5.8-26.6,8.7c-32.1,10.5-64.2,21-96.3,31.5c-40.7,13.3-81.4,26.7-122.2,40     c-36.7,12-73.4,24.1-110.2,36.1c-20.1,6.6-40.1,13.1-60.2,19.7c-0.9,0.3-1.9,0.6-2.8,0.9c-12.9,4.2-17.8,17.4-12,29.4     c13.5,27.5,27,54.9,40.4,82.4c1.9,3.9,3.9,7.9,5.8,11.8c3.8,7.7,14.6,11.6,22.6,9.2c12.6-3.8,25.1-7.7,37.7-11.5     c30.2-9.2,60.3-18.4,90.5-27.6c36.5-11.1,72.9-22.2,109.4-33.4c31.4-9.6,62.8-19.2,94.2-28.7c15.3-4.7,31.1-8.6,46.1-14.1     c0.2-0.1,0.4-0.1,0.7-0.2c-3.5,0-7.1,0-10.6,0c12.5,3.8,25,7.6,37.5,11.5c30,9.2,60,18.4,90,27.5c36.3,11.1,72.6,22.2,108.9,33.3     c31.4,9.6,62.8,19.2,94.2,28.8c15.2,4.7,30.5,10.1,45.9,14c0.2,0.1,0.4,0.1,0.7,0.2c7.9,2.4,18.8-1.5,22.6-9.2     c13.5-27.5,26.9-54.9,40.4-82.4c1.9-3.9,3.9-7.9,5.8-11.8c4.6-9.4,2.8-22.1-7.2-27.4C937.2,482.3,923.7,484.2,918.8,494.3z"/>
      </g>
    </g>
    <g>
      <g>
        <path class="primary-color" d="M777.9,176.7c3.5,33.1,7.1,66.2,10.6,99.4c5.6,52.4,11.2,104.7,16.8,157.1c1.3,12,2.6,24.1,3.9,36.1     c8.4-6.4,16.9-12.9,25.3-19.3c-35.9-11.8-71.9-23.6-107.8-35.4c-56.9-18.7-113.9-37.4-170.8-56.1c-12.5-4.1-24.9-8.8-37.5-12.3     c-6.2-1.7-10.5-0.3-15.9,1.5c-6.6,2.2-13.2,4.3-19.9,6.5c-54.5,17.8-109,35.7-163.4,53.5c-42.5,13.9-85,27.9-127.5,41.8     c-0.7,0.2-1.4,0.5-2.1,0.7c8.4,6.4,16.9,12.9,25.3,19.3c3.5-33.1,7.1-66.3,10.6-99.4c5.6-52.4,11.2-104.7,16.8-157.1     c1.3-12,2.6-24.1,3.9-36.1c-6.7,6.7-13.3,13.3-20,20c19.1,0,38.1,0,57.2,0c45.4,0,90.8,0,136.2,0c55.1,0,110.1,0,165.2,0     c47.6,0,95.2,0,142.8,0c23.1,0,46.2,0.5,69.3,0c0.3,0,0.7,0,1,0c10.5,0,20.5-9.2,20-20c-0.5-10.8-8.8-20-20-20     c-19.1,0-38.1,0-57.2,0c-45.4,0-90.8,0-136.2,0c-55.1,0-110.1,0-165.2,0c-47.6,0-95.2,0-142.8,0c-23.1,0-46.2-0.5-69.3,0     c-0.3,0-0.7,0-1,0c-11.7,0-18.8,9.2-20,20c-3.5,33.1-7.1,66.3-10.6,99.4c-5.6,52.4-11.2,104.7-16.8,157.1     c-1.3,12-2.6,24.1-3.9,36.1c-1.4,12.7,13.9,23,25.3,19.3c35.8-11.7,71.7-23.5,107.5-35.2c57.1-18.7,114.2-37.4,171.2-56.1     c13-4.3,26.1-8.5,39.1-12.8c-3.5,0-7.1,0-10.6,0c35.6,11.7,71.2,23.4,106.9,35.1c56.8,18.7,113.6,37.3,170.4,56     c13.1,4.3,26.1,8.6,39.2,12.9c11.4,3.8,26.7-6.6,25.3-19.3c-3.5-33.1-7.1-66.2-10.6-99.4c-5.6-52.4-11.2-104.7-16.8-157.1     c-1.3-12-2.6-24.1-3.9-36.1c-1.1-10.4-8.4-20.5-20-20C788,157.2,776.7,165.6,777.9,176.7z"/>
      </g>
    </g>
    <g>
      <g>
        <path class="primary-color" d="M557.5,156.7c-26.5,0-53,0-79.5,0c-3.8,0-7.7,0-11.5,0c6.7,6.7,13.3,13.3,20,20c0-39.7,0-79.4,0-119     c0-5.6,0-11.3,0-16.9c-6.7,6.7-13.3,13.3-20,20c26.5,0,53,0,79.5,0c3.8,0,7.7,0,11.5,0c-6.7-6.7-13.3-13.3-20-20     c0,39.7,0,79.4,0,119c0,5.6,0,11.3,0,16.9c0,10.5,9.2,20.5,20,20c10.8-0.5,20-8.8,20-20c0-39.7,0-79.4,0-119c0-5.6,0-11.3,0-16.9     c0-10.8-9.2-20-20-20c-26.5,0-53,0-79.5,0c-3.8,0-7.7,0-11.5,0c-10.8,0-20,9.2-20,20c0,39.7,0,79.4,0,119c0,5.6,0,11.3,0,16.9     c0,10.8,9.2,20,20,20c26.5,0,53,0,79.5,0c3.8,0,7.7,0,11.5,0c10.5,0,20.5-9.2,20-20C577.1,165.9,568.8,156.7,557.5,156.7z"/>
      </g>
    </g>
    <g>
      <g>
        <path class="primary-color" d="M919.3,846.4c-5,3.4-10.1,6.7-15.4,9.6c-2.4,1.3-4.8,2.6-7.2,3.7c-1.3,0.6-2.6,1.3-4,1.9     c-0.8,0.4-1.6,0.7-2.4,1.1c1.9-0.8,2.2-0.9,0.9-0.4c-9.7,3.5-19.3,6.3-29.5,8.2c-1.4,0.3-3.4-0.1,1-0.1c-0.9,0-1.9,0.2-2.9,0.3     c-2.3,0.2-4.7,0.4-7,0.5c-4.5,0.2-9,0.2-13.5,0c-1.9-0.1-3.9-0.2-5.8-0.4c-1.1-0.1-2.1-0.2-3.2-0.3c-1.8-0.2-2-1.1,1.6,0.2     c-3.5-1.3-8.1-1.4-11.8-2.3c-6.7-1.6-13.3-3.6-19.7-6.2c-0.8-0.3-1.5-0.6-2.3-0.9c-2.4-0.9,5,2.2,1.7,0.7     c-1.3-0.6-2.5-1.1-3.8-1.7c-3-1.4-6-2.9-8.9-4.5c-3.9-2.2-7.8-4.5-11.4-7.1c-0.8-0.6-1.6-1.2-2.4-1.7c10.2,7,4,3.4,3.2,2.4     c-1.6-1.9-5.2-4.1-7.6-5.7c-20.4-14.1-45-22.9-69.5-26.2c-19.7-2.7-39.6-1.7-58.9,3.3c-11.2,2.9-22.2,7.2-32.6,12.3     c-11.1,5.4-21,12.7-31.5,19.1c-4.7,2.9-9.5,5.5-14.4,7.9c-1.3,0.6-2.6,1.2-3.9,1.8c-3.5,1.6-0.6,0.3,0.1,0     c-2.8,1.1-5.6,2.2-8.5,3.2c-4.7,1.6-9.5,2.9-14.3,4c-2.2,0.5-4.4,0.9-6.6,1.3c-1.3,0.2-4.6,1.2,0.3,0c-1.4,0.3-2.9,0.3-4.3,0.5     c-8.5,0.8-17.1,0.8-25.5-0.1c-0.8-0.1-1.7-0.2-2.5-0.3c-4.3-0.4,3.8,0.7,1,0.1c-1.8-0.4-3.6-0.6-5.4-0.9     c-3.8-0.7-7.6-1.6-11.3-2.6c-3.3-0.9-6.6-2-9.8-3.1c-1.4-0.5-2.9-1-4.3-1.6c-0.6-0.2-1.2-0.5-1.8-0.7c-3.5-1.3,4.3,1.9,1.2,0.5     c-4.9-2.2-9.8-4.6-14.5-7.2c-3.2-1.8-6.3-3.8-9.4-5.9c-0.8-0.6-1.6-1.2-2.4-1.7c-2.7-1.9,4.4,3.4,2.9,2.2     c-14.7-11.7-31.7-20.1-49.6-25.9c-37.7-12.3-77.5-8.9-113.6,6.9c-11.1,4.9-21.1,11.3-31.2,18c-4.5,3-9,5.7-13.8,8.3     c-2.4,1.3-4.9,2.6-7.4,3.8c-1.4,0.6-2.7,1.3-4.1,1.9c3.2-1.4-0.5,0.2-1.7,0.6c-4.7,1.8-9.4,3.3-14.3,4.6     c-2.6,0.7-5.1,1.3-7.7,1.8c-1.5,0.3-6.5,0.3-7.6,1.3c0.8-0.1,1.6-0.2,2.3-0.3c-0.7,0.1-1.5,0.2-2.2,0.3c-1.2,0.1-2.4,0.2-3.7,0.3     c-1.9,0.1-3.8,0.3-5.8,0.3c-4.6,0.2-9.2,0.1-13.8-0.3c-2.2-0.2-4.4-0.4-6.6-0.6c-3.6-0.4,1.2,0,1.5,0.2c-0.6-0.4-2.3-0.4-3.1-0.5     c-4-0.7-8-1.6-11.9-2.6c-3.5-0.9-6.9-2-10.3-3.1c-1.4-0.5-2.7-0.9-4-1.4c-0.8-0.3-1.6-0.6-2.4-0.9c-2-0.8-3.9-2.8,0.6,0.3     c-4.3-3-10.1-4.7-14.7-7.3c-3.2-1.8-6.4-3.8-9.4-5.9c-2.8-1.9-5.4-4.2,0.5,0.6c-8.1-6.5-20.4-8.6-28.3,0     c-6.7,7.3-8.7,21.3,0,28.3c15.9,12.8,35.1,21.8,54.6,27.3c41.5,11.8,85.4,5.4,122.8-15.8c10.3-5.8,19.6-13.1,30-18.7     c2.6-1.4,5.3-2.8,8-4.1c1-0.5,2.1-1,3.2-1.5c5-2.3-2.4,0.8,0.7-0.3c5.3-1.9,10.6-3.9,16.1-5.4c4.4-1.2,8.8-2.1,13.3-2.8     c3.7-0.7-0.5,0-1,0.1c1.3-0.3,2.9-0.3,4.3-0.5c2.3-0.2,4.7-0.4,7-0.5c4.3-0.2,8.5-0.1,12.8,0.1c1.9,0.1,3.9,0.3,5.8,0.4     c1,0.1,2.1,0.3,3.1,0.3c2.1,0.2-5-0.8-0.4,0c7.4,1.3,14.7,2.9,21.9,5.3c3,1,5.9,2,8.8,3.2c4.9,1.9-4-1.9,0.6,0.2     c1.5,0.7,3,1.4,4.5,2.1c7.1,3.4,13.9,7.4,20.3,11.9c4,2.8-4.4-3.5-1.9-1.5c2.8,2.2,5.5,4.3,8.4,6.3c9.2,6.2,19.1,10.9,29.3,15.1     c33.2,13.7,71.2,15.8,105.6,4.9c11.4-3.6,22.6-8.5,33-14.3c11.1-6.2,21.1-14,32.3-20c2.1-1.1,4.2-2.2,6.4-3.2     c1.6-0.7,3.1-1.5,4.7-2.1c-0.7,0.3-3.6,1.4-0.1,0.1c5-1.9,10.1-3.7,15.3-5c4.6-1.2,9.3-2.1,14-3c3.1-0.6-5.1,0.5-0.3,0     c0.9-0.1,1.9-0.2,2.8-0.3c2.6-0.2,5.1-0.4,7.7-0.5c4.2-0.2,8.5-0.1,12.7,0.2c1.9,0.1,3.9,0.3,5.8,0.5c1,0.1,2.1,0.4,3.1,0.4     c-5.1,0.1-2.3-0.3-0.4,0c7.4,1.2,14.7,3,21.8,5.4c3.1,1,6.1,2.2,9.2,3.4c1.3,0.5,3.2,1.6-2.1-0.9c0.7,0.3,1.4,0.6,2.2,0.9     c1.5,0.7,3,1.4,4.5,2.1c4.3,2.1,8.4,4.3,12.5,6.8c2.6,1.6,5.1,3.3,7.6,5.1c3.3,2.3-3.4-2.6-2.6-2c1.8,1.4,3.6,2.8,5.4,4.2     c12.3,9,26.6,15.7,41,20.7c37.5,13.2,78.1,10.8,114.4-4.8c10.7-4.6,20.9-10.3,30.5-16.9c8.6-5.9,13.3-17.8,7.2-27.4     C941.2,845,928.6,840,919.3,846.4L919.3,846.4z"/>
      </g>
    </g>
    <g>
      <g>
        <path class="primary-color" d="M312.7,275.6c0,0.3,0,0.6,0,0.9c0.2-1.8,0.5-3.5,0.7-5.3c-0.1,0.9-0.4,1.7-0.7,2.5c0.7-1.6,1.3-3.2,2-4.8     c-1.4,2.7,3.1-3.1,1.4-1.6c-1.4,1.3,4.5-2.9,1.6-1.4c1.6-0.7,3.2-1.3,4.8-2c-0.9,0.3-1.6,0.5-2.5,0.7c1.8-0.2,3.5-0.5,5.3-0.7     c-0.6,0.1-1.2,0.1-1.8,0c1.8,0.2,3.5,0.5,5.3,0.7c-0.9-0.1-1.7-0.4-2.5-0.7c1.6,0.7,3.2,1.3,4.8,2c-2.7-1.4,3.1,3.1,1.6,1.4     c-1.3-1.4,2.9,4.5,1.4,1.6c0.7,1.6,1.3,3.2,2,4.8c-0.3-0.9-0.5-1.6-0.7-2.5c0.2,1.8,0.5,3.5,0.7,5.3c-0.1-0.6-0.1-1.2,0-1.8     c-0.2,1.8-0.5,3.5-0.7,5.3c0.1-0.9,0.4-1.7,0.7-2.5c-0.7,1.6-1.3,3.2-2,4.8c1.4-2.7-3.1,3.1-1.4,1.6c1.4-1.3-4.5,2.9-1.6,1.4     c-1.6,0.7-3.2,1.3-4.8,2c0.9-0.3,1.6-0.5,2.5-0.7c-1.8,0.2-3.5,0.5-5.3,0.7c0.6-0.1,1.2-0.1,1.8,0c-1.8-0.2-3.5-0.5-5.3-0.7     c0.9,0.1,1.7,0.4,2.5,0.7c-1.6-0.7-3.2-1.3-4.8-2c2.7,1.4-3.1-3.1-1.6-1.4c1.3,1.4-2.9-4.5-1.4-1.6c-0.7-1.6-1.3-3.2-2-4.8     c0.3,0.9,0.5,1.6,0.7,2.5c-0.2-1.8-0.5-3.5-0.7-5.3C312.7,275,312.7,275.3,312.7,275.6c0.6,10.4,8.8,20.5,20,20     c10.4-0.5,20.6-8.8,20-20c-0.4-7.5-2.9-14.6-8.3-20c-5.2-5.2-12.6-8.3-20-8.3c-15.7,0-28,13-28.4,28.4c-0.4,15.3,13,28,27.9,28.3     c7.3,0.2,15-2.8,20.2-8c5.6-5.6,8.2-12.5,8.6-20.3c0.6-10.5-9.6-20.5-20-20C321.4,256.1,313.3,264.4,312.7,275.6z"/>
      </g>
    </g>
    <g>
      <g>
        <path class="primary-color" d="M436.6,275.6c0,0.3,0,0.6,0,0.9c0.2-1.8,0.5-3.5,0.7-5.3c-0.1,0.9-0.4,1.7-0.7,2.5c0.7-1.6,1.3-3.2,2-4.8     c-1.4,2.7,3.1-3.1,1.4-1.6c-1.4,1.3,4.5-2.9,1.6-1.4c1.6-0.7,3.2-1.3,4.8-2c-0.9,0.3-1.6,0.5-2.5,0.7c1.8-0.2,3.5-0.5,5.3-0.7     c-0.6,0.1-1.2,0.1-1.8,0c1.8,0.2,3.5,0.5,5.3,0.7c-0.9-0.1-1.7-0.4-2.5-0.7c1.6,0.7,3.2,1.3,4.8,2c-2.7-1.4,3.1,3.1,1.6,1.4     c-1.3-1.4,2.9,4.5,1.4,1.6c0.7,1.6,1.3,3.2,2,4.8c-0.3-0.9-0.5-1.6-0.7-2.5c0.2,1.8,0.5,3.5,0.7,5.3c-0.1-0.6-0.1-1.2,0-1.8     c-0.2,1.8-0.5,3.5-0.7,5.3c0.1-0.9,0.4-1.7,0.7-2.5c-0.7,1.6-1.3,3.2-2,4.8c1.4-2.7-3.1,3.1-1.4,1.6c1.4-1.3-4.5,2.9-1.6,1.4     c-1.6,0.7-3.2,1.3-4.8,2c0.9-0.3,1.6-0.5,2.5-0.7c-1.8,0.2-3.5,0.5-5.3,0.7c0.6-0.1,1.2-0.1,1.8,0c-1.8-0.2-3.5-0.5-5.3-0.7     c0.9,0.1,1.7,0.4,2.5,0.7c-1.6-0.7-3.2-1.3-4.8-2c2.7,1.4-3.1-3.1-1.6-1.4c1.3,1.4-2.9-4.5-1.4-1.6c-0.7-1.6-1.3-3.2-2-4.8     c0.3,0.9,0.5,1.6,0.7,2.5c-0.2-1.8-0.5-3.5-0.7-5.3C436.5,275,436.6,275.3,436.6,275.6c0.6,10.4,8.8,20.5,20,20     c10.4-0.5,20.6-8.8,20-20c-0.4-7.5-2.9-14.6-8.3-20c-5.2-5.2-12.6-8.3-20-8.3c-15.7,0-28,13-28.4,28.4c-0.4,15.3,13,28,27.9,28.3     c7.3,0.2,15-2.8,20.2-8c5.6-5.6,8.2-12.5,8.6-20.3c0.6-10.5-9.6-20.5-20-20C445.3,256.1,437.2,264.4,436.6,275.6z"/>
      </g>
    </g>
    <g>
      <g>
        <path class="primary-color" d="M560.4,275.6c0,0.3,0,0.6,0,0.9c0.2-1.8,0.5-3.5,0.7-5.3c-0.1,0.9-0.4,1.7-0.7,2.5c0.7-1.6,1.3-3.2,2-4.8     c-1.4,2.7,3.1-3.1,1.4-1.6c-1.4,1.3,4.5-2.9,1.6-1.4c1.6-0.7,3.2-1.3,4.8-2c-0.9,0.3-1.6,0.5-2.5,0.7c1.8-0.2,3.5-0.5,5.3-0.7     c-0.6,0.1-1.2,0.1-1.8,0c1.8,0.2,3.5,0.5,5.3,0.7c-0.9-0.1-1.7-0.4-2.5-0.7c1.6,0.7,3.2,1.3,4.8,2c-2.7-1.4,3.1,3.1,1.6,1.4     c-1.3-1.4,2.9,4.5,1.4,1.6c0.7,1.6,1.3,3.2,2,4.8c-0.3-0.9-0.5-1.6-0.7-2.5c0.2,1.8,0.5,3.5,0.7,5.3c-0.1-0.6-0.1-1.2,0-1.8     c-0.2,1.8-0.5,3.5-0.7,5.3c0.1-0.9,0.4-1.7,0.7-2.5c-0.7,1.6-1.3,3.2-2,4.8c1.4-2.7-3.1,3.1-1.4,1.6c1.4-1.3-4.5,2.9-1.6,1.4     c-1.6,0.7-3.2,1.3-4.8,2c0.9-0.3,1.6-0.5,2.5-0.7c-1.8,0.2-3.5,0.5-5.3,0.7c0.6-0.1,1.2-0.1,1.8,0c-1.8-0.2-3.5-0.5-5.3-0.7     c0.9,0.1,1.7,0.4,2.5,0.7c-1.6-0.7-3.2-1.3-4.8-2c2.7,1.4-3.1-3.1-1.6-1.4c1.3,1.4-2.9-4.5-1.4-1.6c-0.7-1.6-1.3-3.2-2-4.8     c0.3,0.9,0.5,1.6,0.7,2.5c-0.2-1.8-0.5-3.5-0.7-5.3C560.4,275,560.4,275.3,560.4,275.6c0.6,10.4,8.8,20.5,20,20     c10.4-0.5,20.6-8.8,20-20c-0.4-7.5-2.9-14.6-8.3-20c-5.2-5.2-12.6-8.3-20-8.3c-15.7,0-28,13-28.4,28.4c-0.4,15.3,13,28,27.9,28.3     c7.3,0.2,15-2.8,20.2-8c5.6-5.6,8.2-12.5,8.6-20.3c0.6-10.5-9.6-20.5-20-20C569.1,256.1,561,264.4,560.4,275.6z"/>
      </g>
    </g>
    <g>
      <g>
        <path class="primary-color" d="M684.3,275.6c0,0.3,0,0.6,0,0.9c0.2-1.8,0.5-3.5,0.7-5.3c-0.1,0.9-0.4,1.7-0.7,2.5c0.7-1.6,1.3-3.2,2-4.8     c-1.4,2.7,3.1-3.1,1.4-1.6c-1.4,1.3,4.5-2.9,1.6-1.4c1.6-0.7,3.2-1.3,4.8-2c-0.9,0.3-1.6,0.5-2.5,0.7c1.8-0.2,3.5-0.5,5.3-0.7     c-0.6,0.1-1.2,0.1-1.8,0c1.8,0.2,3.5,0.5,5.3,0.7c-0.9-0.1-1.7-0.4-2.5-0.7c1.6,0.7,3.2,1.3,4.8,2c-2.7-1.4,3.1,3.1,1.6,1.4     c-1.3-1.4,2.9,4.5,1.4,1.6c0.7,1.6,1.3,3.2,2,4.8c-0.3-0.9-0.5-1.6-0.7-2.5c0.2,1.8,0.5,3.5,0.7,5.3c-0.1-0.6-0.1-1.2,0-1.8     c-0.2,1.8-0.5,3.5-0.7,5.3c0.1-0.9,0.4-1.7,0.7-2.5c-0.7,1.6-1.3,3.2-2,4.8c1.4-2.7-3.1,3.1-1.4,1.6c1.4-1.3-4.5,2.9-1.6,1.4     c-1.6,0.7-3.2,1.3-4.8,2c0.9-0.3,1.6-0.5,2.5-0.7c-1.8,0.2-3.5,0.5-5.3,0.7c0.6-0.1,1.2-0.1,1.8,0c-1.8-0.2-3.5-0.5-5.3-0.7     c0.9,0.1,1.7,0.4,2.5,0.7c-1.6-0.7-3.2-1.3-4.8-2c2.7,1.4-3.1-3.1-1.6-1.4c1.3,1.4-2.9-4.5-1.4-1.6c-0.7-1.6-1.3-3.2-2-4.8     c0.3,0.9,0.5,1.6,0.7,2.5c-0.2-1.8-0.5-3.5-0.7-5.3C684.3,275,684.3,275.3,684.3,275.6c0.6,10.4,8.8,20.5,20,20     c10.4-0.5,20.6-8.8,20-20c-0.4-7.5-2.9-14.6-8.3-20c-5.2-5.2-12.6-8.3-20-8.3c-15.7,0-28,13-28.3,28.4c-0.4,15.3,13,28,27.9,28.3     c7.3,0.2,15-2.8,20.2-8c5.6-5.6,8.2-12.5,8.6-20.3c0.6-10.5-9.6-20.5-20-20C693,256.1,684.9,264.4,684.3,275.6z"/>
      </g>
    </g>
    <g>
      <g>
        <path class="primary-color" d="M789.5,949c-5.3-2.8-10.3-6-15.3-9.4c-3-2.1,2.9,2.3,2.2,1.8c-1.4-1.2-3-2.3-4.5-3.4     c-2.6-2-5.3-3.8-8.1-5.5c-14.3-8.9-30.4-15.6-46.7-19.7c-25.2-6.3-51.7-6.5-76.9,0c-15,3.8-29.6,10.1-43,17.9     c-7.2,4.2-14,9.2-21.1,13.6c-3.4,2.1-6.9,4-10.4,5.9c-1.6,0.8-3.2,1.6-4.8,2.4c-0.8,0.4-1.6,0.7-2.4,1.1     c-0.4,0.2-3.7,1.6-1.5,0.7c2.2-0.9-0.4,0.2-0.7,0.3c-0.8,0.3-1.5,0.6-2.3,0.9c-1.5,0.6-3.1,1.1-4.6,1.6c-3.5,1.2-7,2.2-10.6,3.1     c-2.9,0.7-5.9,1.4-8.9,1.9c-0.8,0.1-5.4,1-2.4,0.4c2.7-0.5,0.4,0-0.2,0c-1.2,0.1-2.4,0.3-3.5,0.4c-5.7,0.5-11.4,0.6-17.1,0.4     c-2.8-0.1-5.6-0.3-8.4-0.6c-0.8-0.1-5.1-0.6-1.7-0.2c3.4,0.4-1.3-0.2-2.2-0.4c-9.5-1.6-18.9-4.3-27.9-7.8     c-0.9-0.4-1.8-0.8-2.8-1.1c1.8,0.5,4.2,1.8,1.3,0.5c-1.9-0.9-3.8-1.7-5.7-2.6c-2.9-1.4-5.8-3-8.6-4.6c-3.7-2.2-7.3-4.5-10.9-7     c-3.2-2.2,3.8,3,2.5,2c-1.8-1.4-3.5-2.8-5.3-4.1c-10.3-7.6-21.9-13.1-33.6-17.9c-49.2-20.1-105-12.5-149,16.7     c-6.6,4.4-13.1,8.8-20.1,12.6c-9.2,5-12.9,18.5-7.2,27.4c6,9.3,17.5,12.5,27.4,7.2c13.7-7.5,26-17.3,40.2-24.1     c1.6-0.8,3.2-1.4,4.7-2.2c2.1-1-0.6,0.3-0.9,0.4c0.8-0.3,1.6-0.6,2.3-0.9c3.3-1.3,6.6-2.4,10-3.5c3-0.9,6-1.7,9-2.4     c1.7-0.4,3.4-0.8,5.2-1.1c1.3-0.3,4-0.2,5.1-0.9c0,0-4,0.5-1.7,0.2c0.7-0.1,1.4-0.2,2.1-0.2c1.4-0.1,2.8-0.3,4.2-0.4     c3-0.2,6-0.3,8.9-0.3c5.5,0,10.9,0.4,16.3,0.9c3.6,0.4-4.4-0.7,0.2,0.1c1.2,0.2,2.4,0.4,3.6,0.6c2.5,0.5,5,1,7.5,1.6     c4.5,1.1,8.9,2.4,13.3,3.9c2.1,0.7,4.2,1.5,6.2,2.3c3,1.2,0.6,0.4-1.2-0.5c1,0.5,2,0.9,3,1.3c3.2,1.5,6.4,3,9.5,4.7     c4.4,2.4,8.7,5,12.8,7.8c0.5,0.4,1.1,0.8,1.6,1.2c2.8,2-2.4-1.9-2.8-2.2c0.2,0.2,0.5,0.4,0.7,0.6c3.8,2.9,7.6,5.8,11.6,8.3     c35.3,22.1,78.9,30.1,119.6,21.1c14.8-3.3,29.3-9,42.6-16.2c14.1-7.6,26.6-17.6,41.1-24.5c1.6-0.7,3.1-1.4,4.7-2.1     c-3.2,1.4,0.1,0,1.5-0.5c3.3-1.2,6.6-2.4,10-3.4c3-0.9,6-1.7,9-2.4c2.5-0.6,7.4-0.5,9.5-1.8c-0.3,0.2-4.8,0.5-1,0.1     c0.7-0.1,1.4-0.2,2.1-0.2c1.4-0.1,2.8-0.3,4.2-0.4c3-0.2,5.9-0.3,8.9-0.3c5.5,0,10.8,0.5,16.2,1c2.2,0.2-2.3-0.3-2.2-0.3     c0.5,0.2,1.3,0.2,1.8,0.3c1.2,0.2,2.4,0.4,3.6,0.6c2.7,0.5,5.4,1.1,8.1,1.7c4.5,1.1,8.9,2.4,13.2,3.9c1.9,0.7,3.8,1.4,5.7,2.1     c3,1.2,0.5,0.5-1.2-0.5c1,0.6,2.3,1,3.4,1.5c3.2,1.4,6.3,3,9.4,4.7c4.3,2.4,8.6,4.9,12.6,7.7c0.5,0.4,1,0.8,1.6,1.1     c2.7,1.9-2.9-2.2-2.9-2.3c2.2,1.6,4.2,3.3,6.4,4.9c4.7,3.4,9.8,6.4,15,9.1c9.2,4.9,22.2,2.6,27.4-7.2     C801.6,967,799.4,954.2,789.5,949L789.5,949z"/>
      </g>
    </g>
    <g>
      <g>
        <path class="primary-color" d="M492.7,483.2c0,13.2,0,26.5,0,39.7c0,31.8,0,63.6,0,95.4c0,38.5,0,76.9,0,115.4c0,33.1,0,66.2,0,99.3     c0,16.2-0.4,32.4,0,48.6c0,0.2,0,0.5,0,0.7c0,10.5,9.2,20.5,20,20c10.8-0.5,20-8.8,20-20c0-13.2,0-26.5,0-39.7     c0-31.8,0-63.6,0-95.4c0-38.5,0-76.9,0-115.4c0-33.1,0-66.2,0-99.3c0-16.2,0.4-32.4,0-48.6c0-0.2,0-0.5,0-0.7     c0-10.5-9.2-20.5-20-20C501.8,463.7,492.7,472,492.7,483.2L492.7,483.2z"/>
      </g>
    </g>
  </g>
</svg>