<!--
net by NeMaria from the Noun Project
https://thenounproject.com/term/net/2428552/
-->
<svg xmlns="http://www.w3.org/2000/svg" xmlns:xlink="http://www.w3.org/1999/xlink" version="1.1" x="0px" y="0px" viewBox="8.93 8.12 82.17 83.95" style="enable-background:new 0 0 100 100;" xml:space="preserve">
  <style type="text/css">
    .primary-color{fill:#09328B;}
  </style>
  <path class="primary-color" d="M88.5,41.8c-1.3,0-2.4,1.1-2.5,2.4L57.7,46c-0.1-0.5-0.2-1-0.3-1.5L82,37.1c0,0,0,0,0,0c0.4,0.3,0.9,0.3,1.3,0  c0.3-0.4,0.3-0.9,0-1.3c-0.4-0.3-0.9-0.3-1.3,0c-0.2,0.2-0.3,0.4-0.2,0.6l-24.6,7.4c-0.3-0.7-0.6-1.3-1-1.9L67,34.4  c0.4,0.5,0.9,1,1.6,1.1c1.4,0.3,2.9-0.6,3.2-2c0.3-1.4-0.6-2.9-2-3.2c-1.4-0.3-2.9,0.6-3.2,2c-0.1,0.5-0.1,1,0.1,1.5l-10.9,7.7  c-0.3-0.4-0.6-0.7-1-1l18.5-20.3c0.7,0.6,1.7,1,2.7,1c2.3,0,4.2-1.9,4.2-4.2s-1.9-4.2-4.2-4.2s-4.2,1.9-4.2,4.2c0,1.1,0.4,2,1,2.8  L54.3,40.1c-0.4-0.3-0.9-0.7-1.4-0.9l13.5-27.3c0.5,0.1,1,0.1,1.4-0.1c1-0.5,1.3-1.7,0.9-2.6c-0.5-1-1.7-1.3-2.6-0.9  c-1,0.5-1.3,1.7-0.9,2.6c0.1,0.3,0.4,0.5,0.6,0.7L52.3,38.8c-0.5-0.2-1-0.4-1.5-0.5l2.6-13.1c0,0,0,0,0,0c1.1,0,2-0.9,2-2  c0-1.1-0.9-2-2-2s-2,0.9-2,2c0,0.9,0.5,1.6,1.3,1.9l-2.6,13c-0.5-0.1-0.9-0.1-1.4-0.1c-0.6,0-1.2,0.1-1.8,0.2L41.7,17  c1.8-0.6,3-2.2,3-4.2c0-2.4-2-4.4-4.4-4.4c-2.4,0-4.4,2-4.4,4.4c0,2.4,2,4.4,4.4,4.4c0.2,0,0.5,0,0.7-0.1l5.3,21.3  c-0.8,0.2-1.5,0.5-2.1,0.9L33.9,23.9c0.3-0.3,0.5-0.6,0.6-1c0.2-1.1-0.4-2.1-1.5-2.4c-1.1-0.2-2.1,0.4-2.4,1.5  c-0.2,1.1,0.4,2.1,1.5,2.4c0.4,0.1,0.9,0,1.2-0.1l10.2,15.5c-0.7,0.5-1.3,1-1.8,1.6L18.8,24.5c0.4-0.6,0.6-1.2,0.6-2  c0-2-1.6-3.5-3.5-3.5s-3.5,1.6-3.5,3.5s1.6,3.5,3.5,3.5c1,0,1.9-0.4,2.5-1.1l22.9,16.9c-0.5,0.7-0.9,1.4-1.2,2.2l-23.3-6.7  c0-0.3-0.2-0.6-0.5-0.8c-0.5-0.3-1.2-0.2-1.5,0.3c-0.3,0.5-0.2,1.2,0.3,1.5c0.5,0.3,1.2,0.2,1.5-0.3c0,0,0,0,0,0L40,44.7  c-0.2,0.7-0.3,1.5-0.3,2.3l-20.9,1.2c-0.3-1.8-2-3.3-3.9-3.3c-2.2,0-4,1.8-4,4c0,2.2,1.8,4,4,4c2.2,0,4-1.8,4-4c0,0,0,0,0-0.1  l20.9-1.1c0.1,0.9,0.2,1.7,0.5,2.5L12.6,62.3c-0.3-0.4-0.7-0.7-1.2-0.8C10.3,61.3,9.3,61.9,9,63c-0.2,1.1,0.4,2.1,1.5,2.4  c1.1,0.2,2.1-0.4,2.4-1.5c0.1-0.3,0.1-0.6,0-0.9l27.6-12.1c0.3,0.6,0.6,1.2,1.1,1.8L23.9,68.1c-0.5-0.4-1.2-0.7-1.9-0.7  c-1.6,0-3,1.3-3,3c0,1.6,1.3,3,3,3c1.6,0,3-1.3,3-3c0-0.7-0.2-1.3-0.6-1.8l17.6-15.4c0.5,0.5,1,1,1.6,1.4L32.9,72  c-0.1,0-0.3-0.1-0.4-0.1c-0.8,0-1.4,0.6-1.4,1.3c0,0.7,0.6,1.3,1.4,1.4c0.8,0,1.4-0.6,1.4-1.3c0-0.4-0.2-0.7-0.4-0.9L44.1,55  c0.3,0.2,0.6,0.3,0.9,0.5L32,88.1c0,0,0,0,0,0c-1.1-0.2-2.1,0.4-2.4,1.5c-0.2,1.1,0.4,2.1,1.5,2.4c1.1,0.2,2.1-0.4,2.4-1.5  c0.2-0.8-0.2-1.6-0.8-2.1l13-32.7c0.4,0.2,0.8,0.3,1.2,0.4l-2.5,12.8c-0.8,0-1.6,0.6-1.8,1.5c-0.2,1.1,0.4,2.1,1.5,2.4  c1.1,0.2,2.1-0.4,2.4-1.5c0.2-1-0.4-2-1.4-2.3l2.5-12.7c0.4,0.1,0.8,0.1,1.3,0.1c0.2,0,0.4,0,0.6,0l2.9,26.9c-0.1,0-0.2,0.1-0.4,0.1  c-0.8,0.4-1.1,1.4-0.7,2.2c0.4,0.8,1.4,1.1,2.2,0.7c0.8-0.4,1.1-1.4,0.7-2.2c-0.2-0.5-0.7-0.8-1.1-0.8l-2.9-27  c0.8-0.1,1.5-0.3,2.2-0.6l10.9,24c-1.4,0.7-2.3,2.2-2.3,3.9c0,2.4,2,4.4,4.4,4.4c2.4,0,4.4-2,4.4-4.4s-2-4.4-4.4-4.4  c-0.5,0-1,0.1-1.4,0.2l-10.9-24c0.3-0.2,0.6-0.3,0.9-0.5l9.3,13.5c-0.5,0.4-0.8,1-0.8,1.7c0,1.2,1,2.3,2.3,2.3c1.2,0,2.3-1,2.3-2.3  c0-1.2-1-2.3-2.3-2.3c-0.3,0-0.6,0.1-0.9,0.2l-9.4-13.5c0.6-0.5,1.1-1,1.6-1.6l19.7,14.4c-0.1,0.4,0,0.8,0.4,1  c0.4,0.3,1,0.1,1.2-0.3c0.3-0.4,0.1-1-0.3-1.2c-0.3-0.2-0.6-0.2-0.9,0L56.2,52.2c0.2-0.3,0.4-0.6,0.6-1l26.9,13.3  c-0.1,0.5-0.1,1,0.1,1.4c0.5,1,1.7,1.3,2.6,0.9c1-0.5,1.3-1.7,0.9-2.6c-0.5-1-1.7-1.3-2.6-0.9c-0.3,0.1-0.5,0.4-0.7,0.6L57.1,50.7  c0.2-0.5,0.4-1,0.5-1.6l17.1,3.4c0,0.9,0.6,1.7,1.5,1.9c1.1,0.2,2.1-0.4,2.4-1.5c0.2-1.1-0.4-2.1-1.5-2.4c-1-0.2-2,0.4-2.3,1.3  l-17.1-3.4c0.1-0.4,0.1-0.8,0.1-1.2c0-0.2,0-0.3,0-0.5l28.4-1.8c0.3,1.1,1.2,1.9,2.4,1.9c1.4,0,2.5-1.1,2.5-2.5S89.9,41.8,88.5,41.8  z M78.3,16.9c0,0.5-0.1,0.9-0.4,1.3c-0.4,0.6-1.1,0.9-1.8,0.9c-1.2,0-2.2-1-2.2-2.2c0-1.1,0.8-2,1.9-2.2c0.1,0,0.2,0,0.3,0  C77.3,14.7,78.3,15.7,78.3,16.9z M40.3,15.7c-1.6,0-2.9-1.3-2.9-2.9c0-0.5,0.1-1,0.4-1.5c0.5-0.9,1.5-1.5,2.6-1.5  c0.5,0,0.9,0.1,1.3,0.3c1,0.5,1.6,1.5,1.6,2.6c0,1.3-0.8,2.3-1.9,2.8c-0.2,0.1-0.4,0.1-0.6,0.2C40.5,15.7,40.4,15.7,40.3,15.7z   M14.8,50.3c-0.8,0-1.4-0.6-1.4-1.4c0-0.8,0.6-1.4,1.4-1.4c0.8,0,1.4,0.6,1.4,1.4C16.2,49.7,15.6,50.3,14.8,50.3z M22,71.7  c-0.7,0-1.3-0.6-1.3-1.3c0-0.7,0.6-1.3,1.3-1.3s1.3,0.6,1.3,1.3C23.3,71.1,22.7,71.7,22,71.7z M65.2,81.6c1,0,1.8,0.8,1.8,1.8  s-0.8,1.8-1.8,1.8s-1.8-0.8-1.8-1.8S64.2,81.6,65.2,81.6z M55,47.2c0,3.5-2.8,6.3-6.3,6.3c-3.5,0-6.3-2.8-6.3-6.3  c0-3.5,2.8-6.3,6.3-6.3C52.2,40.9,55,43.7,55,47.2z M88.5,45.3c-0.4,0-0.7-0.2-0.8-0.5c-0.1-0.1-0.1-0.3-0.1-0.5c0-0.1,0-0.1,0-0.2  c0.1-0.5,0.5-0.8,1-0.8c0.5,0,1,0.4,1,1S89.1,45.3,88.5,45.3z"/>
</svg>
  