<svg width="125" height="125" viewBox="10 10 105 105" fill="none" xmlns="http://www.w3.org/2000/svg">
<path opacity="0.4" d="M62.5 109.375C88.3884 109.375 109.375 88.3884 109.375 62.5C109.375 36.6117 88.3884 15.625 62.5 15.625C36.6117 15.625 15.625 36.6117 15.625 62.5C15.625 88.3884 36.6117 109.375 62.5 109.375Z" stroke="black" stroke-width="10"/>
<path d="M54.474 51.7767C54.474 48.6824 56.8542 46.7442 60.0844 46.3702V57.2854C59.7443 57.2172 59.4386 57.1151 59.1323 57.013C56.0381 55.9932 54.474 54.225 54.474 51.7767ZM71.4756 72.9948C71.4756 76.3271 68.9256 78.5375 65.3209 78.8433V67.112C65.5589 67.1802 65.7969 67.2479 66.0011 67.2823C69.8094 68.3365 71.4756 70.2063 71.4756 72.9948ZM65.3891 90.5063L65.3553 86.188C74.6719 85.3037 80.5886 80.1693 80.5886 72.0766C80.5886 63.8479 75.0459 60.3797 68.2115 58.9172L65.3209 58.3052V46.4382C68.9256 47.0163 70.9313 49.7365 71.0334 52.4568H79.7386C79.6021 45.3841 74.0599 40.0116 65.4568 39.0935V34.6731H59.9485V39.0595C51.7197 39.8076 45.2591 44.33 45.2591 52.4906C45.2591 60.2094 50.8356 64.1537 57.1605 65.5479L60.0844 66.1943V78.8433C55.7318 78.2651 53.4537 75.6469 53.2839 72.5188H44.375C44.443 78.8094 48.6594 85.4401 59.9146 86.2557L59.8803 90.5063H65.3891Z" fill="#262F56"/>
</svg>
