<svg width="496" height="395" viewBox="0 0 496 395" fill="none" xmlns="http://www.w3.org/2000/svg">
<path d="M456.392 96.4744C400.165 12.7592 281.389 -21.1993 164.577 15.3748C102.822 34.7105 43.2785 73.4523 13.7703 148.469C-38.9789 282.569 71.7746 325.398 144.195 339.048C179.214 345.648 212.196 356.735 242.335 371.83C296.557 398.988 392.535 423.052 464.909 309.928C517.366 227.936 493.844 152.237 456.392 96.4744Z" fill="#C5CFE4"/>
<path d="M130.409 113.037C130.252 111.706 129.934 110.403 129.463 109.161C129.403 108.926 129.297 108.707 129.154 108.517C129.01 108.328 128.832 108.173 128.629 108.062C128.358 107.987 128.074 107.983 127.802 108.052L123.555 108.747C123.199 108.765 122.859 108.906 122.586 109.15C122.032 109.773 122.577 110.775 122.56 111.634C122.541 112.599 121.739 113.383 120.87 113.642C119.982 113.834 119.066 113.822 118.184 113.607L112.245 112.619C113.994 112.022 115.551 110.91 116.738 109.412C117.519 108.421 117.935 106.572 116.805 106.102C116.47 106.004 116.12 105.974 115.774 106.014C113.083 106.036 110.966 103.633 108.447 102.62C106.835 102.014 105.085 101.969 103.447 102.491C101.81 103.014 100.368 104.077 99.3295 105.528L102.493 105.691C102.791 105.674 103.086 105.758 103.336 105.932C104.029 106.541 103.167 107.712 103.265 108.667C103.392 109.907 104.931 110.171 106.09 110.297C107.25 110.422 108.722 111.43 108.164 112.526C102.334 114.674 96.4014 108.326 90.2787 109.107C88.7291 109.305 87.2658 109.956 85.7529 110.366C76.5108 112.868 66.9561 106.192 57.5147 107.606C55.4158 107.989 53.353 108.571 51.3506 109.346C50.0656 109.797 48.7253 110.285 47.7916 111.332C46.858 112.379 46.5026 114.169 47.3871 115.264C44.9492 115.479 42.495 115.229 40.1386 114.527C40.7758 114.906 41.3059 115.461 41.6733 116.135C42.0407 116.809 42.2317 117.576 42.2264 118.356C38.4199 119.02 34.7142 120.229 31.209 121.95C31.8632 123.114 32.6273 124.203 33.4893 125.201L28.6704 128.513C30.2985 128.952 31.1402 131.327 30.1934 132.811C31.8816 132.007 32.9278 129.929 34.7329 129.507C35.9156 129.231 37.1189 129.749 38.2408 130.235C39.3627 130.721 40.5958 131.193 41.7572 130.828C42.9186 130.463 43.7752 128.852 43.0372 127.825C48.0013 126.275 53.1317 125.418 58.301 125.273C58.6998 125.22 59.1042 125.302 59.457 125.508C60.1299 126.008 59.9529 127.087 59.9166 127.962C59.8804 128.837 60.5181 129.988 61.2494 129.593C60.389 130.392 61.1245 131.894 61.9499 132.734C62.7753 133.573 63.7702 134.731 63.2648 135.823C63.133 136.108 62.9093 136.336 62.7824 136.624C62.4078 137.473 63.0025 138.462 63.704 139.026C64.4055 139.59 65.2648 139.984 65.7521 140.764C66.2394 141.545 66.0181 142.911 65.1467 143.02L62.67 139.655C61.8238 140.594 61.2437 141.77 60.9969 143.048C63.6233 145.345 64.0183 150.02 61.8196 152.784C60.696 154.197 59.0981 155.055 57.7035 156.157C56.3089 157.258 55.0185 158.827 55.022 160.682C55.028 163.886 54.7833 166.863 55.9056 169.834C57.975 175.312 60.3643 180.646 63.0592 185.803C63.7669 187.157 64.6815 188.642 66.1152 188.875C64.3033 184.155 62.6723 179.362 61.2221 174.496C62.1667 174.5 63.2582 174.58 63.8119 175.399C64.2704 176.077 64.1719 176.999 64.3144 177.822C64.4956 178.619 64.7978 179.379 65.2089 180.072L73.861 196.562C74.5783 197.929 75.401 199.396 76.7718 199.95C77.6482 200.304 78.6622 200.237 79.4689 200.747C80.1012 201.146 80.527 201.855 81.1716 202.231C82.9942 203.295 85.5288 201.255 87.2321 202.525C87.7191 202.888 88.0289 203.465 88.4777 203.881C90.0508 205.339 92.6314 204.364 94.4474 205.451C95.6178 206.152 96.2243 207.553 96.8486 208.823C98.4123 212.005 100.942 215.122 104.294 215.375C105.346 215.454 106.422 215.241 107.451 215.491C108.479 215.742 109.492 216.703 109.327 217.818C109.044 219.73 109.927 221.823 109.69 223.742C109.258 227.238 104.624 228.774 104.226 232.274C104.139 233.041 104.275 233.832 104.105 234.582C103.895 235.501 103.25 236.25 103.021 237.164C102.586 238.895 103.746 240.619 105.02 241.784C106.294 242.949 107.813 243.954 108.51 245.585C109.246 247.309 108.884 249.319 109.124 251.197C109.646 255.296 112.956 258.335 116.362 260.295C117.399 260.892 118.514 261.47 119.185 262.506C120.062 263.858 119.975 265.64 120.267 267.255C120.984 271.211 124.097 274.471 124.185 278.5C124.248 281.363 122.76 283.961 121.872 286.662C121.039 289.251 120.737 292.001 120.988 294.726C121.238 297.45 122.036 300.085 123.324 302.45C123.989 303.651 124.784 304.783 125.255 306.085C126.094 308.409 125.821 311.05 126.595 313.399C127.618 316.505 130.429 319.071 130.16 322.351C131.436 325.187 134.254 326.58 137.088 327.424L142.166 328.937C143.138 329.226 144.154 329.518 145.145 329.308C146.135 329.099 147.08 328.219 147.054 327.139C144.564 326.538 141.994 325.899 139.941 324.276C137.888 322.652 136.481 319.76 137.26 317.159C137.622 315.953 138.39 314.56 137.659 313.563C137.241 312.993 136.476 312.844 136.005 312.323C135.269 311.511 135.521 310.147 136.05 309.167C136.579 308.188 137.344 307.313 137.558 306.205C137.665 305.585 137.593 304.945 137.351 304.37C137.109 303.796 136.709 303.314 136.204 302.99C137.145 302.609 138.002 302.021 138.717 301.264C139.378 300.456 139.684 299.211 139.164 298.293C140.708 298.502 142.531 298.605 143.544 297.341C144.354 296.332 144.298 294.823 143.978 293.538C143.659 292.253 143.118 291.005 143.101 289.675C146.663 289.855 150.233 289.726 153.776 289.287C153.263 287.442 152.099 285.882 150.53 284.939C152.135 284.648 153.596 282.593 154.103 280.939C154.61 279.284 154.481 277.482 154.168 275.774C154.047 275.334 154.031 274.869 154.12 274.42C154.3 273.804 154.866 273.428 155.389 273.107L163.353 268.213C163.828 267.959 164.259 267.618 164.626 267.207C165.461 266.159 165.337 264.576 164.91 263.277C164.483 261.978 163.798 260.756 163.634 259.39C163.142 255.305 167.228 252.375 168.608 248.529C169.149 247.02 169.259 245.38 169.364 243.768C169.476 242.036 169.485 240.024 168.242 238.908C167.051 237.838 165.189 238.077 163.943 237.082C162.8 236.17 162.405 234.398 161.157 233.661C160.023 232.992 158.601 233.417 157.34 233.103C155.12 232.548 153.723 229.81 151.455 229.557C150.175 229.414 148.727 230.083 147.679 229.286C146.755 228.583 146.718 227.171 146.542 225.973C146.234 224.111 145.399 222.395 144.152 221.055C142.904 219.716 141.303 218.818 139.563 218.482C138.244 218.256 136.808 218.342 135.686 217.566C134.55 216.781 134.028 215.31 133.136 214.222C131.697 212.469 129.431 211.847 127.309 211.313L118.675 209.141C117.143 208.756 115.167 208.551 114.345 209.988C114.101 210.535 113.929 211.115 113.832 211.711C113.524 212.791 112.904 213.739 112.061 214.418C111.218 215.097 110.195 215.472 109.14 215.49C108.417 214.17 107.244 213.199 105.868 212.781C104.993 212.52 104.055 212.491 103.22 212.107C102.766 211.87 102.361 211.535 102.031 211.125C101.701 210.714 101.453 210.236 101.302 209.719C101.151 209.203 101.1 208.658 101.153 208.12C101.205 207.581 101.36 207.06 101.607 206.587C102.105 205.639 102.297 204.542 102.154 203.465C102.011 202.389 101.541 201.392 100.816 200.63C99.3475 199.219 97.2237 198.879 95.255 199.02C94.7394 197.816 95.6015 196.458 96.5305 195.583C97.4596 194.708 98.5877 193.848 98.79 192.542C99.1083 190.487 96.6578 188.926 94.7972 189.539C92.9366 190.151 91.749 192.085 90.964 193.991C90.5136 195.085 90.1307 196.236 89.4202 197.159C88.7097 198.081 87.5656 198.741 86.4834 198.445C84.9514 198.026 84.3597 196.079 84.0206 194.426C83.5657 192.209 83.1081 189.961 83.2034 187.693C83.2987 185.425 84.0132 183.097 85.5761 181.562C88.1229 179.06 92.0298 179.305 95.4669 179.704C94.6548 178.725 94.8555 177.076 95.7243 176.154C96.183 175.718 96.7341 175.409 97.3299 175.252C97.9258 175.095 98.5483 175.097 99.1435 175.256C100.179 175.486 101.112 176.083 101.792 176.95C102.769 178.224 103.047 179.945 103.785 181.391C104.523 182.837 106.183 184.07 107.542 183.295C108.716 182.624 108.902 180.883 108.61 179.495C108.318 178.106 107.697 176.756 107.803 175.337C108.005 172.63 110.628 171 112.943 169.885C115.257 168.77 117.908 167.271 118.274 164.583C118.287 164.057 118.38 163.537 118.549 163.042C118.806 162.606 119.162 162.247 119.585 162C126.34 157.223 133.208 152.388 140.929 149.778C141.33 149.642 141.377 149.793 141.787 149.687C142.36 149.333 141.98 148.353 141.431 147.958C140.881 147.563 140.147 147.26 140.008 146.568C139.905 146.059 140.186 145.56 140.258 145.045C140.437 143.781 139.023 142.613 137.925 143.119C137.305 142.24 138.532 141.219 139.525 140.926C142.504 140.049 145.563 139.514 148.649 139.332C149.005 139.271 149.37 139.337 149.687 139.521C150.205 139.905 150.139 140.786 149.772 141.334C149.404 141.882 148.833 142.226 148.375 142.69C147.875 143.212 147.519 143.87 147.344 144.593C147.17 145.316 147.185 146.077 147.387 146.792C148.998 147.669 150.749 148.571 152.533 148.263C154.317 147.954 155.901 145.809 155.062 144.096C154.281 142.501 151.935 142.141 151.532 140.393C151.06 138.346 153.768 136.525 153.158 134.52C152.891 133.642 152.073 133.125 151.445 132.491C150.704 131.714 150.2 130.715 149.999 129.625C149.798 128.536 149.909 127.407 150.319 126.386C149.297 126.579 148.246 126.506 147.255 126.174C146.265 125.843 145.363 125.262 144.625 124.48C143.264 123.009 142.177 120.69 140.243 120.756C138.469 120.816 136.94 123.031 135.281 122.355C134.873 122.189 134.442 121.851 134.047 122.049C133.917 122.139 133.808 122.259 133.728 122.401C133.649 122.543 133.6 122.702 133.586 122.867C133.165 125.024 133.89 127.481 132.791 129.345C131.595 131.374 128.83 131.655 127.38 133.484C126.593 134.477 126.288 135.815 125.565 136.862C124.842 137.909 123.307 138.574 122.439 137.662C122.865 136.724 122.982 135.658 122.769 134.64C122.556 133.622 122.027 132.71 121.268 132.056C120.462 131.493 119.593 131.041 118.682 130.71C117.664 130.249 116.696 129.671 115.794 128.987C115.342 128.696 114.975 128.275 114.733 127.773C114.542 127.145 114.568 126.464 114.806 125.853C115.246 124.503 116.022 123.307 117.051 122.395C118.08 121.482 119.323 120.888 120.644 120.676C121.8 120.507 123.145 120.567 123.91 119.625C124.315 119.126 124.527 118.372 125.114 118.17C125.49 118.089 125.88 118.14 126.226 118.316L130.54 119.941C131.021 120.173 131.551 120.267 132.077 120.213C132.337 120.175 132.575 120.034 132.742 119.816C132.909 119.599 132.993 119.322 132.978 119.041C132.84 118.275 131.738 117.907 131.838 117.134C131.894 116.883 132.02 116.657 132.199 116.485C133.756 114.712 135.659 113.329 137.774 112.436C139.889 111.542 142.162 111.16 144.431 111.316C144.975 112.273 144.114 113.406 143.397 114.223C142.681 115.04 142.105 116.499 142.972 117.128C143.327 117.322 143.722 117.417 144.12 117.405C145.182 117.558 146.214 117.893 147.177 118.397C148.668 119.091 150.13 119.85 151.563 120.675C151.437 119.664 151.316 118.598 151.674 117.653C152.032 116.707 153.05 115.966 153.94 116.334C154.797 116.689 155.236 117.903 156.149 118.014C157.367 118.163 157.848 116.237 157.339 115.044C156.83 113.851 155.823 112.852 155.739 111.543C155.682 110.66 155.996 109.565 155.337 109.031C155.103 108.87 154.837 108.77 154.56 108.739L138.104 105.499C137.127 105.307 135.715 105.454 135.672 106.516C135.647 107.109 136.142 107.696 135.923 108.241C135.689 108.822 134.921 108.769 134.361 108.975C133.492 109.294 133.056 110.398 133.14 111.377C133.292 112.349 133.644 113.273 134.17 114.083C133.1 113.604 131.479 113.516 130.409 113.037Z" fill="#F8F8F8"/>
<path d="M117.279 98.0907C116.241 97.7233 115.123 97.7062 114.076 98.0417C113.029 98.3772 112.104 99.0492 111.425 99.9664C111.154 100.348 110.927 100.874 111.154 101.288C111.479 101.88 112.308 101.646 112.919 101.434C113.817 101.091 114.794 101.066 115.706 101.363C116.28 101.574 116.793 101.946 117.369 102.149C117.65 102.275 117.957 102.316 118.258 102.269C118.558 102.222 118.842 102.088 119.077 101.882C119.472 101.451 119.497 100.78 119.498 100.175C119.525 99.9731 119.51 99.7669 119.453 99.5717C119.397 99.3766 119.3 99.1974 119.171 99.0472C118.94 98.9043 118.681 98.8223 118.415 98.808C117.819 98.6899 117.28 98.3529 116.891 97.8552" fill="#F8F8F8"/>
<path d="M123.212 96.3232C122.98 96.3097 122.749 96.3603 122.54 96.4702C122.331 96.5801 122.153 96.7456 122.021 96.9508C121.889 97.1559 121.809 97.3939 121.789 97.6417C121.768 97.8896 121.807 98.139 121.902 98.3659C122.615 98.574 123.361 98.626 124.093 98.5188C124.458 98.4581 124.799 98.2831 125.071 98.0157C125.344 97.7484 125.536 97.4008 125.624 97.0167C124.762 97.1846 123.872 97.0027 123.128 96.5067" fill="#F8F8F8"/>
<path d="M143.121 93.3711C141.18 93.8126 139.294 94.498 137.503 95.4129C138.347 95.7601 139.065 96.3883 139.55 97.2049C140.036 98.0215 140.263 98.9834 140.199 99.9487C140.123 100.319 140.132 100.704 140.224 101.07C140.431 101.605 141.029 101.806 141.554 101.943C142.498 102.251 143.484 102.386 144.471 102.342C144.964 102.314 145.443 102.155 145.865 101.88C146.286 101.604 146.637 101.22 146.885 100.763C147.028 100.329 147.195 99.9054 147.387 99.4935C148.647 97.4406 152.389 99.9229 153.742 97.9387C154.218 97.2397 154.175 96.1876 154.796 95.6337C155.117 95.3924 155.49 95.2404 155.88 95.1913C158.6 94.613 161.347 94.1943 164.11 93.937C165.419 93.8152 167.126 93.3122 167.136 91.9063C162.206 90.8701 157.093 91.606 152.593 93.9996C150.972 94.8684 148.828 96.696 147.266 95.5442C146.682 95.1129 146.711 93.9516 145.906 93.4667C145.083 92.9709 143.994 93.1725 143.121 93.3711Z" fill="#F8F8F8"/>
<path d="M159.246 96.5975L161.561 97.0734C161.134 97.0532 160.709 97.1305 160.313 97.3C159.917 97.4696 159.56 97.7275 159.264 98.0567C158.969 98.3858 158.743 98.7786 158.6 99.2087C158.458 99.6389 158.403 100.097 158.439 100.551C160.607 101.326 162.97 100.572 165.253 100.675C167.536 100.778 170.193 102.523 169.803 104.932C169.685 105.661 169.292 106.389 169.497 107.095C169.64 107.59 170.048 107.941 170.278 108.397C170.758 109.347 170.375 110.549 169.769 111.412C169.163 112.276 168.348 112.965 167.816 113.883C166.494 116.165 167.245 119.116 168.033 121.666C168.261 122.629 168.682 123.528 169.266 124.301C170.434 125.629 172.336 125.744 174.04 125.771C175.28 125.79 176.701 125.725 177.485 124.697C178.509 123.354 177.793 121.26 178.467 119.685C179.079 118.254 180.639 117.641 182.053 117.205C184.642 116.408 187.28 115.73 189.728 114.525C192.767 113.029 195.607 110.698 198.948 110.506C199.885 110.452 200.846 110.57 201.748 110.295C202.651 110.021 203.509 109.186 203.44 108.184C203.382 107.328 202.705 106.7 202.177 106.055C201.648 105.41 201.233 104.418 201.719 103.735L210.475 101.985C209.854 100.175 209.371 97.7918 210.797 96.6138C211.311 96.1888 212 96.0189 212.438 95.505C213.185 94.6292 212.81 93.1206 211.948 92.3757C211.086 91.6309 209.92 91.458 208.816 91.3599C204.977 91.0187 201.115 91.2441 197.268 91.4697C189.749 91.9108 182.229 92.3518 174.709 92.7928C173.195 92.8816 171.448 92.746 170.059 93.2985C168.884 93.7663 168.048 94.625 166.704 94.9267C164.222 95.4837 161.492 95.1068 159.246 96.5975Z" fill="#F8F8F8"/>
<path d="M200.712 116.173C200.476 116.133 200.235 116.192 200.038 116.336C199.908 116.49 199.831 116.686 199.819 116.892C199.669 117.804 199.847 118.742 200.317 119.52C200.556 119.901 200.887 120.207 201.274 120.405C201.661 120.604 202.091 120.688 202.518 120.649C203.56 120.507 204.328 119.555 205.287 119.091C206.763 118.376 213.035 117.262 208.697 114.754C207.202 113.89 206.235 114.653 205.057 115.222C203.716 115.956 202.214 116.285 200.712 116.173Z" fill="#F8F8F8"/>
<path d="M238.71 95.1818C238.204 95.4032 237.78 95.7979 237.505 96.3042C237.378 96.5613 237.349 96.8606 237.423 97.1403C237.497 97.4199 237.668 97.6585 237.902 97.8066C238.091 97.88 238.292 97.914 238.493 97.9069L240.553 97.9727C241.428 98.0007 242.521 98.2001 242.756 99.1023C242.931 99.7723 242.54 100.633 243.011 101.112C243.214 101.28 243.457 101.381 243.712 101.404C244.391 101.591 245.099 101.615 245.787 101.476C247.286 101.046 246.499 100.067 246.971 99.1957C247.693 97.8623 247.568 98.6695 248.84 97.9053C249.78 97.341 250.995 96.3172 250.21 94.8788C248.846 92.3775 240.723 94.1072 238.71 95.1818Z" fill="#F8F8F8"/>
<path d="M279.365 93.9242L278.169 94.095C275.472 94.4801 272.76 94.8687 270.162 95.7353C271.287 96.211 272.466 96.5208 273.669 96.656C274.331 96.6908 274.988 96.7908 275.633 96.9548C276.781 97.3203 277.937 98.264 279.045 97.7806C279.733 97.4808 279.957 96.7151 280.526 96.3093C280.919 96.0291 282.41 95.5756 282.577 95.2927C283.925 93.0063 280.401 93.7763 279.365 93.9242Z" fill="#F8F8F8"/>
<path d="M284.617 99.7406C283.02 100.696 281.537 101.858 280.203 103.199C279.641 103.764 279.067 104.467 279.118 105.291C279.186 106.385 280.276 107.02 281.22 107.448L285.043 109.18C285.507 108.48 285.083 107.515 284.603 106.827C284.124 106.14 283.554 105.344 283.766 104.517C284.008 103.573 285.083 103.252 285.985 103.089C287.455 102.824 291.42 102.845 290.943 100.311C290.382 97.3247 286.093 98.8583 284.617 99.7406Z" fill="#F8F8F8"/>
<path d="M283.849 268.733C283.485 269.86 283.45 271.189 284.08 272.173C284.786 273.278 286.2 273.689 287.424 273.409C288.642 273.063 289.728 272.316 290.528 271.274C291.26 270.401 291.863 269.412 292.314 268.344C292.944 266.678 293.388 264.939 293.637 263.162L294.825 256.493C295.09 255.002 295.08 250.433 292.519 251.921C291.82 252.328 290.2 255.54 289.467 256.45C288.146 258.091 287.971 259.684 287.276 261.672C286.405 264.163 284.654 266.238 283.849 268.733Z" fill="#F8F8F8"/>
<path d="M419.078 302.861C418.241 302.511 417.428 302.097 416.645 301.622C415.861 303.928 415.444 306.36 415.412 308.814L421.145 305.343C422.007 304.821 422.985 304.095 422.966 303.035C422.974 302.904 422.949 302.773 422.893 302.657C422.837 302.54 422.753 302.441 422.649 302.371C422.522 302.317 422.383 302.299 422.247 302.321C421.397 302.397 420.622 302.844 419.82 303.155C419.018 303.467 418.081 303.631 417.345 303.169" fill="#F8F8F8"/>
<path d="M449.32 304.922C448.691 305.105 448.077 305.341 447.482 305.627C446.166 306.344 445.272 307.704 444.088 308.647C442.955 309.55 441.591 310.046 440.252 310.527C439.858 310.9 440.039 311.65 440.467 311.977C440.926 312.257 441.454 312.384 441.981 312.341C443.372 312.374 444.837 312.389 446.055 311.67C446.742 311.193 447.384 310.648 447.974 310.041C449.398 308.769 451.109 307.93 452.802 307.119C453.418 306.87 453.988 306.506 454.485 306.043C455.549 304.921 455.624 303.191 454.089 302.809C452.85 302.501 450.501 304.513 449.32 304.922Z" fill="#F8F8F8"/>
<path d="M462.683 295.583C462.751 294.811 462.656 294.032 462.402 293.306C462.149 292.58 461.744 291.925 461.219 291.39C461.204 292.934 461.16 294.579 460.348 295.856C459.77 296.766 458.863 297.38 458.23 298.247C457.596 299.114 457.315 300.487 458.058 301.248C458.533 301.634 459.112 301.848 459.708 301.856C461.188 302.042 462.9 302.146 463.938 301.003C464.504 300.378 464.78 299.454 465.47 298.995C465.728 298.879 465.958 298.703 466.143 298.48C466.428 297.995 465.975 297.356 465.465 297.181C464.955 297.006 464.393 297.088 463.88 296.922C463.367 296.756 462.897 296.14 463.16 295.64" fill="#F8F8F8"/>
<path d="M438.934 238.969C438.158 239.17 437.354 239.221 436.561 239.118C435.244 238.859 434.219 237.797 433.155 236.926C430.628 234.867 427.555 233.718 424.378 233.645C421.489 233.587 418.573 234.424 415.735 233.84C415.92 234.943 416.803 235.771 417.744 236.263C418.686 236.755 419.725 237.002 420.671 237.484C422.186 238.263 423.388 239.601 424.056 241.252C424.36 242.013 424.552 242.841 425.014 243.505C425.957 244.863 427.745 245.162 429.323 245.051C431.381 244.906 433.53 244.273 435.444 245.093C436.908 245.72 437.956 247.092 439.179 248.158C440.402 249.224 442.124 250.016 443.528 249.246C442.069 248.741 440.8 247.75 439.905 246.419C439.01 245.087 438.537 243.485 438.553 241.845C439.93 241.98 443.896 241.928 443.683 239.424C443.502 237.303 440.116 238.74 438.934 238.969Z" fill="#F8F8F8"/>
<path d="M420.921 256.23C421.165 254.796 422.502 253.529 422.086 252.14C421.798 251.18 420.757 250.706 419.815 250.682C418.872 250.658 417.946 250.959 417.004 250.987C416.391 250.952 415.776 250.961 415.164 251.015C413.293 251.344 412.141 253.441 410.378 254.187C409.306 254.641 408.102 254.554 406.987 254.868C404.457 255.579 402.856 258.138 401.087 260.2C398.229 263.518 394.506 265.842 390.399 266.869C388.96 267.226 387.414 267.454 386.27 268.453C384.756 269.777 384.383 272.047 384.046 274.108C383.115 279.801 381.693 285.388 379.797 290.799L385.805 291.62C386.947 291.776 388.131 291.929 389.232 291.567C390.032 291.244 390.789 290.812 391.486 290.282C394.162 288.505 397.157 287.348 400.277 286.887C401.85 286.656 403.5 286.614 404.976 287.239C406.453 287.865 407.72 289.284 407.843 290.978C408.482 290.766 409.162 290.743 409.812 290.912C410.462 291.081 411.057 291.436 411.533 291.938C412.473 292.964 413.09 294.28 413.294 295.7C413.452 296.58 413.611 297.634 414.373 298.003C414.996 298.304 415.709 297.98 416.39 297.921C418.7 297.723 420.617 300.605 422.888 300.109C425.323 299.577 425.921 295.675 428.296 294.893C429.661 294.444 431.574 294.99 432.228 293.632C432.804 292.435 431.655 291.054 431.773 289.714C431.919 288.064 433.738 287.363 435.141 286.659C439.976 284.232 442.271 277.269 439.928 272.133C438.539 269.091 435.808 266.695 435.303 263.353C434.915 260.781 435.863 257.782 434.33 255.758C433.551 254.728 432.231 254.16 431.767 252.931C431.475 252.157 431.592 251.28 431.435 250.463C431.278 249.646 430.612 248.791 429.858 249.003C427.669 249.618 426.97 256.853 425.798 258.611C424.017 261.283 420.36 259.523 420.921 256.23Z" fill="#F8F8F8"/>
<path d="M380.461 241.702C379.713 241.478 378.896 241.257 378.18 241.578C377.463 241.898 377.044 243.024 377.619 243.583C382.12 243.395 386.648 243.209 391.11 243.863C396.25 244.616 401.338 246.483 406.502 245.934C403.552 245.003 400.554 244.258 397.523 243.704L392.468 242.671C391.112 242.367 389.741 242.141 388.363 241.992C385.479 241.738 383.296 242.553 380.461 241.702Z" fill="#F8F8F8"/>
<path d="M384.966 224.932C384.593 224.899 384.13 224.87 383.937 225.214C383.752 225.542 383.963 225.976 383.864 226.344C383.728 226.847 383.113 226.976 382.628 226.907C382.142 226.839 381.618 226.675 381.188 226.925C380.97 227.085 380.806 227.315 380.721 227.583C380.636 227.85 380.634 228.14 380.716 228.408C380.892 228.941 381.176 229.426 381.548 229.827C382.184 230.684 382.908 231.462 383.707 232.144C385.254 233.366 387.349 233.955 388.324 235.728C388.461 236.072 388.672 236.376 388.94 236.616C389.408 236.933 390.018 236.692 390.521 236.446L392.286 235.583C392.604 235.46 392.888 235.254 393.111 234.982C393.515 234.397 393.267 233.564 392.928 232.934C392.59 232.303 392.157 231.65 392.229 230.927C392.359 229.638 393.908 229.145 394.545 228.042C395.187 226.93 394.769 225.498 394.843 224.193C394.93 222.667 395.826 220.683 394.384 219.543C393.159 218.574 391.988 219.469 391.108 220.539C389.253 222.794 388.376 225.237 384.966 224.932Z" fill="#F8F8F8"/>
<path d="M395.68 202.136C396.282 203.37 397.539 204.107 398.196 205.309C398.908 206.612 398.827 208.296 399.599 209.559C400.392 210.855 401.987 211.543 402.432 213.017C402.917 214.626 401.816 216.582 402.694 217.988C402.858 218.218 403.064 218.409 403.301 218.548C403.537 218.688 403.798 218.774 404.067 218.801C404.336 218.827 404.607 218.794 404.863 218.702C405.119 218.611 405.355 218.463 405.555 218.269C405.925 217.838 406.123 217.269 406.107 216.684C406.091 216.099 405.861 215.543 405.468 215.136C404.948 214.629 404.202 214.41 403.768 213.818C403.542 213.476 403.392 213.084 403.328 212.671C403.091 211.479 403.129 210.244 403.438 209.072C403.554 208.774 403.584 208.446 403.523 208.13C403.327 207.523 402.559 207.48 402.019 207.198C400.793 206.558 400.823 204.707 401.037 203.266C400.894 204.225 397.7 202.593 397.365 202.05C396.701 200.97 397.063 198.887 396.931 197.694C395.496 198.433 394.943 200.627 395.68 202.136Z" fill="#F8F8F8"/>
<path d="M363.497 221.129C362.907 220.423 362.019 219.684 361.229 220.11C360.626 220.435 360.46 221.328 360.696 222.005C360.984 222.662 361.427 223.228 361.982 223.646C363.63 225.099 365.404 226.411 366.841 228.101C369.413 231.125 370.775 235.206 373.572 237.991C374.134 238.637 374.879 239.068 375.691 239.219C376.506 239.3 377.421 238.742 377.515 237.872C377.592 237.155 377.125 236.514 376.669 235.983C375.583 234.718 374.393 233.554 373.367 232.233C372.894 231.726 372.596 231.06 372.523 230.347C372.518 229.636 373.124 228.891 373.769 229.067C372.985 228.853 372.404 227.456 371.254 227.194C370.293 226.975 370.061 227.611 368.917 227.086C366.736 226.085 365.024 222.959 363.497 221.129Z" fill="#F8F8F8"/>
<path d="M414.751 152.363C414.125 152.164 413.51 151.929 412.908 151.659C411.288 151.139 409.146 152.413 409.361 154.207C409.505 155.399 410.542 156.203 411.115 157.237C411.964 158.771 411.738 160.716 411.291 162.434C411.182 162.966 410.973 163.468 410.678 163.912C410.266 164.381 409.773 164.76 409.227 165.029C407.04 166.342 405.111 168.095 403.547 170.192C403.377 170.386 403.259 170.625 403.204 170.884C403.127 171.49 403.696 171.931 404.018 172.436C404.733 173.559 404.216 175.069 404.287 176.426C404.276 176.617 404.311 176.809 404.389 176.982C404.467 177.155 404.584 177.304 404.731 177.415C405.162 177.649 405.672 177.252 405.906 176.799C406.681 175.297 406.097 172.885 407.551 172.161C407.826 172.024 408.159 171.966 408.343 171.708C408.634 171.298 408.353 170.69 408.501 170.2C408.722 169.464 409.663 169.431 410.385 169.464C411.628 169.52 412.871 169.343 414.058 168.941C414.523 168.822 414.946 168.56 415.274 168.187C415.708 167.607 415.67 166.782 415.583 166.044C415.148 162.366 414.059 158.811 412.375 155.57C413.652 155.745 415.041 155.896 416.143 155.184C416.76 154.785 417.5 153.593 417.194 152.781C416.71 151.498 415.836 152.578 414.751 152.363Z" fill="#F8F8F8"/>
<path d="M251.031 172.594C251.183 173.471 251.334 174.394 251.065 175.239C250.796 176.083 249.951 176.789 249.153 176.53C248.534 176.329 248.176 175.663 247.737 175.155C245.291 172.33 239.774 173.966 238.263 170.471C237.647 169.045 238.066 167.336 237.645 165.831C237.38 164.96 236.852 164.209 236.144 163.695C235.437 163.18 234.589 162.932 233.736 162.989C232.957 163.109 232.199 163.351 231.486 163.707C226.71 165.754 221.695 167.096 216.581 167.696C215.609 167.76 214.647 167.947 213.717 168.254C211.617 169.068 210.182 171.152 209.161 173.277C208.139 175.403 207.386 177.704 206.016 179.593C204.578 181.578 202.561 182.968 200.681 184.471C199.956 184.971 199.353 185.647 198.92 186.445C198.513 187.341 198.536 188.382 198.567 189.378L198.952 201.471C199.001 203.026 199.063 204.637 199.714 206.029C200.526 207.768 202.131 208.906 203.245 210.441C204.381 212.019 204.973 213.969 204.92 215.96C204.897 216.761 204.822 217.708 205.405 218.21C205.76 218.456 206.174 218.584 206.597 218.577L221.885 219.916C224.575 220.151 227.555 220.539 229.311 222.731C230.14 223.766 230.805 225.254 232.075 225.365C232.619 225.412 233.149 225.173 233.693 225.127C235.067 225.01 236.274 226.126 237.036 227.355C238.189 229.228 238.712 231.465 238.52 233.698C238.395 235.1 237.989 236.463 237.901 237.868C237.568 243.214 241.804 247.859 241.886 253.217C241.934 256.368 240.536 259.313 239.173 262.107C241.373 265.673 239.571 270.421 240.447 274.59C241.278 278.545 244.361 281.642 245.129 285.611C245.48 287.429 245.5 289.665 246.998 290.601C247.655 290.944 248.384 291.1 249.114 291.054C253.516 291.11 257.868 290.05 261.814 287.961C263.666 286.977 265.586 285.509 265.909 283.324C266.17 281.562 265.335 279.592 266.185 278.057C267.186 276.248 269.753 276.391 271.226 275.001C273.617 272.744 271.753 268.442 272.722 265.192C273.592 262.271 276.59 260.719 278.076 258.097C278.66 256.97 279.08 255.753 279.32 254.49C280 251.469 280.424 248.389 280.586 245.288C280.625 243.403 280.755 241.522 280.975 239.651C282.577 229.003 292.416 221.872 295.61 211.642C295.915 210.665 296.058 209.364 295.246 208.811C294.764 208.565 294.218 208.504 293.699 208.638L286.651 209.589C285.776 209.707 284.848 209.817 284.044 209.428C283.24 209.039 282.664 207.951 283.091 207.125C284.288 204.805 281.825 201.873 280.731 199.496C277.785 193.094 274.277 187.006 270.254 181.315C269.997 181.022 269.835 180.648 269.795 180.248L271.795 180.319C271.12 177.727 270.006 174.89 267.652 173.942C266.325 173.408 264.856 173.592 263.441 173.675C259.388 173.912 255.042 173.257 251.031 172.594Z" fill="#F8F8F8"/>
<path d="M263.444 114.175C264.505 115.381 265.694 116.658 267.228 116.869C269.939 117.24 271.888 114.24 273.129 111.635C273.175 112.299 273.461 112.918 273.927 113.36C274.393 113.802 275.001 114.032 275.623 114.001C276.292 113.88 276.93 113.613 277.498 113.216C282.869 110.076 288.885 108.412 295.005 108.374C294.946 107.878 295.061 107.376 295.328 106.966C295.594 106.555 295.994 106.265 296.448 106.15C297.693 105.886 298.814 107.038 299.414 108.233C300.014 109.429 300.389 110.815 301.342 111.71C302.296 112.605 304.142 112.566 304.519 111.27C304.881 110.026 303.669 108.964 302.663 108.231C301.656 107.497 300.595 106.14 301.273 105.057C306.415 103.839 311.589 102.616 316.851 102.374C317.747 102.408 318.64 102.243 319.474 101.891C320.276 101.47 320.914 100.513 320.698 99.5852C319.55 99.874 318.347 99.7904 317.243 99.345C316.14 98.8995 315.185 98.1125 314.501 97.0843C321.802 96.4396 329.568 95.8901 336.039 99.566C336.815 101.349 332.858 102.833 333.916 104.442C334.254 104.955 334.931 105.015 335.517 105.027C340.014 105.116 344.536 105.204 348.982 104.477C350.606 104.212 352.247 103.837 353.879 104.053C356.595 104.411 358.919 106.351 361.592 106.983C362.68 107.24 363.9 107.249 364.817 106.572C365.734 105.895 366.128 104.353 365.376 103.473C367.893 100.834 372.07 101.488 375.39 102.752C378.71 104.015 381.855 106.053 385.369 106.334C387.889 106.536 390.444 105.811 392.934 106.272C394.498 106.562 395.954 107.307 397.484 107.764C400.376 108.63 403.435 108.447 406.438 108.488C414.1 108.599 421.679 110.21 428.798 113.242C429.724 113.565 430.573 114.101 431.284 114.814C431.946 115.573 432.284 116.752 431.839 117.675L424.482 116.525C425.175 117.985 426.968 118.234 428.425 118.737C429.881 119.241 431.391 120.962 430.516 122.305C428.938 121.767 427.508 123.455 426.711 125.008C425.914 126.561 424.942 128.421 423.289 128.516C421.808 128.601 420.017 127.252 419.052 128.456C420.386 130.256 421.527 132.209 422.457 134.279C423.41 136.405 424.089 139.083 422.8 140.995C422.598 141.337 422.29 141.592 421.931 141.717C420.878 142.002 420.194 140.624 419.439 139.789C418.488 138.737 417.05 138.439 415.762 137.946C414.473 137.452 413.117 136.481 413.016 135.021C412.953 134.113 413.401 133.269 413.731 132.429C414.286 131.014 414.529 129.481 414.441 127.95C414.368 126.717 414.045 125.436 413.218 124.575C412.391 123.714 410.963 123.441 410.075 124.229C409.661 124.597 409.329 125.186 408.791 125.208C407.84 125.247 407.111 123.473 406.346 124.079C406.436 124.724 406.311 125.382 405.993 125.938C403.71 128.062 400.204 127.163 397.262 127.914C395.863 128.342 394.523 128.968 393.279 129.775C392.813 129.988 392.417 130.344 392.14 130.798C391.773 131.561 392.178 132.539 392.825 133.047C393.512 133.497 394.283 133.779 395.084 133.872C398.671 134.599 402.31 135.724 405.142 138.189C407.974 140.654 409.831 144.729 408.935 148.516L401.861 141.284C402.13 144.321 402.282 147.366 402.319 150.419C402.364 151.015 402.288 151.615 402.094 152.176C401.59 153.368 400.223 153.769 399.026 154.032C398.693 154.099 398.377 154.242 398.099 154.45C397.82 154.657 397.587 154.925 397.412 155.237C397.238 155.548 397.127 155.895 397.087 156.255C397.047 156.616 397.079 156.981 397.18 157.327C397.606 158.811 398.667 159.968 399.638 161.121C400.61 162.274 401.566 163.584 401.693 165.131C401.82 166.677 400.73 168.42 399.283 168.312C398.185 168.231 397.371 167.18 396.903 166.115C396.435 165.05 396.157 163.864 395.454 162.959C393.325 160.22 388.545 161.394 386.638 158.474C386.152 159.064 385.815 159.777 385.659 160.545C385.503 161.314 385.533 162.112 385.747 162.864C386.634 162.27 387.848 162.822 388.514 163.686C389.181 164.549 389.495 165.656 390.019 166.625C390.725 167.934 391.849 169.093 391.947 170.601C391.921 171.171 391.93 171.742 391.974 172.31C392.149 173.224 392.871 173.879 393.371 174.643C394.535 176.419 394.477 178.859 393.727 180.874C392.977 182.89 391.629 184.573 390.294 186.206C387.963 189.058 385.584 191.893 382.819 194.261C382.031 194.936 381.189 195.601 380.698 196.546C380.206 197.49 380.181 198.816 380.936 199.535C380.396 199.564 379.427 199.848 378.887 199.877C378.697 197.559 378.656 195.229 378.764 192.905C376.632 191.81 374.337 194.742 374.612 197.255C374.887 199.768 376.586 201.785 377.795 203.959C378.679 205.548 379.337 207.402 379.041 209.225C378.746 211.048 377.225 212.73 375.503 212.569C372.763 212.313 371.617 208.104 368.903 207.623C368.664 207.563 368.413 207.589 368.189 207.699C367.787 207.935 367.717 208.512 367.694 209.003C367.583 211.412 367.487 213.918 368.366 216.14C369.652 219.39 372.975 222.12 372.278 225.57C368.523 223.702 366.571 219.197 365.685 214.869C364.798 210.542 364.65 205.999 363.062 201.908C361.855 203.562 359.319 202.195 358.217 200.459C357.172 198.813 356.528 196.91 355.514 195.242C354.5 193.574 352.947 192.081 351.09 191.989C349.142 191.893 347.453 193.323 345.968 194.674C344.746 195.785 343.492 196.94 342.778 198.475C341.74 200.71 342.011 203.345 341.961 205.84C341.907 208.538 341.373 211.385 339.654 213.36C337.936 215.335 334.764 216.023 332.868 214.243C331.879 213.313 331.399 211.925 330.973 210.592C328.915 204.168 327.202 197.624 325.841 190.991C325.523 192.505 324.28 194.456 323.093 193.564C322.827 193.324 322.611 193.027 322.46 192.691C320.246 188.677 316.146 186.268 312.004 184.824C307.861 183.381 303.503 182.707 299.406 181.12C297.11 180.23 294.918 179.062 292.871 177.637C292.349 178.457 292.045 179.413 291.989 180.403C291.934 181.394 292.13 182.382 292.557 183.262C293.466 184.984 295.522 185.98 297.282 185.378C298.192 185.067 298.96 184.392 299.863 184.058C300.765 183.724 301.977 183.888 302.371 184.819C302.749 185.709 302.178 186.786 302.461 187.716C302.893 189.132 304.889 189.242 305.587 190.53C306.107 191.489 305.679 192.762 304.938 193.536C304.196 194.31 303.207 194.734 302.301 195.273C299.364 197.02 297.275 200.004 294.708 202.325C292.141 204.646 288.52 206.34 285.46 204.852C286.19 200.901 281.791 198 280.982 194.067C280.716 192.773 280.854 191.397 280.473 190.136C279.923 188.309 278.408 187.054 277.166 185.669C275.659 183.972 274.485 181.969 273.713 179.779C272.941 177.589 272.587 175.255 272.672 172.916C272.739 171.29 273.018 169.638 272.672 168.054C272.326 166.47 271.1 164.936 269.581 165.008C266.111 165.172 261.74 165.448 259.92 162.283C259.27 161.154 258.987 159.5 259.926 158.634C260.589 158.024 261.567 158.081 262.438 158.173L270.256 158.996C272.084 159.188 274.061 159.347 275.63 158.324C277.199 157.301 277.879 154.586 276.426 153.383C275.364 152.504 273.462 152.552 273.154 151.154C272.897 149.989 274.101 148.668 273.451 147.695C272.984 146.998 271.936 147.191 271.3 147.714C270.665 148.237 270.204 149.002 269.492 149.398C268.245 150.093 266.754 149.432 265.412 148.982C264.07 148.533 262.271 148.495 261.62 149.829C260.892 151.32 262.266 153.275 261.543 154.77C260.588 156.746 257.353 155.621 256.011 157.321C254.471 159.271 257.059 162.18 256.539 164.672C255.877 165.023 255.14 165.184 254.401 165.14C253.663 165.095 252.948 164.847 252.326 164.418C251.714 163.973 251.227 163.359 250.915 162.641C250.604 161.923 250.48 161.128 250.557 160.341C250.686 159.22 251.232 158.076 250.866 157.017C250.57 156.16 249.766 155.65 249.019 155.209L241.422 150.717C240.717 152.117 241.608 153.852 242.724 154.904C243.839 155.955 245.236 156.747 245.968 158.131C246.432 159.09 246.536 160.202 246.259 161.24C245.982 162.278 245.345 163.164 244.479 163.716C244.37 163.797 244.246 163.851 244.116 163.875C243.986 163.899 243.853 163.893 243.726 163.857C243.604 163.781 243.499 163.679 243.415 163.559C243.331 163.438 243.27 163.3 243.237 163.154C241.897 159.484 239.884 155.865 236.666 153.948C233.449 152.03 228.825 152.425 226.715 155.655C226.214 156.422 225.878 157.296 225.441 158.107C223.122 162.416 218.149 164.457 213.503 164.324C213.049 164.35 212.597 164.237 212.201 163.996C211.45 163.441 211.484 162.264 211.599 161.295L212.087 157.185C212.185 156.359 212.326 155.447 212.937 154.932C213.798 154.206 215.039 154.664 216.135 154.647C216.966 154.605 217.764 154.292 218.422 153.748C219.08 153.205 219.566 152.458 219.814 151.609C220.036 150.752 220.034 149.846 219.81 148.99C219.586 148.133 219.148 147.358 218.543 146.749C218.04 146.244 217.366 145.61 217.631 144.929C217.737 144.741 217.88 144.58 218.051 144.457C218.221 144.334 218.414 144.253 218.617 144.219C220.586 143.607 222.666 143.447 224.602 142.725C226.538 142.003 228.416 140.526 228.874 138.388C229.015 137.733 229.079 136.939 229.629 136.614C229.905 136.49 230.201 136.425 230.501 136.424C231.55 136.264 232.506 135.69 233.18 134.814C233.853 133.938 234.196 132.824 234.14 131.691C235.068 130.997 236.368 131.508 237.266 132.245C238.163 132.983 238.956 133.958 240.048 134.276C242.083 134.869 244.05 132.941 246.16 132.932C247.047 132.928 247.965 133.263 248.799 132.942C249.645 132.615 250.151 131.714 250.8 131.049C251.449 130.383 252.589 129.977 253.188 130.694L252.678 126.648C253.706 126.926 254.778 126.965 255.821 126.763C256.865 126.561 257.856 126.123 258.728 125.477L252.13 123.092C251.9 123.03 251.688 122.909 251.513 122.739C251.033 122.186 251.509 121.325 251.899 120.697C252.833 119.194 252.989 116.718 251.455 115.969C250.407 115.459 249.205 116.072 248.199 116.672L243.383 119.545C243.23 120.524 244.35 121.079 245.043 121.739C245.463 122.138 245.76 122.664 245.896 123.247C246.031 123.83 245.998 124.444 245.802 125.006C245.606 125.569 245.255 126.056 244.795 126.401C244.336 126.747 243.79 126.936 243.228 126.943C243.545 127.384 243.766 127.896 243.873 128.441C243.98 128.985 243.972 129.549 243.848 130.089L240.607 130.339C240.244 130.417 239.866 130.338 239.556 130.119C239.21 129.79 239.257 129.213 239.176 128.724C238.983 127.545 237.904 126.719 236.803 126.507C235.701 126.295 234.575 126.567 233.485 126.835C233.022 127.013 232.513 127.001 232.059 126.8C231.798 126.619 231.6 126.351 231.494 126.038C231.016 124.798 231.463 123.34 232.231 122.28C232.999 121.219 234.05 120.444 234.993 119.561C237.251 117.442 238.909 114.69 239.781 111.615C241.565 110.816 243.412 109.729 245.196 108.93C247.946 107.44 251.03 106.8 254.101 107.083L260.142 107.207C261.931 107.243 263.768 107.29 265.422 108.02C267.075 108.749 268.529 110.327 268.643 112.237C268.677 112.454 268.66 112.676 268.592 112.883C268.524 113.09 268.409 113.275 268.256 113.421C268.022 113.558 267.757 113.621 267.492 113.605C265.824 113.668 265.112 114.113 263.444 114.175Z" fill="#F8F8F8"/>
<path d="M215.293 134.433C215.529 134.194 215.699 133.89 215.784 133.554C215.869 133.219 215.866 132.865 215.775 132.531C215.201 132.294 214.576 132.233 213.971 132.355C213.366 132.477 212.805 132.778 212.351 133.223C211.994 133.61 211.685 134.046 211.434 134.52C210.64 135.906 209.938 137.561 210.398 139.11C210.436 139.279 210.504 139.438 210.6 139.578C210.696 139.718 210.817 139.837 210.956 139.926C211.162 140.015 211.384 140.052 211.606 140.035C212.481 140.034 213.354 139.976 214.222 139.863C214.755 139.793 215.374 139.632 215.58 139.101C215.851 138.404 215.196 137.614 215.387 136.887C215.513 136.562 215.703 136.27 215.945 136.032C216.065 135.912 216.157 135.764 216.215 135.599C216.272 135.434 216.292 135.257 216.274 135.083C216.197 134.741 215.709 134.548 215.533 134.844" fill="#F8F8F8"/>
<path d="M219.828 128.143C219.051 127.952 218.25 127.898 217.457 127.983C217.282 127.978 217.108 128.02 216.952 128.106C216.801 128.225 216.691 128.395 216.641 128.588C216.473 129.164 216.514 129.785 216.756 130.33C216.998 130.874 217.422 131.301 217.945 131.525C218.229 131.595 218.502 131.712 218.753 131.873C219.424 132.429 218.996 133.567 219.123 134.465C219.266 135.473 220.178 136.319 220.011 137.323C219.879 138.114 219.089 138.74 219.216 139.532C219.35 140.361 220.333 140.61 221.117 140.677C221.571 140.762 222.039 140.705 222.463 140.512C222.889 140.2 223.191 139.731 223.313 139.195C223.634 138.173 223.769 137.095 223.71 136.018C223.707 135.529 223.592 135.048 223.375 134.616C223.139 134.275 222.878 133.954 222.593 133.658C221.091 131.788 222.672 129 219.828 128.143Z" fill="#F8F8F8"/>
<path opacity="0.8" d="M260 139C260 139 278.521 125.614 229 139C229 139 250.663 122.414 238.5 149C238.5 149 140.163 150.218 128 146.5" stroke="#09328B" stroke-width="0.842077" stroke-miterlimit="10"/>
<path opacity="0.8" d="M61 164C61 164 149.057 23.5077 237.5 149" stroke="#09328B" stroke-width="0.842077" stroke-miterlimit="10"/>
<path d="M127.039 152.783C129.822 152.783 132.078 150.369 132.078 147.391C132.078 144.414 129.822 142 127.039 142C124.256 142 122 144.414 122 147.391C122 150.369 124.256 152.783 127.039 152.783Z" fill="#09328B"/>
<path d="M239.039 155.783C241.822 155.783 244.078 153.369 244.078 150.391C244.078 147.414 241.822 145 239.039 145C236.256 145 234 147.414 234 150.391C234 153.369 236.256 155.783 239.039 155.783Z" fill="#09328B"/>
<path d="M229.039 146.783C231.822 146.783 234.078 144.369 234.078 141.392C234.078 138.414 231.822 136 229.039 136C226.256 136 224 138.414 224 141.392C224 144.369 226.256 146.783 229.039 146.783Z" fill="#09328B"/>
<path d="M60.039 168.783C62.822 168.783 65.078 166.369 65.078 163.391C65.078 160.414 62.822 158 60.039 158C57.256 158 55 160.414 55 163.391C55 166.369 57.256 168.783 60.039 168.783Z" fill="#09328B"/>
<path d="M257.039 144.783C259.822 144.783 262.078 142.369 262.078 139.392C262.078 136.414 259.822 134 257.039 134C254.256 134 252 136.414 252 139.392C252 142.369 254.256 144.783 257.039 144.783Z" fill="#09328B"/>
</svg>