<svg width="901" height="404" viewBox="0 0 901 404" fill="none" xmlns="http://www.w3.org/2000/svg">
<path d="M787.753 148.979H767.71L641.878 404H661.658L678.073 370.709H823.989L832.095 404H850.335L842.228 370.709H901V353.012H837.871L787.753 148.979ZM686.808 353.012L775.472 173.331L819.611 353.012H686.808Z" fill="#09328B"/>
<path d="M589.49 149.101H512.155L482.81 386.303H419.559V404H567.745C606.352 404 637.541 389.013 660.482 359.504C677.648 337.398 686.2 311.934 690.334 294.46C700.305 252.472 693.496 211.293 672.095 184.333C653.896 161.276 625.321 149.101 589.49 149.101ZM673.088 290.354C669.339 306.11 661.678 329.025 646.458 348.623C627.064 373.622 600.576 386.303 567.745 386.303H500.624L527.78 166.818H589.45C620.092 166.818 643.216 176.385 658.192 195.275C679.451 222.074 679.816 261.958 673.088 290.354Z" fill="#09328B"/>
<path d="M236.8 350.828C201.314 381.024 160.66 394.737 141.428 394.737C138.691 394.794 135.96 394.454 133.321 393.725C130.896 393.116 128.686 391.849 126.937 390.064C125.188 388.28 123.968 386.047 123.411 383.613C123.132 382.313 123.112 380.97 123.353 379.662C123.594 378.354 124.091 377.107 124.816 375.991C125.54 374.875 126.479 373.913 127.576 373.159C128.674 372.405 129.91 371.875 131.214 371.599C132.612 371.296 134.011 370.952 135.409 370.588C136.99 371.621 138.658 372.514 140.394 373.257C147.214 375.885 154.487 377.142 161.795 376.959C169.895 376.876 177.959 375.872 185.831 373.965C204.073 369.365 221.338 361.528 236.8 350.828ZM172.151 299.334L173.57 298.889C180.476 296.663 187.074 293.578 193.208 289.707L193.471 289.525C186.317 277.794 168.422 256.315 124.688 218.17C87.8039 185.931 50.717 158.04 50.3724 157.757C48.0427 156.008 46.2122 153.681 45.063 151.008C43.9139 148.334 43.486 145.407 43.8221 142.517C44.1582 139.627 45.2465 136.875 46.9788 134.535C48.711 132.195 51.0269 130.349 53.6961 129.179L52.622 127.156L52.3585 126.651L51.5073 124.932L51.3249 124.588C50.6156 123.131 49.9266 121.655 49.2983 120.179C34.4433 110.895 24.1076 98.5375 19.5275 87.8181C18.7378 86.0124 17.4368 84.4762 15.7842 83.3982C14.1317 82.3203 12.1996 81.7476 10.2254 81.7506C9.3503 81.7462 8.47836 81.855 7.6313 82.0742C5.27852 82.6724 3.21919 84.0938 1.8281 86.0797C0.437021 88.0656 -0.193326 90.484 0.0517909 92.8947C0.274718 94.9172 5.56416 139.898 31.8493 173.047L26.3166 175.07C24.5143 175.727 22.936 176.881 21.7652 178.398C20.5944 179.916 19.8793 181.733 19.7031 183.64C19.5269 185.547 19.8968 187.464 20.7698 189.17C21.6428 190.875 22.983 192.298 24.6345 193.273C25.8505 194.001 129.572 256.295 172.151 299.334Z" fill="#C1CCE2"/>
<path d="M225.856 350.1C213.013 358.065 199.002 363.981 184.331 367.635C176.959 369.436 169.405 370.386 161.815 370.466C155.384 370.643 148.98 369.557 142.968 367.271C134.091 363.509 132.186 357.401 131.842 354.104C131.701 352.783 131.823 351.447 132.201 350.172C132.578 348.898 133.203 347.71 134.041 346.677C134.878 345.644 135.912 344.785 137.082 344.151C138.252 343.517 139.536 343.119 140.86 342.98L142.765 342.758C145.917 345.696 149.423 348.23 153.202 350.302C163.653 355.91 175.365 358.764 187.229 358.594C200.55 358.414 213.693 355.523 225.856 350.1ZM200.118 285.702C203.937 282.913 207.184 279.418 209.684 275.408C210.249 274.542 210.609 273.56 210.738 272.536C210.738 270.675 208.954 252.472 147.062 185.891C113.988 150.274 80.9336 119.451 79.5352 118.156C77.3188 116.106 75.6574 113.53 74.7053 110.668C73.7532 107.805 73.5413 104.749 74.0892 101.783C74.637 98.8173 75.927 96.0376 77.8393 93.7023C79.7515 91.3669 82.224 89.5516 85.0273 88.4249C83.4668 84.5012 82.109 80.5573 80.9741 76.6336C72.1575 68.5345 65.4755 58.3928 61.5187 47.1047C60.886 45.0367 59.6059 43.2255 57.866 41.9369C56.1262 40.6483 54.0183 39.9502 51.8517 39.9449C51.3359 39.9452 50.821 39.9857 50.3115 40.0663C47.899 40.4364 45.7014 41.6632 44.1227 43.5211C42.544 45.379 41.6904 47.7431 41.7187 50.1789C41.7187 52.2015 42.3064 97.5061 64.9842 133.224L59.2489 134.68C57.3904 135.148 55.7031 136.133 54.3829 137.52C53.0627 138.907 52.1637 140.639 51.7902 142.515C51.4168 144.391 51.5842 146.335 52.2731 148.12C52.9619 149.905 54.144 151.458 55.682 152.6C56.0468 152.883 93.458 181.036 130.363 213.276C174.036 251.34 192.579 273.365 200.118 285.702Z" fill="#6B84B8"/>
<path d="M475.19 197.561C474.345 199.225 473.056 200.623 471.464 201.601C469.872 202.579 468.041 203.099 466.171 203.102C465.104 203.107 464.042 202.936 463.03 202.597C458.999 201.101 454.775 200.189 450.486 199.886C449.296 199.795 448.108 200.07 447.081 200.675C444 202.698 440.454 209.595 435.955 218.393C427.994 234.526 418.778 250.012 408.393 264.708C391.572 288.352 370.556 308.254 350.209 327.508C324.431 351.92 299.99 374.956 286.432 403.373L286.128 404H264.098L264.727 402.463C279.278 366.765 308.258 339.32 336.286 312.784C355.924 294.217 376.231 275.003 391.896 252.958C401.712 239.057 410.42 224.41 417.938 209.15C425.68 194.021 431.354 182.857 444.142 180.288C441.872 176.486 436.624 168.922 430.078 167.566C429.411 167.427 428.732 167.359 428.051 167.364C424.16 167.364 419.722 169.549 414.878 173.877C401.482 185.85 385.249 198.147 366.341 198.147C364.791 198.147 363.242 198.066 361.7 197.904C345.71 196.165 330.977 185.769 316.648 165.948C278.852 113.808 225.552 102.825 182.73 94.0071H182.588C176.731 92.7936 171.199 91.661 165.828 90.4475C142.153 85.3315 120.682 72.9307 104.442 54.9926C107.624 71.4357 113.096 85.3305 120.797 96.1308C121.787 97.5527 122.401 99.2012 122.582 100.923C122.762 102.645 122.504 104.385 121.831 105.98C121.154 107.578 120.078 108.975 118.704 110.038C117.331 111.101 115.707 111.793 113.988 112.048H113.785C127.728 125.397 147.69 145.319 167.612 166.757C238.806 243.351 238.806 265.295 238.806 272.515C238.806 286.673 228.167 301.478 209.603 313.29C198.335 320.416 185.908 325.529 172.881 328.398C177.473 329.816 182.261 330.498 187.067 330.42C200.544 330.42 215.237 325.506 230.761 315.777L231.065 315.595C243.366 308.456 254.695 304.815 264.747 304.815C267.36 304.811 269.967 305.069 272.529 305.584C278.706 306.653 284.337 309.784 288.499 314.463L288.661 314.685L272.712 327.225C270.471 325.611 267.722 324.857 264.97 325.101C260.471 325.101 252.689 326.476 241.38 333.05C222.594 344.76 204.374 350.706 187.209 350.706C176.664 350.873 166.25 348.353 156.952 343.385C146.231 337.439 139.584 328.782 139.584 320.773C139.584 318.091 140.651 315.519 142.552 313.622C144.452 311.726 147.029 310.66 149.717 310.66C167.059 310.465 184.006 305.458 198.659 296.199C210.819 288.534 218.5 279.23 218.5 272.515C218.5 266.145 212.076 244.443 152.736 180.571C119.439 144.732 86.1827 113.828 84.7843 112.453C83.3897 111.15 82.3926 109.48 81.9078 107.636C81.4231 105.792 81.4705 103.849 82.0446 102.031C82.6188 100.212 83.6962 98.593 85.1527 97.3595C86.6092 96.1259 88.3854 95.3284 90.2764 95.0588L96.113 94.2094C77.2656 56.287 81.4607 11.1239 81.6633 9.2632C81.8663 6.82256 82.9499 4.53835 84.7129 2.83474C86.4758 1.13113 88.7983 0.123879 91.2492 2.45734e-05H91.7153C94.0548 -0.00512029 96.3239 0.797756 98.1377 2.27239C99.9515 3.74702 101.198 5.80256 101.666 8.09014C108.739 44.172 146.596 65.2265 170.287 70.6065C175.516 71.7795 180.987 72.9122 186.783 74.1054C230.599 83.1259 290.607 95.4836 333.023 153.995C343.643 168.659 353.999 176.627 363.828 177.679C364.662 177.777 365.501 177.824 366.341 177.821C375.825 177.821 386.607 171.955 401.381 158.768C410.055 151.002 418.992 147.058 427.889 147.058C430.007 147.06 432.12 147.284 434.192 147.725C438.731 148.676 454.458 153.49 464.591 175.677C466.413 179.208 468.978 182.306 472.109 184.758C474.07 186.173 475.458 188.242 476.023 190.59C476.588 192.939 476.293 195.411 475.19 197.561Z" fill="#09328B"/>
</svg>
