<svg width="225" height="192" viewBox="0 0 225 192" fill="none" xmlns="http://www.w3.org/2000/svg">
<g clip-path="url(#clip0_576_914)">
<path d="M111.847 166.072C95.0848 180.375 75.8473 186.862 66.7873 186.862C65.4981 186.892 64.2117 186.73 62.9698 186.382C61.8238 186.098 60.7794 185.5 59.9531 184.657C59.1267 183.813 58.5509 182.757 58.2898 181.605C58.0251 180.363 58.2642 179.066 58.9547 178C59.6452 176.935 60.7305 176.186 61.9723 175.92C62.6398 175.777 63.2998 175.612 63.9523 175.44C64.6993 175.934 65.4902 176.358 66.3148 176.707C69.538 177.946 72.973 178.54 76.4248 178.455C80.2417 178.418 84.0417 177.943 87.7498 177.037C96.3768 174.863 104.54 171.148 111.847 166.072ZM81.3073 141.675L81.9748 141.457C85.2349 140.401 88.3493 138.94 91.2448 137.107L91.3723 137.025C87.9898 131.467 79.5448 121.275 58.8748 103.237C41.4448 88.0125 23.9398 74.8125 23.7673 74.6775C22.672 73.8491 21.812 72.7489 21.2726 71.4859C20.7333 70.2229 20.5333 68.8409 20.6924 67.4768C20.8516 66.1128 21.3643 64.8139 22.18 63.709C22.9956 62.6041 24.0857 61.7314 25.3423 61.1775C25.1623 60.855 24.9973 60.5325 24.8323 60.21C24.7873 60.1275 24.7498 60.045 24.7048 59.97L24.2998 59.16L24.2173 58.995C23.8798 58.2975 23.5498 57.6075 23.2423 56.91C16.2298 52.5 11.3473 46.65 9.17985 41.565C8.81544 40.7003 8.20411 39.9623 7.42236 39.4434C6.6406 38.9244 5.72316 38.6476 4.78485 38.6475C4.3723 38.6476 3.96146 38.7005 3.56235 38.805C2.44894 39.1009 1.47798 39.7851 0.824714 40.7341C0.171446 41.683 -0.121108 42.8343 -0.000152336 43.98C0.0973477 44.8875 2.60235 66.2325 14.9998 81.915L12.3823 82.89C11.5395 83.2116 10.8044 83.7642 10.2612 84.4844C9.71808 85.2047 9.38887 86.0634 9.31137 86.9622C9.23386 87.8609 9.41119 88.7633 9.82303 89.5659C10.2349 90.3685 10.8645 91.0388 11.6398 91.5C12.1873 91.8375 61.1923 121.327 81.3073 141.675Z" fill="#C1CCE2"/>
<path d="M106.673 165.75C100.607 169.521 93.9897 172.322 87.0602 174.052C83.578 174.903 80.0096 175.351 76.4252 175.387C73.3858 175.473 70.359 174.964 67.5152 173.887C63.3227 172.102 62.4227 169.215 62.2652 167.655C62.137 166.396 62.5123 165.137 63.309 164.153C64.1057 163.17 65.2592 162.541 66.5177 162.405L67.4177 162.3C68.9095 163.689 70.567 164.888 72.3527 165.87C77.2903 168.529 82.8254 169.881 88.4327 169.8C94.7249 169.704 100.931 168.326 106.673 165.75ZM94.5002 135.247C96.2916 133.918 97.8179 132.264 99.0002 130.372C99.2666 129.961 99.4359 129.494 99.4952 129.007C99.4952 128.13 98.6477 119.512 69.4052 87.99C53.8277 71.1375 38.2052 56.5425 37.5527 55.935C36.5072 54.9633 35.7238 53.7435 35.275 52.3886C34.8262 51.0337 34.7266 49.5874 34.9853 48.1838C35.2441 46.7801 35.8528 45.4644 36.7552 44.3586C37.6576 43.2527 38.8245 42.3925 40.1477 41.8575C39.3977 40.005 38.7602 38.1075 38.2052 36.2775C33.2702 31.56 30.2627 26.355 29.0102 22.2975C28.6714 21.2011 27.951 20.2624 26.9796 19.6515C26.0082 19.0406 24.8501 18.798 23.7152 18.9675C22.5825 19.151 21.5522 19.7318 20.8087 20.6058C20.0652 21.4798 19.6572 22.59 19.6577 23.7375C19.6577 24.66 19.9352 46.14 30.6527 63.045L27.9452 63.75C27.0736 63.9783 26.2836 64.4469 25.6655 65.1025C25.0474 65.7581 24.6259 66.5742 24.4492 67.4578C24.2725 68.3413 24.3476 69.2567 24.6661 70.0996C24.9845 70.9425 25.5334 71.679 26.2502 72.225C26.4227 72.3525 44.0927 85.725 61.5002 100.927C82.2002 118.987 90.9152 129.405 94.5002 135.247Z" fill="#6B84B8"/>
<path d="M224.475 93.525C223.964 94.5463 223.102 95.3493 222.047 95.7872C220.992 96.2252 219.815 96.2687 218.73 95.91C216.827 95.1991 214.832 94.7647 212.805 94.62C212.242 94.5751 211.678 94.7061 211.193 94.995C209.745 95.94 208.065 99.2175 205.943 103.38C202.182 111.02 197.826 118.353 192.915 125.31C184.973 136.508 175.035 145.928 165.428 155.04C153.248 166.59 141.743 177.503 135.3 190.95L135.158 191.25H124.748L125.04 190.5C131.918 173.595 145.613 160.612 158.858 148.05C168.128 139.253 177.72 130.163 185.108 119.723C189.746 113.145 193.866 106.217 197.43 99C201.083 91.8375 203.76 86.5875 209.805 85.335C208.733 83.535 206.25 79.9575 203.16 79.335C202.846 79.2721 202.527 79.2395 202.208 79.2375C200.363 79.2375 198.27 80.28 195.983 82.3275C189.653 87.9975 181.98 93.7875 173.055 93.7875C172.318 93.7889 171.582 93.7488 170.85 93.6675C163.298 92.85 156.338 87.9075 149.573 78.5475C131.715 53.8575 106.538 48.6675 86.3026 44.49H86.2501C83.4826 43.9125 80.8726 43.38 78.3376 42.8025C67.1499 40.3832 57.0018 34.5183 49.3201 26.0325C50.8201 33.8175 53.4076 40.3575 57.0451 45.5325C57.514 46.202 57.8041 46.9801 57.888 47.7932C57.9719 48.6062 57.8468 49.4272 57.5246 50.1783C57.2023 50.9295 56.6936 51.5859 56.0466 52.0854C55.3997 52.5849 54.6359 52.9109 53.8276 53.0325H53.7301C60.2701 59.37 69.7426 68.7825 79.1626 78.9375C112.793 115.2 112.793 125.588 112.793 129C112.793 135.667 107.768 142.702 99.0001 148.305C93.6775 151.679 87.8069 154.097 81.6526 155.452C83.8226 156.142 86.0882 156.484 88.3651 156.465C94.7251 156.465 101.678 154.125 109.005 149.527L109.148 149.445C114.96 146.055 120.315 144.337 125.063 144.337C126.297 144.337 127.528 144.46 128.738 144.705C133.538 145.695 135.863 148.38 136.283 148.913L136.358 149.003L128.858 154.943C128.475 154.613 127.425 153.945 125.198 153.945C122.97 153.945 119.4 154.597 114.053 157.695C105.18 163.253 96.5701 166.065 88.4626 166.065C83.4806 166.143 78.5609 164.951 74.1676 162.6C69.1051 159.78 65.9626 155.678 65.9626 151.89C65.9626 150.622 66.4655 149.405 67.361 148.506C68.2565 147.608 69.4717 147.101 70.7401 147.098C78.9329 147 86.9377 144.629 93.8626 140.25C99.5476 136.613 103.23 132.21 103.23 129C103.23 126 100.23 115.702 72.1576 85.5C56.4076 68.5425 40.7176 53.8725 40.0576 53.25C39.3995 52.6337 38.9282 51.8446 38.6978 50.9729C38.4675 50.1012 38.4872 49.1822 38.7549 48.3212C39.0226 47.4603 39.5274 46.6921 40.2114 46.1047C40.8954 45.5173 41.7311 45.1345 42.6226 45L45.3901 44.595C36.4801 26.6175 38.4676 5.25 38.5501 4.3275C38.665 3.18314 39.1856 2.11769 40.0179 1.32393C40.8502 0.530171 41.9391 0.0605346 43.0876 0L43.3126 0C44.4205 0.00497512 45.4926 0.393072 46.347 1.09845C47.2014 1.80383 47.7855 2.78305 48.0001 3.87C51.3451 20.91 69.2251 30.87 80.4226 33.42C82.8976 33.9825 85.4851 34.515 88.2226 35.0775C108.923 39.3525 137.273 45.195 157.305 72.9C162.323 79.8375 167.22 83.61 171.87 84.15C172.263 84.1951 172.659 84.2177 173.055 84.2175C177.555 84.2175 182.633 81.435 189.6 75.2175C193.71 71.5425 197.925 69.6825 202.125 69.6825C203.133 69.6827 204.138 69.7857 205.125 69.99C207.278 70.44 214.665 72.7275 219.48 83.2275C220.343 84.8983 221.556 86.3639 223.035 87.525C223.945 88.1944 224.588 89.1639 224.851 90.2619C225.115 91.3599 224.982 92.5158 224.475 93.525Z" fill="#09328B"/>
</g>
<defs>
<clipPath id="clip0_576_914">
<rect width="225" height="191.25" fill="white"/>
</clipPath>
</defs>
</svg>
