
<svg version="1.1" id="Layer_1" xmlns="http://www.w3.org/2000/svg" xmlns:xlink="http://www.w3.org/1999/xlink" x="0px" y="0px"
	 viewBox="0 0 120.78 117.79" style="enable-background:new 0 0 120.78 117.79;" xml:space="preserve">
<style type="text/css">
	.st0{fill-rule:evenodd;clip-rule:evenodd;fill:#191717;}
	.st1{fill-rule:evenodd;clip-rule:evenodd;fill:#263C85;}
	.st2{fill:#191717;}
	.st3{fill:none;stroke:#1981BC;stroke-linecap:round;stroke-miterlimit:10;}
	.st4{fill:none;stroke:#1981BC;stroke-linecap:round;stroke-miterlimit:10;stroke-dasharray:0.9999,1.9999;}
	.st5{fill:#0072BC;}
	.st6{fill-rule:evenodd;clip-rule:evenodd;fill:#FFFFFF;}
	.st7{fill:#FFFFFF;}
	.st8{fill:#FFFFFF;stroke:#000000;stroke-miterlimit:10;}
</style>
<rect x="-290.22" y="217.57" width="530.97" height="275.99"/>
<path class="st0" d="M-137.61,49.01c-8.99,0-16.29,7.29-16.29,16.29c0,7.2,4.67,13.3,11.14,15.46c0.81,0.15,1.11-0.35,1.11-0.79
	c0-0.39-0.01-1.41-0.02-2.77c-4.53,0.98-5.49-2.18-5.49-2.18c-0.74-1.88-1.81-2.38-1.81-2.38c-1.48-1.01,0.11-0.99,0.11-0.99
	c1.63,0.12,2.5,1.68,2.5,1.68c1.45,2.49,3.81,1.77,4.74,1.35c0.15-1.05,0.57-1.77,1.03-2.18c-3.62-0.41-7.42-1.81-7.42-8.05
	c0-1.78,0.63-3.23,1.68-4.37c-0.17-0.41-0.73-2.07,0.16-4.31c0,0,1.37-0.44,4.48,1.67c1.3-0.36,2.69-0.54,4.08-0.55
	c1.38,0.01,2.78,0.19,4.08,0.55c3.11-2.11,4.48-1.67,4.48-1.67c0.89,2.24,0.33,3.9,0.16,4.31c1.04,1.14,1.67,2.59,1.67,4.37
	c0,6.26-3.81,7.63-7.44,8.04c0.58,0.5,1.11,1.5,1.11,3.02c0,2.18-0.02,3.93-0.02,4.47c0,0.44,0.29,0.94,1.12,0.78
	c6.47-2.16,11.13-8.26,11.13-15.45C-121.32,56.3-128.62,49.01-137.61,49.01z"/>
<g>
	<path class="st1" d="M60.39,0C27.04,0,0,27.04,0,60.39c0,26.68,17.3,49.32,41.3,57.3c3.02,0.56,4.13-1.31,4.13-2.91
		c0-1.44-0.06-6.2-0.08-11.24C28.54,107.19,25,96.42,25,96.42c-2.75-6.98-6.7-8.84-6.7-8.84c-5.48-3.75,0.41-3.67,0.41-3.67
		c6.06,0.43,9.26,6.22,9.26,6.22c5.39,9.23,14.13,6.56,17.57,5.02c0.54-3.9,2.11-6.57,3.83-8.08c-13.41-1.53-27.51-6.71-27.51-29.84
		c0-6.59,2.36-11.98,6.22-16.21c-0.63-1.52-2.69-7.66,0.58-15.98c0,0,5.07-1.62,16.61,6.19c4.82-1.34,9.98-2.01,15.12-2.03
		c5.13,0.02,10.3,0.69,15.13,2.03c11.53-7.81,16.59-6.19,16.59-6.19c3.29,8.32,1.22,14.46,0.59,15.98
		c3.87,4.23,6.21,9.62,6.21,16.21c0,23.19-14.13,28.3-27.57,29.8c2.17,1.87,4.1,5.55,4.1,11.18c0,8.08-0.07,14.58-0.07,16.57
		c0,1.61,1.09,3.49,4.15,2.9c23.98-7.99,41.26-30.62,41.26-57.29C120.78,27.04,93.74,0,60.39,0z"/>
	<path class="st2" d="M22.87,86.7c-0.13,0.3-0.61,0.39-1.04,0.18c-0.44-0.2-0.68-0.61-0.54-0.91c0.13-0.31,0.6-0.39,1.04-0.19
		C22.77,85.99,23.02,86.4,22.87,86.7L22.87,86.7z M22.13,86.15"/>
	<path class="st2" d="M25.32,89.43c-0.29,0.27-0.85,0.14-1.23-0.28c-0.4-0.42-0.47-0.98-0.18-1.25c0.3-0.27,0.84-0.14,1.24,0.28
		C25.54,88.6,25.62,89.16,25.32,89.43L25.32,89.43z M24.74,88.81"/>
	<path class="st2" d="M27.7,92.91c-0.37,0.26-0.98,0.02-1.35-0.52c-0.37-0.54-0.37-1.18,0.01-1.44c0.37-0.26,0.97-0.03,1.35,0.51
		C28.08,92,28.08,92.65,27.7,92.91L27.7,92.91z M27.7,92.91"/>
	<path class="st2" d="M30.96,96.27c-0.33,0.37-1.04,0.27-1.55-0.23c-0.53-0.49-0.67-1.18-0.34-1.54c0.34-0.37,1.04-0.26,1.56,0.23
		C31.15,95.21,31.31,95.91,30.96,96.27L30.96,96.27z M30.96,96.27"/>
	<path class="st2" d="M35.46,98.22c-0.15,0.47-0.83,0.69-1.51,0.49c-0.68-0.21-1.13-0.76-0.99-1.24c0.14-0.48,0.82-0.7,1.51-0.49
		C35.16,97.19,35.6,97.74,35.46,98.22L35.46,98.22z M35.46,98.22"/>
	<path class="st2" d="M40.4,98.58c0.02,0.5-0.56,0.91-1.28,0.92c-0.72,0.02-1.31-0.39-1.31-0.88c0-0.5,0.57-0.91,1.29-0.92
		C39.81,97.69,40.4,98.09,40.4,98.58L40.4,98.58z M40.4,98.58"/>
	<path class="st2" d="M45,97.8c0.09,0.49-0.41,0.98-1.13,1.12c-0.7,0.13-1.35-0.17-1.44-0.65c-0.09-0.5,0.42-1,1.12-1.13
		C44.27,97.01,44.91,97.31,45,97.8L45,97.8z M45,97.8"/>
</g>
<g>
	<g>
		<line class="st3" x1="-65.32" y1="-5.93" x2="-65.32" y2="-5.43"/>
		<line class="st4" x1="-65.32" y1="-3.43" x2="-65.32" y2="130.56"/>
		<line class="st3" x1="-65.32" y1="131.56" x2="-65.32" y2="132.06"/>
	</g>
</g>
<g>
	<path class="st5" d="M-156.95,146.08c-0.38-0.28-0.87-0.41-1.46-0.41c-0.24,0-0.48,0.02-0.71,0.07c-0.23,0.05-0.44,0.13-0.62,0.24
		c-0.18,0.11-0.32,0.26-0.43,0.45c-0.11,0.19-0.16,0.42-0.16,0.7c0,0.26,0.08,0.48,0.23,0.64c0.16,0.16,0.36,0.3,0.62,0.4
		c0.26,0.1,0.55,0.19,0.88,0.26c0.33,0.07,0.66,0.14,1,0.22c0.34,0.08,0.67,0.17,1,0.28c0.33,0.11,0.62,0.25,0.88,0.44
		c0.26,0.18,0.47,0.42,0.62,0.7c0.16,0.28,0.23,0.63,0.23,1.06c0,0.46-0.1,0.85-0.31,1.17c-0.2,0.32-0.47,0.59-0.79,0.79
		c-0.32,0.2-0.68,0.35-1.07,0.44c-0.4,0.09-0.79,0.14-1.18,0.14c-0.48,0-0.93-0.06-1.36-0.18c-0.43-0.12-0.8-0.3-1.13-0.55
		c-0.32-0.24-0.58-0.56-0.77-0.94c-0.19-0.38-0.28-0.83-0.28-1.35h1.08c0,0.36,0.07,0.67,0.21,0.93c0.14,0.26,0.32,0.47,0.55,0.64
		c0.23,0.17,0.49,0.29,0.8,0.37c0.3,0.08,0.62,0.12,0.94,0.12c0.26,0,0.51-0.02,0.77-0.07c0.26-0.05,0.49-0.13,0.7-0.25
		c0.21-0.12,0.38-0.27,0.5-0.47c0.13-0.2,0.19-0.46,0.19-0.77c0-0.3-0.08-0.54-0.23-0.72c-0.16-0.18-0.36-0.33-0.62-0.45
		c-0.26-0.12-0.55-0.21-0.88-0.28c-0.33-0.07-0.66-0.15-1-0.22c-0.34-0.08-0.67-0.16-1-0.26c-0.33-0.1-0.62-0.23-0.88-0.4
		c-0.26-0.16-0.47-0.38-0.62-0.64c-0.16-0.26-0.23-0.59-0.23-0.98c0-0.43,0.09-0.81,0.26-1.12c0.18-0.32,0.41-0.58,0.7-0.78
		c0.29-0.2,0.62-0.36,1-0.46c0.37-0.1,0.75-0.15,1.15-0.15c0.44,0,0.85,0.05,1.22,0.16c0.38,0.1,0.71,0.27,0.99,0.49
		c0.28,0.22,0.51,0.51,0.67,0.85c0.16,0.34,0.25,0.75,0.27,1.22h-1.08C-156.34,146.8-156.57,146.35-156.95,146.08z"/>
	<path class="st5" d="M-152.67,147.27v0.91h0.02c0.46-0.71,1.13-1.06,2-1.06c0.38,0,0.73,0.08,1.04,0.24
		c0.31,0.16,0.53,0.43,0.66,0.82c0.21-0.34,0.48-0.6,0.82-0.78c0.34-0.18,0.71-0.28,1.12-0.28c0.31,0,0.59,0.03,0.85,0.1
		c0.25,0.07,0.47,0.17,0.65,0.32c0.18,0.14,0.32,0.33,0.42,0.56c0.1,0.23,0.15,0.5,0.15,0.82v4.55h-1.02v-4.07
		c0-0.19-0.02-0.37-0.05-0.54c-0.03-0.17-0.09-0.31-0.18-0.44c-0.09-0.12-0.21-0.22-0.37-0.29c-0.16-0.07-0.36-0.11-0.61-0.11
		c-0.5,0-0.9,0.14-1.19,0.43c-0.29,0.29-0.43,0.67-0.43,1.15v3.86h-1.02v-4.07c0-0.2-0.02-0.38-0.05-0.55
		c-0.04-0.17-0.1-0.31-0.19-0.44c-0.09-0.12-0.21-0.22-0.35-0.29c-0.15-0.07-0.34-0.1-0.57-0.1c-0.3,0-0.55,0.06-0.76,0.18
		c-0.21,0.12-0.38,0.26-0.52,0.43c-0.13,0.17-0.23,0.34-0.29,0.52c-0.06,0.18-0.09,0.33-0.09,0.45v3.86h-1.02v-6.2H-152.67z"/>
	<path class="st5" d="M-138.63,153.61c-0.26,0-0.47-0.07-0.63-0.22c-0.16-0.15-0.23-0.39-0.23-0.73c-0.28,0.34-0.61,0.58-0.98,0.73
		c-0.37,0.15-0.77,0.22-1.21,0.22c-0.28,0-0.54-0.03-0.79-0.09c-0.25-0.06-0.47-0.16-0.65-0.3c-0.19-0.14-0.34-0.32-0.44-0.54
		c-0.11-0.22-0.16-0.49-0.16-0.8c0-0.35,0.06-0.64,0.18-0.86c0.12-0.22,0.28-0.41,0.47-0.55c0.2-0.14,0.42-0.25,0.67-0.32
		c0.25-0.07,0.51-0.13,0.77-0.18c0.28-0.06,0.55-0.1,0.8-0.12c0.25-0.03,0.47-0.07,0.67-0.12c0.19-0.05,0.34-0.13,0.46-0.23
		c0.11-0.1,0.17-0.25,0.17-0.44c0-0.22-0.04-0.4-0.13-0.54c-0.08-0.14-0.19-0.24-0.32-0.31c-0.13-0.07-0.28-0.12-0.44-0.14
		c-0.16-0.02-0.33-0.04-0.49-0.04c-0.43,0-0.79,0.08-1.08,0.25c-0.29,0.16-0.44,0.47-0.47,0.93h-1.02c0.02-0.38,0.1-0.71,0.24-0.97
		c0.14-0.26,0.34-0.48,0.58-0.64c0.24-0.16,0.52-0.28,0.83-0.35c0.31-0.07,0.64-0.11,0.98-0.11c0.28,0,0.56,0.02,0.83,0.06
		c0.28,0.04,0.53,0.12,0.75,0.25c0.22,0.12,0.4,0.3,0.54,0.52c0.14,0.22,0.2,0.52,0.2,0.88v3.19c0,0.24,0.01,0.42,0.04,0.53
		c0.03,0.11,0.12,0.17,0.28,0.17c0.09,0,0.19-0.02,0.31-0.06v0.79C-138.07,153.55-138.32,153.61-138.63,153.61z M-140.06,150.48
		c-0.21,0.04-0.43,0.08-0.65,0.11c-0.23,0.03-0.46,0.06-0.69,0.1c-0.23,0.04-0.44,0.09-0.62,0.17c-0.18,0.08-0.33,0.19-0.45,0.34
		c-0.12,0.15-0.17,0.35-0.17,0.61c0,0.17,0.03,0.31,0.1,0.43c0.07,0.12,0.16,0.21,0.26,0.28c0.11,0.07,0.24,0.12,0.38,0.16
		c0.15,0.03,0.3,0.05,0.45,0.05c0.34,0,0.62-0.04,0.86-0.14c0.24-0.09,0.44-0.21,0.59-0.35c0.15-0.14,0.26-0.29,0.34-0.46
		c0.07-0.16,0.11-0.32,0.11-0.46v-1.04C-139.68,150.37-139.85,150.44-140.06,150.48z"/>
	<path class="st5" d="M-135.87,144.91v8.57h-1.02v-8.57H-135.87z"/>
	<path class="st5" d="M-133.2,144.91v8.57h-1.02v-8.57H-133.2z"/>
	<path class="st5" d="M-188.37,162.57v-0.9h1.04v-0.92c0-0.5,0.15-0.89,0.44-1.15c0.29-0.26,0.72-0.39,1.28-0.39
		c0.1,0,0.21,0.01,0.33,0.02c0.12,0.02,0.23,0.04,0.33,0.07v0.89c-0.09-0.03-0.18-0.05-0.29-0.07c-0.1-0.01-0.2-0.02-0.29-0.02
		c-0.25,0-0.44,0.05-0.58,0.14c-0.14,0.1-0.2,0.28-0.2,0.55v0.86h1.2v0.9h-1.2v5.3h-1.02v-5.3H-188.37z"/>
	<path class="st5" d="M-184.34,163.5c0.13-0.4,0.32-0.74,0.58-1.03c0.26-0.29,0.57-0.52,0.95-0.69c0.38-0.17,0.81-0.25,1.3-0.25
		c0.5,0,0.93,0.08,1.3,0.25c0.37,0.17,0.69,0.4,0.94,0.69c0.26,0.29,0.45,0.64,0.58,1.03c0.13,0.4,0.19,0.82,0.19,1.28
		c0,0.46-0.06,0.88-0.19,1.27c-0.13,0.39-0.32,0.73-0.58,1.03c-0.26,0.29-0.57,0.52-0.94,0.68c-0.37,0.16-0.81,0.25-1.3,0.25
		c-0.49,0-0.92-0.08-1.3-0.25c-0.38-0.16-0.69-0.39-0.95-0.68c-0.26-0.29-0.45-0.63-0.58-1.03c-0.13-0.39-0.19-0.82-0.19-1.27
		C-184.53,164.32-184.46,163.89-184.34,163.5z M-183.3,165.78c0.1,0.29,0.24,0.54,0.41,0.73c0.18,0.2,0.38,0.35,0.62,0.45
		c0.24,0.1,0.49,0.16,0.75,0.16c0.26,0,0.51-0.05,0.75-0.16c0.24-0.1,0.44-0.25,0.62-0.45c0.18-0.2,0.31-0.44,0.41-0.73
		c0.1-0.29,0.15-0.63,0.15-1c0-0.38-0.05-0.71-0.15-1c-0.1-0.29-0.24-0.54-0.41-0.74c-0.18-0.2-0.38-0.35-0.62-0.46
		c-0.24-0.1-0.49-0.16-0.75-0.16c-0.26,0-0.51,0.05-0.75,0.16c-0.24,0.1-0.44,0.26-0.62,0.46c-0.18,0.2-0.31,0.45-0.41,0.74
		c-0.1,0.29-0.15,0.62-0.15,1C-183.45,165.15-183.4,165.49-183.3,165.78z"/>
	<path class="st5" d="M-176.38,161.67v1.31h0.02c0.25-0.5,0.55-0.88,0.91-1.12c0.36-0.24,0.82-0.35,1.37-0.34v1.08
		c-0.41,0-0.76,0.06-1.04,0.17c-0.29,0.11-0.52,0.28-0.7,0.49c-0.18,0.21-0.3,0.48-0.38,0.79c-0.08,0.31-0.12,0.66-0.12,1.06v2.76
		h-1.02v-6.2H-176.38z"/>
	<path class="st5" d="M-167.49,167.87v-6.1h-2.21v-0.82c0.29,0,0.57-0.02,0.84-0.07c0.27-0.04,0.52-0.12,0.74-0.25
		c0.22-0.12,0.41-0.28,0.56-0.49c0.15-0.21,0.26-0.47,0.31-0.79h0.78v8.51H-167.49z"/>
	<path class="st5" d="M-159.54,160.61c-0.25-0.23-0.58-0.35-0.98-0.35c-0.43,0-0.78,0.11-1.04,0.32c-0.26,0.21-0.47,0.48-0.62,0.8
		c-0.15,0.32-0.25,0.67-0.31,1.05c-0.06,0.38-0.09,0.73-0.1,1.06l0.02,0.02c0.24-0.39,0.54-0.68,0.89-0.85
		c0.36-0.18,0.77-0.26,1.23-0.26c0.41,0,0.77,0.07,1.1,0.21c0.32,0.14,0.6,0.33,0.82,0.58c0.22,0.25,0.39,0.54,0.51,0.88
		c0.12,0.34,0.18,0.7,0.18,1.09c0,0.31-0.05,0.64-0.14,0.97c-0.1,0.34-0.25,0.64-0.47,0.92c-0.22,0.28-0.51,0.5-0.88,0.68
		c-0.36,0.18-0.81,0.27-1.35,0.27c-0.63,0-1.14-0.13-1.52-0.38c-0.38-0.26-0.68-0.58-0.89-0.98c-0.21-0.4-0.35-0.84-0.41-1.32
		c-0.07-0.48-0.1-0.94-0.1-1.39c0-0.58,0.05-1.15,0.15-1.7c0.1-0.55,0.27-1.03,0.51-1.46c0.24-0.42,0.56-0.76,0.96-1.02
		c0.4-0.26,0.9-0.38,1.51-0.38c0.7,0,1.26,0.19,1.68,0.56s0.66,0.91,0.72,1.61h-1.02C-159.15,161.15-159.3,160.85-159.54,160.61z
		 M-161.39,163.45c-0.22,0.1-0.4,0.24-0.55,0.41c-0.15,0.17-0.27,0.38-0.34,0.61c-0.08,0.24-0.11,0.49-0.11,0.75
		c0,0.26,0.04,0.51,0.12,0.74c0.08,0.23,0.19,0.43,0.34,0.6c0.15,0.17,0.33,0.3,0.55,0.4c0.22,0.1,0.47,0.15,0.75,0.15
		c0.28,0,0.53-0.05,0.74-0.15c0.21-0.1,0.39-0.24,0.53-0.41c0.14-0.18,0.25-0.38,0.33-0.61c0.08-0.23,0.11-0.47,0.11-0.71
		c0-0.26-0.03-0.51-0.1-0.75c-0.07-0.24-0.17-0.44-0.32-0.61c-0.14-0.17-0.32-0.31-0.54-0.41c-0.22-0.1-0.47-0.16-0.76-0.16
		S-161.18,163.35-161.39,163.45z"/>
	<path class="st5" d="M-155.57,161.67v0.84h0.02c0.17-0.34,0.43-0.59,0.79-0.75c0.36-0.16,0.76-0.23,1.19-0.23
		c0.48,0,0.9,0.09,1.25,0.26c0.36,0.18,0.65,0.41,0.89,0.71c0.24,0.3,0.41,0.65,0.53,1.04c0.12,0.39,0.18,0.81,0.18,1.25
		c0,0.44-0.06,0.86-0.17,1.25c-0.12,0.39-0.29,0.73-0.53,1.03c-0.24,0.29-0.53,0.52-0.89,0.69c-0.36,0.17-0.77,0.25-1.24,0.25
		c-0.15,0-0.32-0.02-0.51-0.05c-0.19-0.03-0.37-0.08-0.56-0.16c-0.18-0.07-0.36-0.17-0.52-0.29c-0.16-0.12-0.3-0.28-0.41-0.46h-0.02
		v3.19h-1.02v-8.57H-155.57z M-151.91,163.87c-0.08-0.28-0.19-0.52-0.35-0.74c-0.16-0.22-0.36-0.39-0.6-0.52
		c-0.24-0.13-0.53-0.19-0.86-0.19c-0.34,0-0.64,0.07-0.88,0.2c-0.24,0.14-0.44,0.31-0.59,0.53c-0.15,0.22-0.26,0.47-0.33,0.75
		c-0.07,0.28-0.1,0.56-0.1,0.85c0,0.3,0.04,0.6,0.11,0.88c0.07,0.29,0.19,0.54,0.34,0.75c0.16,0.22,0.36,0.39,0.61,0.52
		c0.25,0.13,0.55,0.2,0.9,0.2c0.35,0,0.65-0.07,0.88-0.2c0.24-0.14,0.43-0.32,0.57-0.54c0.14-0.22,0.25-0.48,0.31-0.77
		c0.06-0.29,0.1-0.58,0.1-0.89C-151.79,164.43-151.83,164.15-151.91,163.87z"/>
	<path class="st5" d="M-150,161.67h1.31l1.49,2.17l1.55-2.17h1.22l-2.14,2.86l2.4,3.35h-1.31l-1.73-2.57l-1.73,2.57h-1.24l2.33-3.26
		L-150,161.67z"/>
	<path class="st5" d="M-140,164.06v0.96h-3.47v-0.96H-140z"/>
	<path class="st5" d="M-136.14,167.87v-6.1h-2.21v-0.82c0.29,0,0.57-0.02,0.84-0.07c0.27-0.04,0.52-0.12,0.74-0.25
		c0.22-0.12,0.41-0.28,0.56-0.49c0.15-0.21,0.26-0.47,0.31-0.79h0.78v8.51H-136.14z"/>
	<path class="st5" d="M-132.06,161.18c0.11-0.37,0.29-0.69,0.52-0.96c0.24-0.27,0.53-0.48,0.88-0.63c0.35-0.15,0.75-0.23,1.2-0.23
		c0.37,0,0.71,0.05,1.04,0.16c0.32,0.11,0.61,0.26,0.85,0.47c0.24,0.2,0.43,0.46,0.57,0.76c0.14,0.3,0.21,0.66,0.21,1.06
		c0,0.38-0.06,0.71-0.17,1c-0.12,0.29-0.27,0.55-0.46,0.77c-0.19,0.23-0.41,0.43-0.66,0.62c-0.25,0.18-0.5,0.36-0.77,0.53
		c-0.26,0.16-0.53,0.32-0.79,0.47c-0.26,0.16-0.51,0.32-0.73,0.5c-0.22,0.18-0.41,0.37-0.56,0.57c-0.16,0.2-0.26,0.44-0.31,0.7h4.37
		v0.9h-5.56c0.04-0.5,0.13-0.93,0.27-1.29c0.14-0.36,0.32-0.67,0.53-0.93c0.22-0.26,0.46-0.5,0.73-0.7c0.27-0.2,0.56-0.39,0.85-0.56
		c0.36-0.22,0.68-0.43,0.95-0.62c0.27-0.19,0.5-0.38,0.68-0.57c0.18-0.19,0.32-0.4,0.41-0.62c0.09-0.22,0.14-0.48,0.14-0.78
		c0-0.23-0.04-0.44-0.13-0.63c-0.09-0.19-0.21-0.35-0.35-0.49c-0.15-0.14-0.32-0.24-0.52-0.31c-0.2-0.07-0.41-0.11-0.64-0.11
		c-0.3,0-0.55,0.06-0.76,0.19c-0.21,0.12-0.39,0.29-0.52,0.49c-0.14,0.2-0.23,0.43-0.29,0.68c-0.06,0.25-0.09,0.51-0.08,0.76h-1.02
		C-132.22,161.95-132.18,161.54-132.06,161.18z"/>
	<path class="st5" d="M-125.52,162.72c0.02-0.34,0.06-0.66,0.12-0.98c0.06-0.32,0.16-0.62,0.28-0.91c0.12-0.29,0.28-0.54,0.49-0.76
		c0.21-0.22,0.47-0.39,0.79-0.52c0.32-0.13,0.69-0.19,1.13-0.19c0.44,0,0.82,0.06,1.13,0.19c0.32,0.13,0.58,0.3,0.79,0.52
		c0.21,0.22,0.37,0.47,0.49,0.76c0.12,0.29,0.21,0.59,0.28,0.91c0.06,0.32,0.1,0.65,0.12,0.98c0.02,0.34,0.02,0.66,0.02,0.97
		s-0.01,0.64-0.02,0.97c-0.02,0.34-0.06,0.66-0.12,0.98c-0.06,0.32-0.16,0.62-0.28,0.91c-0.12,0.29-0.28,0.54-0.49,0.75
		c-0.21,0.22-0.47,0.39-0.78,0.51c-0.31,0.12-0.69,0.19-1.14,0.19c-0.44,0-0.82-0.06-1.13-0.19c-0.32-0.12-0.58-0.29-0.79-0.51
		c-0.21-0.21-0.37-0.46-0.49-0.75c-0.12-0.28-0.21-0.59-0.28-0.91c-0.06-0.32-0.1-0.65-0.12-0.98c-0.02-0.34-0.02-0.66-0.02-0.97
		S-125.54,163.06-125.52,162.72z M-124.44,164.76c0.02,0.4,0.08,0.77,0.19,1.12c0.11,0.35,0.28,0.64,0.52,0.88
		c0.24,0.24,0.58,0.36,1.01,0.36c0.43,0,0.77-0.12,1.01-0.36c0.24-0.24,0.41-0.53,0.52-0.88c0.11-0.35,0.17-0.72,0.19-1.12
		c0.02-0.4,0.03-0.75,0.03-1.07c0-0.21,0-0.44-0.01-0.69c0-0.25-0.02-0.5-0.06-0.76c-0.04-0.25-0.09-0.5-0.16-0.74
		c-0.07-0.24-0.17-0.45-0.3-0.63c-0.13-0.18-0.3-0.33-0.5-0.44c-0.2-0.11-0.44-0.17-0.73-0.17s-0.53,0.06-0.73,0.17
		c-0.2,0.11-0.37,0.26-0.5,0.44c-0.13,0.18-0.23,0.39-0.3,0.63c-0.07,0.24-0.12,0.49-0.16,0.74c-0.04,0.25-0.06,0.5-0.06,0.76
		c0,0.25-0.01,0.48-0.01,0.69C-124.47,164-124.46,164.36-124.44,164.76z"/>
	<path class="st5" d="M-117.56,161.67v0.84h0.02c0.17-0.34,0.43-0.59,0.79-0.75c0.36-0.16,0.76-0.23,1.19-0.23
		c0.48,0,0.9,0.09,1.25,0.26c0.36,0.18,0.65,0.41,0.89,0.71c0.24,0.3,0.41,0.65,0.53,1.04c0.12,0.39,0.18,0.81,0.18,1.25
		c0,0.44-0.06,0.86-0.17,1.25c-0.12,0.39-0.29,0.73-0.53,1.03c-0.24,0.29-0.53,0.52-0.89,0.69c-0.36,0.17-0.77,0.25-1.24,0.25
		c-0.15,0-0.32-0.02-0.51-0.05c-0.19-0.03-0.37-0.08-0.56-0.16c-0.18-0.07-0.36-0.17-0.52-0.29c-0.16-0.12-0.3-0.28-0.41-0.46h-0.02
		v3.19h-1.02v-8.57H-117.56z M-113.89,163.87c-0.08-0.28-0.19-0.52-0.35-0.74c-0.16-0.22-0.36-0.39-0.6-0.52
		c-0.24-0.13-0.53-0.19-0.86-0.19c-0.34,0-0.64,0.07-0.88,0.2c-0.24,0.14-0.44,0.31-0.59,0.53c-0.15,0.22-0.26,0.47-0.33,0.75
		c-0.07,0.28-0.1,0.56-0.1,0.85c0,0.3,0.04,0.6,0.11,0.88c0.07,0.29,0.19,0.54,0.34,0.75c0.16,0.22,0.36,0.39,0.61,0.52
		c0.25,0.13,0.55,0.2,0.9,0.2c0.35,0,0.65-0.07,0.88-0.2c0.24-0.14,0.43-0.32,0.57-0.54c0.14-0.22,0.25-0.48,0.31-0.77
		c0.06-0.29,0.1-0.58,0.1-0.89C-113.78,164.43-113.81,164.15-113.89,163.87z"/>
	<path class="st5" d="M-111.99,161.67h1.31l1.49,2.17l1.55-2.17h1.22l-2.14,2.86l2.4,3.35h-1.31l-1.73-2.57l-1.73,2.57h-1.24
		l2.33-3.26L-111.99,161.67z"/>
</g>
<g>
	<path class="st5" d="M45.41,144.9v7.61h4.54v0.96h-5.68v-8.57H45.41z"/>
	<path class="st5" d="M55.54,153.6c-0.26,0-0.47-0.07-0.63-0.22c-0.16-0.15-0.23-0.39-0.23-0.73c-0.28,0.34-0.61,0.58-0.98,0.73
		c-0.37,0.15-0.77,0.22-1.21,0.22c-0.28,0-0.54-0.03-0.79-0.09c-0.25-0.06-0.47-0.16-0.65-0.3c-0.19-0.14-0.34-0.32-0.44-0.54
		c-0.11-0.22-0.16-0.49-0.16-0.8c0-0.35,0.06-0.64,0.18-0.86c0.12-0.22,0.28-0.41,0.47-0.54c0.2-0.14,0.42-0.25,0.67-0.32
		c0.25-0.07,0.51-0.13,0.77-0.18c0.28-0.06,0.55-0.1,0.8-0.13c0.25-0.03,0.47-0.07,0.67-0.12c0.19-0.05,0.34-0.13,0.46-0.23
		c0.11-0.1,0.17-0.25,0.17-0.44c0-0.22-0.04-0.4-0.13-0.54c-0.08-0.13-0.19-0.24-0.32-0.31c-0.13-0.07-0.28-0.12-0.44-0.14
		c-0.16-0.02-0.33-0.04-0.49-0.04c-0.43,0-0.79,0.08-1.08,0.25c-0.29,0.16-0.44,0.47-0.47,0.93h-1.02c0.02-0.38,0.1-0.71,0.24-0.97
		c0.14-0.26,0.34-0.48,0.58-0.64c0.24-0.16,0.52-0.28,0.83-0.35c0.31-0.07,0.64-0.11,0.98-0.11c0.28,0,0.56,0.02,0.83,0.06
		c0.28,0.04,0.53,0.12,0.75,0.25c0.22,0.12,0.4,0.3,0.54,0.52c0.14,0.22,0.2,0.52,0.2,0.88v3.19c0,0.24,0.01,0.42,0.04,0.53
		c0.03,0.11,0.12,0.17,0.28,0.17c0.09,0,0.19-0.02,0.31-0.06v0.79C56.1,153.55,55.85,153.6,55.54,153.6z M54.11,150.48
		c-0.21,0.04-0.43,0.08-0.65,0.11c-0.23,0.03-0.46,0.06-0.69,0.1c-0.23,0.04-0.44,0.09-0.62,0.17c-0.18,0.08-0.33,0.2-0.45,0.34
		c-0.12,0.15-0.17,0.35-0.17,0.61c0,0.17,0.03,0.31,0.1,0.43c0.07,0.12,0.16,0.21,0.26,0.28c0.11,0.07,0.24,0.12,0.38,0.16
		c0.15,0.03,0.3,0.05,0.45,0.05c0.34,0,0.62-0.05,0.86-0.14c0.24-0.09,0.44-0.21,0.59-0.35c0.15-0.14,0.26-0.29,0.34-0.46
		c0.07-0.16,0.11-0.32,0.11-0.46v-1.04C54.49,150.36,54.32,150.43,54.11,150.48z"/>
	<path class="st5" d="M58.14,147.27v1.31h0.02c0.25-0.5,0.55-0.88,0.91-1.12c0.36-0.24,0.82-0.35,1.37-0.34v1.08
		c-0.41,0-0.76,0.06-1.04,0.17c-0.29,0.11-0.52,0.28-0.7,0.49c-0.18,0.22-0.3,0.48-0.38,0.79c-0.08,0.31-0.12,0.66-0.12,1.06v2.76
		h-1.02v-6.21H58.14z"/>
	<path class="st5" d="M65.54,155.22c-0.46,0.5-1.19,0.76-2.18,0.76c-0.29,0-0.58-0.03-0.88-0.1c-0.3-0.06-0.57-0.17-0.82-0.31
		c-0.24-0.14-0.45-0.33-0.61-0.56c-0.16-0.23-0.25-0.52-0.26-0.85h1.02c0.01,0.18,0.07,0.34,0.17,0.47c0.11,0.13,0.24,0.23,0.4,0.31
		c0.16,0.08,0.33,0.14,0.51,0.17c0.18,0.04,0.36,0.05,0.53,0.05c0.34,0,0.62-0.06,0.85-0.17c0.23-0.12,0.42-0.28,0.58-0.48
		c0.15-0.2,0.26-0.45,0.33-0.74c0.07-0.29,0.1-0.6,0.1-0.95v-0.41h-0.02c-0.18,0.38-0.44,0.67-0.8,0.85
		c-0.36,0.18-0.73,0.27-1.13,0.27c-0.46,0-0.87-0.08-1.21-0.25c-0.34-0.17-0.63-0.39-0.87-0.68c-0.23-0.28-0.41-0.62-0.52-1
		c-0.12-0.38-0.17-0.78-0.17-1.21c0-0.37,0.05-0.75,0.14-1.13c0.1-0.39,0.26-0.74,0.48-1.06c0.22-0.32,0.52-0.58,0.89-0.78
		c0.37-0.2,0.82-0.31,1.36-0.31c0.39,0,0.75,0.09,1.08,0.26c0.33,0.17,0.58,0.43,0.77,0.77h0.01v-0.89h0.96v5.68
		C66.23,153.96,66,154.72,65.54,155.22z M64.23,152.43c0.24-0.14,0.43-0.32,0.57-0.55c0.14-0.23,0.25-0.49,0.32-0.77
		c0.07-0.29,0.1-0.58,0.1-0.86c0-0.27-0.03-0.54-0.1-0.8c-0.06-0.26-0.17-0.5-0.31-0.71c-0.14-0.21-0.32-0.38-0.54-0.51
		c-0.22-0.13-0.5-0.19-0.82-0.19c-0.33,0-0.61,0.06-0.84,0.19c-0.23,0.12-0.42,0.29-0.57,0.5c-0.15,0.21-0.26,0.45-0.32,0.72
		c-0.07,0.27-0.1,0.56-0.1,0.85c0,0.28,0.03,0.56,0.08,0.84c0.06,0.28,0.15,0.53,0.29,0.76c0.14,0.23,0.32,0.41,0.54,0.55
		c0.22,0.14,0.5,0.21,0.84,0.21C63.71,152.64,64,152.57,64.23,152.43z"/>
	<path class="st5" d="M72.16,153.08c-0.46,0.35-1.05,0.53-1.75,0.53c-0.5,0-0.93-0.08-1.29-0.24c-0.37-0.16-0.67-0.38-0.92-0.67
		c-0.25-0.29-0.43-0.63-0.56-1.03c-0.12-0.4-0.19-0.84-0.21-1.31c0-0.47,0.07-0.9,0.22-1.29c0.14-0.39,0.35-0.73,0.61-1.02
		c0.26-0.29,0.57-0.51,0.92-0.67c0.36-0.16,0.75-0.24,1.17-0.24c0.55,0,1.01,0.11,1.37,0.34c0.36,0.23,0.66,0.52,0.88,0.87
		c0.22,0.35,0.37,0.74,0.46,1.15c0.08,0.42,0.12,0.81,0.1,1.19h-4.64c-0.01,0.27,0.02,0.53,0.1,0.77c0.07,0.24,0.19,0.46,0.35,0.65
		c0.16,0.19,0.36,0.34,0.61,0.45c0.25,0.11,0.54,0.17,0.88,0.17c0.43,0,0.79-0.1,1.06-0.3c0.28-0.2,0.46-0.5,0.55-0.91h1.01
		C72.92,152.2,72.62,152.72,72.16,153.08z M71.91,149.09c-0.09-0.22-0.21-0.4-0.37-0.56c-0.16-0.16-0.34-0.28-0.55-0.37
		s-0.45-0.14-0.7-0.14c-0.26,0-0.5,0.05-0.71,0.14c-0.21,0.09-0.39,0.22-0.55,0.38c-0.15,0.16-0.27,0.35-0.36,0.56
		c-0.09,0.21-0.14,0.44-0.16,0.68h3.56C72.06,149.54,72,149.31,71.91,149.09z"/>
	<path class="st5" d="M75.14,147.27v1.31h0.02c0.25-0.5,0.55-0.88,0.91-1.12c0.36-0.24,0.82-0.35,1.37-0.34v1.08
		c-0.41,0-0.76,0.06-1.04,0.17c-0.29,0.11-0.52,0.28-0.7,0.49c-0.18,0.22-0.3,0.48-0.38,0.79c-0.08,0.31-0.12,0.66-0.12,1.06v2.76
		h-1.02v-6.21H75.14z"/>
	<path class="st5" d="M28.04,162.57v-0.9h1.04v-0.92c0-0.5,0.15-0.89,0.44-1.15c0.29-0.26,0.72-0.39,1.28-0.39
		c0.1,0,0.21,0.01,0.33,0.02c0.12,0.02,0.23,0.04,0.33,0.07v0.89c-0.09-0.03-0.18-0.05-0.29-0.07c-0.1-0.01-0.2-0.02-0.29-0.02
		c-0.25,0-0.44,0.05-0.58,0.14c-0.14,0.1-0.2,0.28-0.2,0.55v0.86h1.2v0.9h-1.2v5.3h-1.02v-5.3H28.04z"/>
	<path class="st5" d="M32.07,163.5c0.13-0.4,0.32-0.74,0.58-1.03c0.26-0.29,0.57-0.52,0.95-0.69c0.38-0.17,0.81-0.25,1.3-0.25
		c0.5,0,0.93,0.08,1.3,0.25c0.37,0.17,0.69,0.4,0.94,0.69c0.26,0.29,0.45,0.63,0.58,1.03c0.13,0.4,0.19,0.82,0.19,1.28
		c0,0.46-0.06,0.88-0.19,1.27c-0.13,0.39-0.32,0.73-0.58,1.03c-0.26,0.29-0.57,0.52-0.94,0.68c-0.37,0.16-0.81,0.25-1.3,0.25
		c-0.49,0-0.92-0.08-1.3-0.25c-0.38-0.16-0.69-0.39-0.95-0.68c-0.26-0.29-0.45-0.63-0.58-1.03c-0.13-0.39-0.19-0.82-0.19-1.27
		C31.88,164.32,31.94,163.89,32.07,163.5z M33.11,165.78c0.1,0.29,0.24,0.54,0.41,0.73c0.18,0.2,0.38,0.35,0.62,0.45
		c0.24,0.1,0.49,0.16,0.75,0.16c0.26,0,0.51-0.05,0.75-0.16c0.24-0.1,0.44-0.25,0.62-0.45c0.18-0.2,0.31-0.44,0.41-0.73
		c0.1-0.29,0.15-0.62,0.15-1c0-0.38-0.05-0.71-0.15-1c-0.1-0.29-0.24-0.54-0.41-0.74c-0.18-0.2-0.38-0.35-0.62-0.46
		c-0.24-0.1-0.49-0.16-0.75-0.16c-0.26,0-0.51,0.05-0.75,0.16c-0.24,0.1-0.44,0.26-0.62,0.46c-0.18,0.2-0.31,0.45-0.41,0.74
		c-0.1,0.29-0.15,0.63-0.15,1C32.96,165.15,33.01,165.49,33.11,165.78z"/>
	<path class="st5" d="M40.02,161.67v1.31h0.02c0.25-0.5,0.55-0.88,0.91-1.12c0.36-0.24,0.82-0.35,1.37-0.34v1.08
		c-0.41,0-0.76,0.06-1.04,0.17c-0.29,0.11-0.52,0.28-0.7,0.49c-0.18,0.22-0.3,0.48-0.38,0.79c-0.08,0.31-0.12,0.66-0.12,1.06v2.76
		h-1.02v-6.2H40.02z"/>
	<path class="st5" d="M48.92,167.87v-6.1h-2.21v-0.82c0.29,0,0.57-0.02,0.84-0.07c0.27-0.04,0.52-0.13,0.74-0.25
		c0.22-0.12,0.41-0.28,0.56-0.49c0.15-0.21,0.26-0.47,0.31-0.79h0.78v8.51H48.92z"/>
	<path class="st5" d="M53,161.18c0.11-0.37,0.29-0.69,0.52-0.95c0.24-0.27,0.53-0.48,0.88-0.63c0.35-0.15,0.75-0.23,1.2-0.23
		c0.37,0,0.71,0.05,1.04,0.16c0.32,0.11,0.61,0.26,0.85,0.47c0.24,0.2,0.43,0.46,0.57,0.76c0.14,0.3,0.21,0.66,0.21,1.06
		c0,0.38-0.06,0.71-0.17,1c-0.12,0.29-0.27,0.55-0.46,0.77c-0.19,0.23-0.41,0.43-0.66,0.62c-0.25,0.18-0.5,0.36-0.77,0.53
		c-0.26,0.16-0.53,0.32-0.79,0.47c-0.26,0.16-0.51,0.32-0.72,0.5c-0.22,0.18-0.41,0.37-0.56,0.57c-0.16,0.21-0.26,0.44-0.31,0.7
		h4.37v0.9h-5.56c0.04-0.5,0.13-0.93,0.27-1.29c0.14-0.36,0.32-0.67,0.53-0.93c0.22-0.26,0.46-0.5,0.73-0.7
		c0.27-0.2,0.56-0.39,0.85-0.56c0.36-0.22,0.68-0.43,0.95-0.62c0.27-0.19,0.5-0.38,0.68-0.57c0.18-0.19,0.32-0.4,0.41-0.62
		c0.09-0.22,0.14-0.48,0.14-0.78c0-0.23-0.04-0.44-0.13-0.63c-0.09-0.19-0.21-0.35-0.35-0.49c-0.15-0.13-0.32-0.24-0.52-0.31
		c-0.2-0.07-0.41-0.11-0.64-0.11c-0.3,0-0.55,0.06-0.76,0.19c-0.21,0.12-0.39,0.29-0.52,0.49c-0.14,0.2-0.23,0.43-0.29,0.68
		c-0.06,0.25-0.09,0.51-0.08,0.76h-1.02C52.84,161.94,52.88,161.54,53,161.18z"/>
	<path class="st5" d="M59.54,162.72c0.02-0.34,0.06-0.66,0.12-0.98c0.06-0.32,0.16-0.62,0.28-0.91c0.12-0.29,0.28-0.54,0.49-0.76
		c0.21-0.22,0.47-0.39,0.79-0.52c0.32-0.13,0.69-0.19,1.13-0.19c0.44,0,0.82,0.06,1.13,0.19c0.32,0.13,0.58,0.3,0.79,0.52
		c0.21,0.22,0.37,0.47,0.49,0.76c0.12,0.29,0.21,0.59,0.28,0.91c0.06,0.32,0.1,0.65,0.12,0.98c0.02,0.34,0.02,0.66,0.02,0.97
		c0,0.31-0.01,0.64-0.02,0.97c-0.02,0.34-0.06,0.66-0.12,0.98c-0.06,0.32-0.16,0.62-0.28,0.91c-0.12,0.28-0.28,0.53-0.49,0.75
		c-0.21,0.21-0.47,0.39-0.78,0.51c-0.31,0.12-0.69,0.19-1.14,0.19c-0.44,0-0.82-0.06-1.13-0.19c-0.32-0.12-0.58-0.29-0.79-0.51
		c-0.21-0.22-0.37-0.47-0.49-0.75c-0.12-0.28-0.21-0.59-0.28-0.91c-0.06-0.32-0.1-0.65-0.12-0.98c-0.02-0.34-0.02-0.66-0.02-0.97
		C59.51,163.38,59.52,163.06,59.54,162.72z M60.62,164.76c0.02,0.4,0.08,0.77,0.19,1.12c0.11,0.35,0.28,0.64,0.52,0.88
		c0.24,0.24,0.58,0.36,1.01,0.36c0.43,0,0.77-0.12,1.01-0.36c0.24-0.24,0.41-0.53,0.52-0.88c0.11-0.35,0.17-0.72,0.19-1.12
		c0.02-0.4,0.03-0.75,0.03-1.07c0-0.21,0-0.44-0.01-0.69c0-0.25-0.02-0.5-0.06-0.76c-0.04-0.25-0.09-0.5-0.16-0.74
		c-0.07-0.24-0.17-0.45-0.3-0.63c-0.13-0.18-0.3-0.33-0.5-0.44c-0.2-0.11-0.44-0.17-0.73-0.17c-0.29,0-0.53,0.06-0.73,0.17
		c-0.2,0.11-0.37,0.26-0.5,0.44c-0.13,0.18-0.23,0.39-0.3,0.63c-0.07,0.24-0.12,0.49-0.16,0.74c-0.04,0.25-0.06,0.5-0.06,0.76
		c0,0.25-0.01,0.48-0.01,0.69C60.59,164,60.6,164.36,60.62,164.76z"/>
	<path class="st5" d="M67.5,161.67v0.84h0.02c0.17-0.34,0.43-0.59,0.79-0.75c0.36-0.16,0.76-0.23,1.19-0.23
		c0.48,0,0.9,0.09,1.25,0.26c0.36,0.18,0.65,0.41,0.89,0.71c0.24,0.3,0.41,0.65,0.53,1.04c0.12,0.39,0.18,0.81,0.18,1.25
		c0,0.44-0.06,0.86-0.17,1.25c-0.12,0.39-0.29,0.73-0.53,1.03c-0.24,0.29-0.53,0.52-0.89,0.69C70.42,167.92,70,168,69.53,168
		c-0.15,0-0.32-0.02-0.51-0.05c-0.19-0.03-0.37-0.08-0.56-0.16c-0.18-0.07-0.36-0.17-0.52-0.29c-0.16-0.12-0.3-0.28-0.41-0.46H67.5
		v3.19h-1.02v-8.57H67.5z M71.17,163.87c-0.08-0.28-0.19-0.52-0.35-0.74c-0.16-0.22-0.36-0.39-0.6-0.52
		c-0.24-0.13-0.53-0.19-0.86-0.19c-0.34,0-0.64,0.07-0.88,0.2c-0.24,0.14-0.44,0.31-0.59,0.53c-0.15,0.22-0.26,0.47-0.33,0.75
		c-0.07,0.28-0.1,0.56-0.1,0.85c0,0.3,0.04,0.6,0.11,0.88c0.07,0.28,0.19,0.53,0.34,0.75c0.16,0.22,0.36,0.39,0.61,0.52
		c0.25,0.13,0.55,0.2,0.9,0.2c0.35,0,0.65-0.07,0.88-0.2c0.24-0.14,0.43-0.32,0.57-0.54c0.14-0.22,0.25-0.48,0.31-0.77
		c0.06-0.29,0.1-0.58,0.1-0.89C71.28,164.43,71.25,164.15,71.17,163.87z"/>
	<path class="st5" d="M73.07,161.67h1.31l1.49,2.17l1.55-2.17h1.22l-2.14,2.86l2.4,3.35h-1.31l-1.73-2.57l-1.73,2.57H72.9l2.33-3.26
		L73.07,161.67z"/>
	<path class="st5" d="M88.97,164.43v0.82h-2.62v2.63h-0.82v-2.63h-2.62v-0.82h2.62v-2.63h0.82v2.63H88.97z"/>
</g>
<path class="st6" d="M-137.61,325.01c-8.99,0-16.29,7.29-16.29,16.29c0,7.2,4.67,13.3,11.14,15.46c0.81,0.15,1.11-0.35,1.11-0.79
	c0-0.39-0.01-1.41-0.02-2.77c-4.53,0.98-5.49-2.18-5.49-2.18c-0.74-1.88-1.81-2.38-1.81-2.38c-1.48-1.01,0.11-0.99,0.11-0.99
	c1.63,0.12,2.5,1.68,2.5,1.68c1.45,2.49,3.81,1.77,4.74,1.35c0.15-1.05,0.57-1.77,1.03-2.18c-3.62-0.41-7.42-1.81-7.42-8.05
	c0-1.78,0.63-3.23,1.68-4.37c-0.17-0.41-0.73-2.07,0.16-4.31c0,0,1.37-0.44,4.48,1.67c1.3-0.36,2.69-0.54,4.08-0.55
	c1.38,0.01,2.78,0.19,4.08,0.55c3.11-2.11,4.48-1.67,4.48-1.67c0.89,2.24,0.33,3.9,0.16,4.31c1.04,1.14,1.67,2.59,1.67,4.37
	c0,6.26-3.81,7.63-7.44,8.04c0.58,0.5,1.11,1.5,1.11,3.02c0,2.18-0.02,3.93-0.02,4.47c0,0.44,0.29,0.94,1.12,0.78
	c6.47-2.16,11.13-8.26,11.13-15.45C-121.32,332.3-128.62,325.01-137.61,325.01z"/>
<g>
	<path class="st6" d="M60.39,276C27.04,276,0,303.04,0,336.39c0,26.68,17.3,49.32,41.3,57.3c3.02,0.56,4.13-1.31,4.13-2.91
		c0-1.44-0.06-6.2-0.08-11.24c-16.8,3.65-20.34-7.12-20.34-7.12c-2.75-6.98-6.7-8.84-6.7-8.84c-5.48-3.75,0.41-3.67,0.41-3.67
		c6.06,0.43,9.26,6.22,9.26,6.22c5.39,9.23,14.13,6.56,17.57,5.02c0.54-3.9,2.11-6.57,3.83-8.08c-13.41-1.53-27.51-6.71-27.51-29.84
		c0-6.59,2.36-11.98,6.22-16.21c-0.63-1.52-2.69-7.66,0.58-15.98c0,0,5.07-1.62,16.61,6.19c4.82-1.34,9.98-2.01,15.12-2.03
		c5.13,0.02,10.3,0.69,15.13,2.03c11.53-7.81,16.59-6.19,16.59-6.19c3.29,8.32,1.22,14.46,0.59,15.98
		c3.87,4.23,6.21,9.62,6.21,16.21c0,23.19-14.13,28.3-27.57,29.8c2.17,1.87,4.1,5.55,4.1,11.18c0,8.08-0.07,14.58-0.07,16.57
		c0,1.61,1.09,3.49,4.15,2.9c23.98-7.99,41.26-30.62,41.26-57.29C120.78,303.04,93.74,276,60.39,276z"/>
	<path class="st7" d="M22.87,362.7c-0.13,0.3-0.61,0.39-1.04,0.18c-0.44-0.2-0.68-0.61-0.54-0.91c0.13-0.31,0.6-0.39,1.04-0.19
		C22.77,361.99,23.02,362.4,22.87,362.7L22.87,362.7z M22.13,362.15"/>
	<path class="st7" d="M25.32,365.43c-0.29,0.27-0.85,0.14-1.23-0.28c-0.4-0.42-0.47-0.98-0.18-1.25c0.3-0.27,0.84-0.14,1.24,0.28
		C25.54,364.6,25.62,365.16,25.32,365.43L25.32,365.43z M24.74,364.81"/>
	<path class="st7" d="M27.7,368.91c-0.37,0.26-0.98,0.02-1.35-0.52c-0.37-0.54-0.37-1.18,0.01-1.44c0.37-0.26,0.97-0.03,1.35,0.51
		C28.08,368,28.08,368.65,27.7,368.91L27.7,368.91z M27.7,368.91"/>
	<path class="st7" d="M30.96,372.27c-0.33,0.37-1.04,0.27-1.55-0.23c-0.53-0.49-0.67-1.18-0.34-1.54c0.34-0.37,1.04-0.26,1.56,0.23
		C31.15,371.21,31.31,371.91,30.96,372.27L30.96,372.27z M30.96,372.27"/>
	<path class="st7" d="M35.46,374.22c-0.15,0.47-0.83,0.69-1.51,0.49c-0.68-0.21-1.13-0.76-0.99-1.24c0.14-0.48,0.82-0.7,1.51-0.49
		C35.16,373.19,35.6,373.74,35.46,374.22L35.46,374.22z M35.46,374.22"/>
	<path class="st7" d="M40.4,374.58c0.02,0.5-0.56,0.91-1.28,0.92c-0.72,0.02-1.31-0.39-1.31-0.88c0-0.5,0.57-0.91,1.29-0.92
		C39.81,373.69,40.4,374.09,40.4,374.58L40.4,374.58z M40.4,374.58"/>
	<path class="st7" d="M45,373.8c0.09,0.49-0.41,0.98-1.13,1.12c-0.7,0.13-1.35-0.17-1.44-0.65c-0.09-0.5,0.42-1,1.12-1.13
		C44.27,373.01,44.91,373.31,45,373.8L45,373.8z M45,373.8"/>
</g>
<g>
	<g>
		<line class="st3" x1="-65.32" y1="270.07" x2="-65.32" y2="270.57"/>
		<line class="st4" x1="-65.32" y1="272.57" x2="-65.32" y2="406.56"/>
		<line class="st3" x1="-65.32" y1="407.56" x2="-65.32" y2="408.06"/>
	</g>
</g>
<g>
	<path class="st5" d="M-156.95,422.08c-0.38-0.28-0.87-0.41-1.46-0.41c-0.24,0-0.48,0.02-0.71,0.07c-0.23,0.05-0.44,0.13-0.62,0.24
		c-0.18,0.11-0.32,0.26-0.43,0.45c-0.11,0.19-0.16,0.42-0.16,0.7c0,0.26,0.08,0.48,0.23,0.64c0.16,0.16,0.36,0.3,0.62,0.4
		c0.26,0.1,0.55,0.19,0.88,0.26c0.33,0.07,0.66,0.14,1,0.22c0.34,0.08,0.67,0.17,1,0.28c0.33,0.11,0.62,0.25,0.88,0.44
		c0.26,0.18,0.47,0.42,0.62,0.7c0.16,0.28,0.23,0.63,0.23,1.06c0,0.46-0.1,0.85-0.31,1.17c-0.2,0.32-0.47,0.59-0.79,0.79
		c-0.32,0.2-0.68,0.35-1.07,0.44s-0.79,0.14-1.18,0.14c-0.48,0-0.93-0.06-1.36-0.18c-0.43-0.12-0.8-0.3-1.13-0.55
		c-0.32-0.24-0.58-0.56-0.77-0.94c-0.19-0.38-0.28-0.83-0.28-1.35h1.08c0,0.36,0.07,0.67,0.21,0.93c0.14,0.26,0.32,0.47,0.55,0.64
		c0.23,0.17,0.49,0.29,0.8,0.37c0.3,0.08,0.62,0.12,0.94,0.12c0.26,0,0.51-0.02,0.77-0.07c0.26-0.05,0.49-0.13,0.7-0.25
		c0.21-0.12,0.38-0.27,0.5-0.47c0.13-0.2,0.19-0.46,0.19-0.77c0-0.3-0.08-0.54-0.23-0.72c-0.16-0.18-0.36-0.33-0.62-0.45
		c-0.26-0.12-0.55-0.21-0.88-0.28c-0.33-0.07-0.66-0.15-1-0.22c-0.34-0.08-0.67-0.16-1-0.26c-0.33-0.1-0.62-0.23-0.88-0.4
		c-0.26-0.16-0.47-0.38-0.62-0.64c-0.16-0.26-0.23-0.59-0.23-0.98c0-0.43,0.09-0.81,0.26-1.12c0.18-0.32,0.41-0.58,0.7-0.78
		c0.29-0.2,0.62-0.36,1-0.46c0.37-0.1,0.75-0.15,1.15-0.15c0.44,0,0.85,0.05,1.22,0.16c0.38,0.1,0.71,0.27,0.99,0.49
		c0.28,0.22,0.51,0.51,0.67,0.85c0.16,0.34,0.25,0.75,0.27,1.22h-1.08C-156.34,422.8-156.57,422.35-156.95,422.08z"/>
	<path class="st5" d="M-152.67,423.27v0.91h0.02c0.46-0.71,1.13-1.06,2-1.06c0.38,0,0.73,0.08,1.04,0.24
		c0.31,0.16,0.53,0.43,0.66,0.82c0.21-0.34,0.48-0.6,0.82-0.78c0.34-0.18,0.71-0.28,1.12-0.28c0.31,0,0.59,0.03,0.85,0.1
		c0.25,0.07,0.47,0.17,0.65,0.32c0.18,0.14,0.32,0.33,0.42,0.56c0.1,0.23,0.15,0.5,0.15,0.82v4.55h-1.02v-4.07
		c0-0.19-0.02-0.37-0.05-0.54c-0.03-0.17-0.09-0.31-0.18-0.44c-0.09-0.12-0.21-0.22-0.37-0.29c-0.16-0.07-0.36-0.11-0.61-0.11
		c-0.5,0-0.9,0.14-1.19,0.43c-0.29,0.29-0.43,0.67-0.43,1.15v3.86h-1.02v-4.07c0-0.2-0.02-0.38-0.05-0.55
		c-0.04-0.17-0.1-0.31-0.19-0.44c-0.09-0.12-0.21-0.22-0.35-0.29c-0.15-0.07-0.34-0.1-0.57-0.1c-0.3,0-0.55,0.06-0.76,0.18
		c-0.21,0.12-0.38,0.26-0.52,0.43c-0.13,0.17-0.23,0.34-0.29,0.52c-0.06,0.18-0.09,0.33-0.09,0.45v3.86h-1.02v-6.2H-152.67z"/>
	<path class="st5" d="M-138.63,429.61c-0.26,0-0.47-0.07-0.63-0.22c-0.16-0.15-0.23-0.39-0.23-0.73c-0.28,0.34-0.61,0.58-0.98,0.73
		c-0.37,0.15-0.77,0.22-1.21,0.22c-0.28,0-0.54-0.03-0.79-0.09c-0.25-0.06-0.47-0.16-0.65-0.3c-0.19-0.14-0.34-0.32-0.44-0.54
		c-0.11-0.22-0.16-0.49-0.16-0.8c0-0.35,0.06-0.64,0.18-0.86c0.12-0.22,0.28-0.41,0.47-0.55c0.2-0.14,0.42-0.25,0.67-0.32
		c0.25-0.07,0.51-0.13,0.77-0.18c0.28-0.06,0.55-0.1,0.8-0.12c0.25-0.03,0.47-0.07,0.67-0.12c0.19-0.05,0.34-0.13,0.46-0.23
		c0.11-0.1,0.17-0.25,0.17-0.44c0-0.22-0.04-0.4-0.13-0.54c-0.08-0.14-0.19-0.24-0.32-0.31c-0.13-0.07-0.28-0.12-0.44-0.14
		c-0.16-0.02-0.33-0.04-0.49-0.04c-0.43,0-0.79,0.08-1.08,0.25c-0.29,0.16-0.44,0.47-0.47,0.93h-1.02c0.02-0.38,0.1-0.71,0.24-0.97
		c0.14-0.26,0.34-0.48,0.58-0.64c0.24-0.16,0.52-0.28,0.83-0.35c0.31-0.07,0.64-0.11,0.98-0.11c0.28,0,0.56,0.02,0.83,0.06
		c0.28,0.04,0.53,0.12,0.75,0.25c0.22,0.12,0.4,0.3,0.54,0.52c0.14,0.22,0.2,0.52,0.2,0.88v3.19c0,0.24,0.01,0.42,0.04,0.53
		c0.03,0.11,0.12,0.17,0.28,0.17c0.09,0,0.19-0.02,0.31-0.06v0.79C-138.07,429.55-138.32,429.61-138.63,429.61z M-140.06,426.48
		c-0.21,0.04-0.43,0.08-0.65,0.11c-0.23,0.03-0.46,0.06-0.69,0.1c-0.23,0.04-0.44,0.09-0.62,0.17c-0.18,0.08-0.33,0.19-0.45,0.34
		c-0.12,0.15-0.17,0.35-0.17,0.61c0,0.17,0.03,0.31,0.1,0.43c0.07,0.12,0.16,0.21,0.26,0.28c0.11,0.07,0.24,0.12,0.38,0.16
		c0.15,0.03,0.3,0.05,0.45,0.05c0.34,0,0.62-0.04,0.86-0.14c0.24-0.09,0.44-0.21,0.59-0.35c0.15-0.14,0.26-0.29,0.34-0.46
		c0.07-0.16,0.11-0.32,0.11-0.46v-1.04C-139.68,426.37-139.85,426.44-140.06,426.48z"/>
	<path class="st5" d="M-135.87,420.91v8.57h-1.02v-8.57H-135.87z"/>
	<path class="st5" d="M-133.2,420.91v8.57h-1.02v-8.57H-133.2z"/>
	<path class="st5" d="M-188.37,438.57v-0.9h1.04v-0.92c0-0.5,0.15-0.89,0.44-1.15c0.29-0.26,0.72-0.39,1.28-0.39
		c0.1,0,0.21,0.01,0.33,0.02c0.12,0.02,0.23,0.04,0.33,0.07v0.89c-0.09-0.03-0.18-0.05-0.29-0.07c-0.1-0.01-0.2-0.02-0.29-0.02
		c-0.25,0-0.44,0.05-0.58,0.14c-0.14,0.1-0.2,0.28-0.2,0.55v0.86h1.2v0.9h-1.2v5.3h-1.02v-5.3H-188.37z"/>
	<path class="st5" d="M-184.34,439.5c0.13-0.4,0.32-0.74,0.58-1.03c0.26-0.29,0.57-0.52,0.95-0.69c0.38-0.17,0.81-0.25,1.3-0.25
		c0.5,0,0.93,0.08,1.3,0.25c0.37,0.17,0.69,0.4,0.94,0.69c0.26,0.29,0.45,0.64,0.58,1.03c0.13,0.4,0.19,0.82,0.19,1.28
		c0,0.46-0.06,0.88-0.19,1.27c-0.13,0.39-0.32,0.73-0.58,1.03c-0.26,0.29-0.57,0.52-0.94,0.68c-0.37,0.16-0.81,0.25-1.3,0.25
		c-0.49,0-0.92-0.08-1.3-0.25c-0.38-0.16-0.69-0.39-0.95-0.68c-0.26-0.29-0.45-0.63-0.58-1.03c-0.13-0.39-0.19-0.82-0.19-1.27
		C-184.53,440.32-184.46,439.89-184.34,439.5z M-183.3,441.78c0.1,0.29,0.24,0.54,0.41,0.73c0.18,0.2,0.38,0.35,0.62,0.45
		c0.24,0.1,0.49,0.16,0.75,0.16c0.26,0,0.51-0.05,0.75-0.16c0.24-0.1,0.44-0.25,0.62-0.45c0.18-0.2,0.31-0.44,0.41-0.73
		s0.15-0.63,0.15-1c0-0.38-0.05-0.71-0.15-1c-0.1-0.29-0.24-0.54-0.41-0.74c-0.18-0.2-0.38-0.35-0.62-0.46
		c-0.24-0.1-0.49-0.16-0.75-0.16c-0.26,0-0.51,0.05-0.75,0.16c-0.24,0.1-0.44,0.26-0.62,0.46c-0.18,0.2-0.31,0.45-0.41,0.74
		c-0.1,0.29-0.15,0.62-0.15,1C-183.45,441.15-183.4,441.49-183.3,441.78z"/>
	<path class="st5" d="M-176.38,437.67v1.31h0.02c0.25-0.5,0.55-0.88,0.91-1.12c0.36-0.24,0.82-0.35,1.37-0.34v1.08
		c-0.41,0-0.76,0.06-1.04,0.17c-0.29,0.11-0.52,0.28-0.7,0.49c-0.18,0.21-0.3,0.48-0.38,0.79c-0.08,0.31-0.12,0.66-0.12,1.06v2.76
		h-1.02v-6.2H-176.38z"/>
	<path class="st5" d="M-167.49,443.87v-6.1h-2.21v-0.82c0.29,0,0.57-0.02,0.84-0.07c0.27-0.04,0.52-0.12,0.74-0.25
		c0.22-0.12,0.41-0.28,0.56-0.49c0.15-0.21,0.26-0.47,0.31-0.79h0.78v8.51H-167.49z"/>
	<path class="st5" d="M-159.54,436.61c-0.25-0.23-0.58-0.35-0.98-0.35c-0.43,0-0.78,0.11-1.04,0.32c-0.26,0.21-0.47,0.48-0.62,0.8
		c-0.15,0.32-0.25,0.67-0.31,1.05c-0.06,0.38-0.09,0.73-0.1,1.06l0.02,0.02c0.24-0.39,0.54-0.68,0.89-0.85
		c0.36-0.18,0.77-0.26,1.23-0.26c0.41,0,0.77,0.07,1.1,0.21c0.32,0.14,0.6,0.33,0.82,0.58c0.22,0.25,0.39,0.54,0.51,0.88
		c0.12,0.34,0.18,0.7,0.18,1.09c0,0.31-0.05,0.64-0.14,0.97c-0.1,0.34-0.25,0.64-0.47,0.92c-0.22,0.28-0.51,0.5-0.88,0.68
		c-0.36,0.18-0.81,0.27-1.35,0.27c-0.63,0-1.14-0.13-1.52-0.38c-0.38-0.26-0.68-0.58-0.89-0.98c-0.21-0.4-0.35-0.84-0.41-1.32
		c-0.07-0.48-0.1-0.94-0.1-1.39c0-0.58,0.05-1.15,0.15-1.7c0.1-0.55,0.27-1.03,0.51-1.46c0.24-0.42,0.56-0.76,0.96-1.02
		c0.4-0.26,0.9-0.38,1.51-0.38c0.7,0,1.26,0.19,1.68,0.56s0.66,0.91,0.72,1.61h-1.02C-159.15,437.15-159.3,436.85-159.54,436.61z
		 M-161.39,439.45c-0.22,0.1-0.4,0.24-0.55,0.41c-0.15,0.17-0.27,0.38-0.34,0.61c-0.08,0.24-0.11,0.49-0.11,0.75
		c0,0.26,0.04,0.51,0.12,0.74c0.08,0.23,0.19,0.43,0.34,0.6c0.15,0.17,0.33,0.3,0.55,0.4c0.22,0.1,0.47,0.15,0.75,0.15
		c0.28,0,0.53-0.05,0.74-0.15c0.21-0.1,0.39-0.24,0.53-0.41c0.14-0.18,0.25-0.38,0.33-0.61c0.08-0.23,0.11-0.47,0.11-0.71
		c0-0.26-0.03-0.51-0.1-0.75c-0.07-0.24-0.17-0.44-0.32-0.61c-0.14-0.17-0.32-0.31-0.54-0.41c-0.22-0.1-0.47-0.16-0.76-0.16
		S-161.18,439.35-161.39,439.45z"/>
	<path class="st5" d="M-155.57,437.67v0.84h0.02c0.17-0.34,0.43-0.59,0.79-0.75c0.36-0.16,0.76-0.23,1.19-0.23
		c0.48,0,0.9,0.09,1.25,0.26c0.36,0.18,0.65,0.41,0.89,0.71c0.24,0.3,0.41,0.65,0.53,1.04c0.12,0.39,0.18,0.81,0.18,1.25
		c0,0.44-0.06,0.86-0.17,1.25c-0.12,0.39-0.29,0.73-0.53,1.03c-0.24,0.29-0.53,0.52-0.89,0.69c-0.36,0.17-0.77,0.25-1.24,0.25
		c-0.15,0-0.32-0.02-0.51-0.05c-0.19-0.03-0.37-0.08-0.56-0.16c-0.18-0.07-0.36-0.17-0.52-0.29c-0.16-0.12-0.3-0.28-0.41-0.46h-0.02
		v3.19h-1.02v-8.57H-155.57z M-151.91,439.87c-0.08-0.28-0.19-0.52-0.35-0.74c-0.16-0.22-0.36-0.39-0.6-0.52
		c-0.24-0.13-0.53-0.19-0.86-0.19c-0.34,0-0.64,0.07-0.88,0.2c-0.24,0.14-0.44,0.31-0.59,0.53c-0.15,0.22-0.26,0.47-0.33,0.75
		c-0.07,0.28-0.1,0.56-0.1,0.85c0,0.3,0.04,0.6,0.11,0.88c0.07,0.29,0.19,0.54,0.34,0.75c0.16,0.22,0.36,0.39,0.61,0.52
		c0.25,0.13,0.55,0.2,0.9,0.2c0.35,0,0.65-0.07,0.88-0.2c0.24-0.14,0.43-0.32,0.57-0.54c0.14-0.22,0.25-0.48,0.31-0.77
		c0.06-0.29,0.1-0.58,0.1-0.89C-151.79,440.43-151.83,440.15-151.91,439.87z"/>
	<path class="st5" d="M-150,437.67h1.31l1.49,2.17l1.55-2.17h1.22l-2.14,2.86l2.4,3.35h-1.31l-1.73-2.57l-1.73,2.57h-1.24l2.33-3.26
		L-150,437.67z"/>
	<path class="st5" d="M-140,440.06v0.96h-3.47v-0.96H-140z"/>
	<path class="st5" d="M-136.14,443.87v-6.1h-2.21v-0.82c0.29,0,0.57-0.02,0.84-0.07c0.27-0.04,0.52-0.12,0.74-0.25
		c0.22-0.12,0.41-0.28,0.56-0.49c0.15-0.21,0.26-0.47,0.31-0.79h0.78v8.51H-136.14z"/>
	<path class="st5" d="M-132.06,437.18c0.11-0.37,0.29-0.69,0.52-0.96c0.24-0.27,0.53-0.48,0.88-0.63c0.35-0.15,0.75-0.23,1.2-0.23
		c0.37,0,0.71,0.05,1.04,0.16c0.32,0.11,0.61,0.26,0.85,0.47c0.24,0.2,0.43,0.46,0.57,0.76c0.14,0.3,0.21,0.66,0.21,1.06
		c0,0.38-0.06,0.71-0.17,1c-0.12,0.29-0.27,0.55-0.46,0.77c-0.19,0.23-0.41,0.43-0.66,0.62c-0.25,0.18-0.5,0.36-0.77,0.53
		c-0.26,0.16-0.53,0.32-0.79,0.47c-0.26,0.16-0.51,0.32-0.73,0.5c-0.22,0.18-0.41,0.37-0.56,0.57c-0.16,0.2-0.26,0.44-0.31,0.7h4.37
		v0.9h-5.56c0.04-0.5,0.13-0.93,0.27-1.29c0.14-0.36,0.32-0.67,0.53-0.93c0.22-0.26,0.46-0.5,0.73-0.7c0.27-0.2,0.56-0.39,0.85-0.56
		c0.36-0.22,0.68-0.43,0.95-0.62c0.27-0.19,0.5-0.38,0.68-0.57c0.18-0.19,0.32-0.4,0.41-0.62c0.09-0.22,0.14-0.48,0.14-0.78
		c0-0.23-0.04-0.44-0.13-0.63c-0.09-0.19-0.21-0.35-0.35-0.49c-0.15-0.14-0.32-0.24-0.52-0.31c-0.2-0.07-0.41-0.11-0.64-0.11
		c-0.3,0-0.55,0.06-0.76,0.19s-0.39,0.29-0.52,0.49c-0.14,0.2-0.23,0.43-0.29,0.68c-0.06,0.25-0.09,0.51-0.08,0.76h-1.02
		C-132.22,437.95-132.18,437.55-132.06,437.18z"/>
	<path class="st5" d="M-125.52,438.72c0.02-0.34,0.06-0.66,0.12-0.98c0.06-0.32,0.16-0.62,0.28-0.91c0.12-0.29,0.28-0.54,0.49-0.76
		s0.47-0.39,0.79-0.52c0.32-0.13,0.69-0.19,1.13-0.19c0.44,0,0.82,0.06,1.13,0.19c0.32,0.13,0.58,0.3,0.79,0.52
		c0.21,0.22,0.37,0.47,0.49,0.76c0.12,0.29,0.21,0.59,0.28,0.91c0.06,0.32,0.1,0.65,0.12,0.98c0.02,0.34,0.02,0.66,0.02,0.97
		s-0.01,0.64-0.02,0.97c-0.02,0.34-0.06,0.66-0.12,0.98c-0.06,0.32-0.16,0.62-0.28,0.91c-0.12,0.29-0.28,0.54-0.49,0.75
		c-0.21,0.22-0.47,0.39-0.78,0.51c-0.31,0.12-0.69,0.19-1.14,0.19c-0.44,0-0.82-0.06-1.13-0.19c-0.32-0.12-0.58-0.29-0.79-0.51
		c-0.21-0.21-0.37-0.46-0.49-0.75c-0.12-0.28-0.21-0.59-0.28-0.91c-0.06-0.32-0.1-0.65-0.12-0.98s-0.02-0.66-0.02-0.97
		S-125.54,439.06-125.52,438.72z M-124.44,440.76c0.02,0.4,0.08,0.77,0.19,1.12c0.11,0.35,0.28,0.64,0.52,0.88
		c0.24,0.24,0.58,0.36,1.01,0.36c0.43,0,0.77-0.12,1.01-0.36c0.24-0.24,0.41-0.53,0.52-0.88c0.11-0.35,0.17-0.72,0.19-1.12
		c0.02-0.4,0.03-0.75,0.03-1.07c0-0.21,0-0.44-0.01-0.69c0-0.25-0.02-0.5-0.06-0.76c-0.04-0.25-0.09-0.5-0.16-0.74
		c-0.07-0.24-0.17-0.45-0.3-0.63c-0.13-0.18-0.3-0.33-0.5-0.44c-0.2-0.11-0.44-0.17-0.73-0.17s-0.53,0.06-0.73,0.17
		c-0.2,0.11-0.37,0.26-0.5,0.44c-0.13,0.18-0.23,0.39-0.3,0.63c-0.07,0.24-0.12,0.49-0.16,0.74c-0.04,0.25-0.06,0.5-0.06,0.76
		c0,0.25-0.01,0.48-0.01,0.69C-124.47,440-124.46,440.36-124.44,440.76z"/>
	<path class="st5" d="M-117.56,437.67v0.84h0.02c0.17-0.34,0.43-0.59,0.79-0.75c0.36-0.16,0.76-0.23,1.19-0.23
		c0.48,0,0.9,0.09,1.25,0.26c0.36,0.18,0.65,0.41,0.89,0.71c0.24,0.3,0.41,0.65,0.53,1.04c0.12,0.39,0.18,0.81,0.18,1.25
		c0,0.44-0.06,0.86-0.17,1.25c-0.12,0.39-0.29,0.73-0.53,1.03c-0.24,0.29-0.53,0.52-0.89,0.69c-0.36,0.17-0.77,0.25-1.24,0.25
		c-0.15,0-0.32-0.02-0.51-0.05c-0.19-0.03-0.37-0.08-0.56-0.16c-0.18-0.07-0.36-0.17-0.52-0.29c-0.16-0.12-0.3-0.28-0.41-0.46h-0.02
		v3.19h-1.02v-8.57H-117.56z M-113.89,439.87c-0.08-0.28-0.19-0.52-0.35-0.74c-0.16-0.22-0.36-0.39-0.6-0.52
		c-0.24-0.13-0.53-0.19-0.86-0.19c-0.34,0-0.64,0.07-0.88,0.2c-0.24,0.14-0.44,0.31-0.59,0.53c-0.15,0.22-0.26,0.47-0.33,0.75
		c-0.07,0.28-0.1,0.56-0.1,0.85c0,0.3,0.04,0.6,0.11,0.88c0.07,0.29,0.19,0.54,0.34,0.75c0.16,0.22,0.36,0.39,0.61,0.52
		c0.25,0.13,0.55,0.2,0.9,0.2c0.35,0,0.65-0.07,0.88-0.2c0.24-0.14,0.43-0.32,0.57-0.54c0.14-0.22,0.25-0.48,0.31-0.77
		c0.06-0.29,0.1-0.58,0.1-0.89C-113.78,440.43-113.81,440.15-113.89,439.87z"/>
	<path class="st5" d="M-111.99,437.67h1.31l1.49,2.17l1.55-2.17h1.22l-2.14,2.86l2.4,3.35h-1.31l-1.73-2.57l-1.73,2.57h-1.24
		l2.33-3.26L-111.99,437.67z"/>
</g>
<g>
	<path class="st5" d="M45.41,420.9v7.61h4.54v0.96h-5.68v-8.57H45.41z"/>
	<path class="st5" d="M55.54,429.6c-0.26,0-0.47-0.07-0.63-0.22c-0.16-0.15-0.23-0.39-0.23-0.73c-0.28,0.34-0.61,0.58-0.98,0.73
		c-0.37,0.15-0.77,0.22-1.21,0.22c-0.28,0-0.54-0.03-0.79-0.09c-0.25-0.06-0.47-0.16-0.65-0.3c-0.19-0.14-0.34-0.32-0.44-0.54
		c-0.11-0.22-0.16-0.49-0.16-0.8c0-0.35,0.06-0.64,0.18-0.86c0.12-0.22,0.28-0.41,0.47-0.55c0.2-0.14,0.42-0.25,0.67-0.32
		c0.25-0.07,0.51-0.13,0.77-0.18c0.28-0.06,0.55-0.1,0.8-0.13c0.25-0.03,0.47-0.07,0.67-0.12c0.19-0.05,0.34-0.13,0.46-0.23
		c0.11-0.1,0.17-0.25,0.17-0.44c0-0.22-0.04-0.4-0.13-0.54c-0.08-0.13-0.19-0.24-0.32-0.31c-0.13-0.07-0.28-0.12-0.44-0.14
		c-0.16-0.02-0.33-0.04-0.49-0.04c-0.43,0-0.79,0.08-1.08,0.25c-0.29,0.16-0.44,0.47-0.47,0.93h-1.02c0.02-0.38,0.1-0.71,0.24-0.97
		c0.14-0.26,0.34-0.48,0.58-0.64c0.24-0.16,0.52-0.28,0.83-0.35c0.31-0.07,0.64-0.11,0.98-0.11c0.28,0,0.56,0.02,0.83,0.06
		c0.28,0.04,0.53,0.12,0.75,0.25c0.22,0.12,0.4,0.3,0.54,0.52c0.14,0.22,0.2,0.52,0.2,0.88v3.19c0,0.24,0.01,0.42,0.04,0.53
		c0.03,0.11,0.12,0.17,0.28,0.17c0.09,0,0.19-0.02,0.31-0.06v0.79C56.1,429.55,55.85,429.6,55.54,429.6z M54.11,426.48
		c-0.21,0.04-0.43,0.08-0.65,0.11c-0.23,0.03-0.46,0.06-0.69,0.1c-0.23,0.04-0.44,0.09-0.62,0.17c-0.18,0.08-0.33,0.2-0.45,0.34
		c-0.12,0.15-0.17,0.35-0.17,0.61c0,0.17,0.03,0.31,0.1,0.43c0.07,0.12,0.16,0.21,0.26,0.28c0.11,0.07,0.24,0.12,0.38,0.16
		c0.15,0.03,0.3,0.05,0.45,0.05c0.34,0,0.62-0.05,0.86-0.14c0.24-0.09,0.44-0.21,0.59-0.35c0.15-0.14,0.26-0.29,0.34-0.46
		c0.07-0.16,0.11-0.32,0.11-0.46v-1.04C54.49,426.36,54.32,426.43,54.11,426.48z"/>
	<path class="st5" d="M58.14,423.27v1.31h0.02c0.25-0.5,0.55-0.88,0.91-1.12c0.36-0.24,0.82-0.35,1.37-0.34v1.08
		c-0.41,0-0.76,0.06-1.04,0.17c-0.29,0.11-0.52,0.28-0.7,0.49c-0.18,0.22-0.3,0.48-0.38,0.79c-0.08,0.31-0.12,0.66-0.12,1.06v2.76
		h-1.02v-6.21H58.14z"/>
	<path class="st5" d="M65.54,431.22c-0.46,0.5-1.19,0.76-2.18,0.76c-0.29,0-0.58-0.03-0.88-0.1c-0.3-0.06-0.57-0.17-0.82-0.31
		c-0.24-0.14-0.45-0.33-0.61-0.56c-0.16-0.23-0.25-0.52-0.26-0.85h1.02c0.01,0.18,0.07,0.34,0.17,0.47c0.11,0.13,0.24,0.23,0.4,0.31
		c0.16,0.08,0.33,0.14,0.51,0.17c0.18,0.04,0.36,0.05,0.53,0.05c0.34,0,0.62-0.06,0.85-0.17c0.23-0.12,0.42-0.28,0.58-0.48
		c0.15-0.2,0.26-0.45,0.33-0.74c0.07-0.29,0.1-0.6,0.1-0.95v-0.41h-0.02c-0.18,0.38-0.44,0.67-0.8,0.85
		c-0.36,0.18-0.73,0.27-1.13,0.27c-0.46,0-0.87-0.08-1.21-0.25c-0.34-0.17-0.63-0.39-0.87-0.68c-0.23-0.28-0.41-0.62-0.52-1
		c-0.12-0.38-0.17-0.78-0.17-1.21c0-0.37,0.05-0.75,0.14-1.13c0.1-0.39,0.26-0.74,0.48-1.06c0.22-0.32,0.52-0.58,0.89-0.78
		c0.37-0.2,0.82-0.31,1.36-0.31c0.39,0,0.75,0.09,1.08,0.26c0.33,0.17,0.58,0.43,0.77,0.77h0.01v-0.89h0.96v5.68
		C66.23,429.96,66,430.72,65.54,431.22z M64.23,428.43c0.24-0.14,0.43-0.32,0.57-0.55c0.14-0.23,0.25-0.49,0.32-0.77
		c0.07-0.29,0.1-0.58,0.1-0.86c0-0.27-0.03-0.54-0.1-0.8c-0.06-0.26-0.17-0.5-0.31-0.71c-0.14-0.21-0.32-0.38-0.54-0.51
		c-0.22-0.13-0.5-0.19-0.82-0.19c-0.33,0-0.61,0.06-0.84,0.19c-0.23,0.12-0.42,0.29-0.57,0.5c-0.15,0.21-0.26,0.45-0.32,0.72
		c-0.07,0.27-0.1,0.56-0.1,0.85c0,0.28,0.03,0.56,0.08,0.84c0.06,0.28,0.15,0.53,0.29,0.76c0.14,0.23,0.32,0.41,0.54,0.55
		c0.22,0.14,0.5,0.21,0.84,0.21C63.71,428.64,64,428.57,64.23,428.43z"/>
	<path class="st5" d="M72.16,429.08c-0.46,0.35-1.05,0.53-1.75,0.53c-0.5,0-0.93-0.08-1.29-0.24c-0.37-0.16-0.67-0.38-0.92-0.67
		c-0.25-0.29-0.43-0.63-0.56-1.03c-0.12-0.4-0.19-0.84-0.21-1.31c0-0.47,0.07-0.9,0.22-1.29c0.14-0.39,0.35-0.73,0.61-1.02
		c0.26-0.29,0.57-0.51,0.92-0.67c0.36-0.16,0.75-0.24,1.17-0.24c0.55,0,1.01,0.11,1.37,0.34c0.36,0.23,0.66,0.52,0.88,0.87
		c0.22,0.35,0.37,0.74,0.46,1.15c0.08,0.42,0.12,0.81,0.1,1.19h-4.64c-0.01,0.27,0.02,0.53,0.1,0.77c0.07,0.24,0.19,0.46,0.35,0.65
		c0.16,0.19,0.36,0.34,0.61,0.45c0.25,0.11,0.54,0.17,0.88,0.17c0.43,0,0.79-0.1,1.06-0.3c0.28-0.2,0.46-0.5,0.55-0.91h1.01
		C72.92,428.2,72.62,428.72,72.16,429.08z M71.91,425.09c-0.09-0.22-0.21-0.4-0.37-0.56c-0.16-0.16-0.34-0.28-0.55-0.37
		s-0.45-0.14-0.7-0.14c-0.26,0-0.5,0.05-0.71,0.14c-0.21,0.09-0.39,0.22-0.55,0.38c-0.15,0.16-0.27,0.35-0.36,0.56
		c-0.09,0.21-0.14,0.44-0.16,0.68h3.56C72.06,425.54,72,425.31,71.91,425.09z"/>
	<path class="st5" d="M75.14,423.27v1.31h0.02c0.25-0.5,0.55-0.88,0.91-1.12c0.36-0.24,0.82-0.35,1.37-0.34v1.08
		c-0.41,0-0.76,0.06-1.04,0.17c-0.29,0.11-0.52,0.28-0.7,0.49c-0.18,0.22-0.3,0.48-0.38,0.79c-0.08,0.31-0.12,0.66-0.12,1.06v2.76
		h-1.02v-6.21H75.14z"/>
	<path class="st5" d="M28.04,438.57v-0.9h1.04v-0.92c0-0.5,0.15-0.89,0.44-1.15c0.29-0.26,0.72-0.39,1.28-0.39
		c0.1,0,0.21,0.01,0.33,0.02c0.12,0.02,0.23,0.04,0.33,0.07v0.89c-0.09-0.03-0.18-0.05-0.29-0.07c-0.1-0.01-0.2-0.02-0.29-0.02
		c-0.25,0-0.44,0.05-0.58,0.14c-0.14,0.1-0.2,0.28-0.2,0.55v0.86h1.2v0.9h-1.2v5.3h-1.02v-5.3H28.04z"/>
	<path class="st5" d="M32.07,439.5c0.13-0.4,0.32-0.74,0.58-1.03c0.26-0.29,0.57-0.52,0.95-0.69c0.38-0.17,0.81-0.25,1.3-0.25
		c0.5,0,0.93,0.08,1.3,0.25c0.37,0.17,0.69,0.4,0.94,0.69c0.26,0.29,0.45,0.63,0.58,1.03c0.13,0.4,0.19,0.82,0.19,1.28
		c0,0.46-0.06,0.88-0.19,1.27c-0.13,0.39-0.32,0.73-0.58,1.03c-0.26,0.29-0.57,0.52-0.94,0.68c-0.37,0.16-0.81,0.25-1.3,0.25
		c-0.49,0-0.92-0.08-1.3-0.25c-0.38-0.16-0.69-0.39-0.95-0.68c-0.26-0.29-0.45-0.63-0.58-1.03c-0.13-0.39-0.19-0.82-0.19-1.27
		C31.88,440.32,31.94,439.89,32.07,439.5z M33.11,441.78c0.1,0.29,0.24,0.54,0.41,0.73c0.18,0.2,0.38,0.35,0.62,0.45
		c0.24,0.1,0.49,0.16,0.75,0.16c0.26,0,0.51-0.05,0.75-0.16c0.24-0.1,0.44-0.25,0.62-0.45c0.18-0.2,0.31-0.44,0.41-0.73
		c0.1-0.29,0.15-0.62,0.15-1c0-0.38-0.05-0.71-0.15-1c-0.1-0.29-0.24-0.54-0.41-0.74c-0.18-0.2-0.38-0.35-0.62-0.46
		c-0.24-0.1-0.49-0.16-0.75-0.16c-0.26,0-0.51,0.05-0.75,0.16c-0.24,0.1-0.44,0.26-0.62,0.46c-0.18,0.2-0.31,0.45-0.41,0.74
		c-0.1,0.29-0.15,0.63-0.15,1C32.96,441.15,33.01,441.49,33.11,441.78z"/>
	<path class="st5" d="M40.02,437.67v1.31h0.02c0.25-0.5,0.55-0.88,0.91-1.12c0.36-0.24,0.82-0.35,1.37-0.34v1.08
		c-0.41,0-0.76,0.06-1.04,0.17c-0.29,0.11-0.52,0.28-0.7,0.49c-0.18,0.22-0.3,0.48-0.38,0.79c-0.08,0.31-0.12,0.66-0.12,1.06v2.76
		h-1.02v-6.2H40.02z"/>
	<path class="st5" d="M48.92,443.87v-6.1h-2.21v-0.82c0.29,0,0.57-0.02,0.84-0.07c0.27-0.04,0.52-0.13,0.74-0.25
		c0.22-0.12,0.41-0.28,0.56-0.49c0.15-0.21,0.26-0.47,0.31-0.79h0.78v8.51H48.92z"/>
	<path class="st5" d="M53,437.18c0.11-0.37,0.29-0.69,0.52-0.95c0.24-0.27,0.53-0.48,0.88-0.63c0.35-0.15,0.75-0.23,1.2-0.23
		c0.37,0,0.71,0.05,1.04,0.16c0.32,0.11,0.61,0.26,0.85,0.47c0.24,0.2,0.43,0.46,0.57,0.76c0.14,0.3,0.21,0.66,0.21,1.06
		c0,0.38-0.06,0.71-0.17,1c-0.12,0.29-0.27,0.55-0.46,0.77c-0.19,0.23-0.41,0.43-0.66,0.62c-0.25,0.18-0.5,0.36-0.77,0.53
		c-0.26,0.16-0.53,0.32-0.79,0.47c-0.26,0.16-0.51,0.32-0.72,0.5c-0.22,0.18-0.41,0.37-0.56,0.57c-0.16,0.21-0.26,0.44-0.31,0.7
		h4.37v0.9h-5.56c0.04-0.5,0.13-0.93,0.27-1.29c0.14-0.36,0.32-0.67,0.53-0.93c0.22-0.26,0.46-0.5,0.73-0.7
		c0.27-0.2,0.56-0.39,0.85-0.56c0.36-0.22,0.68-0.43,0.95-0.62c0.27-0.19,0.5-0.38,0.68-0.57c0.18-0.19,0.32-0.4,0.41-0.62
		c0.09-0.22,0.14-0.48,0.14-0.78c0-0.23-0.04-0.44-0.13-0.63c-0.09-0.19-0.21-0.35-0.35-0.49c-0.15-0.13-0.32-0.24-0.52-0.31
		c-0.2-0.07-0.41-0.11-0.64-0.11c-0.3,0-0.55,0.06-0.76,0.19c-0.21,0.12-0.39,0.29-0.52,0.49c-0.14,0.2-0.23,0.43-0.29,0.68
		c-0.06,0.25-0.09,0.51-0.08,0.76h-1.02C52.84,437.94,52.88,437.54,53,437.18z"/>
	<path class="st5" d="M59.54,438.72c0.02-0.34,0.06-0.66,0.12-0.98c0.06-0.32,0.16-0.62,0.28-0.91c0.12-0.29,0.28-0.54,0.49-0.76
		c0.21-0.22,0.47-0.39,0.79-0.52c0.32-0.13,0.69-0.19,1.13-0.19c0.44,0,0.82,0.06,1.13,0.19c0.32,0.13,0.58,0.3,0.79,0.52
		c0.21,0.22,0.37,0.47,0.49,0.76c0.12,0.29,0.21,0.59,0.28,0.91c0.06,0.32,0.1,0.65,0.12,0.98c0.02,0.34,0.02,0.66,0.02,0.97
		c0,0.31-0.01,0.64-0.02,0.97c-0.02,0.34-0.06,0.66-0.12,0.98c-0.06,0.32-0.16,0.62-0.28,0.91c-0.12,0.28-0.28,0.53-0.49,0.75
		c-0.21,0.21-0.47,0.39-0.78,0.51c-0.31,0.12-0.69,0.19-1.14,0.19c-0.44,0-0.82-0.06-1.13-0.19c-0.32-0.12-0.58-0.29-0.79-0.51
		c-0.21-0.22-0.37-0.47-0.49-0.75c-0.12-0.28-0.21-0.59-0.28-0.91c-0.06-0.32-0.1-0.65-0.12-0.98c-0.02-0.34-0.02-0.66-0.02-0.97
		C59.51,439.38,59.52,439.06,59.54,438.72z M60.62,440.76c0.02,0.4,0.08,0.77,0.19,1.12c0.11,0.35,0.28,0.64,0.52,0.88
		c0.24,0.24,0.58,0.36,1.01,0.36c0.43,0,0.77-0.12,1.01-0.36c0.24-0.24,0.41-0.53,0.52-0.88c0.11-0.35,0.17-0.72,0.19-1.12
		c0.02-0.4,0.03-0.75,0.03-1.07c0-0.21,0-0.44-0.01-0.69c0-0.25-0.02-0.5-0.06-0.76c-0.04-0.25-0.09-0.5-0.16-0.74
		c-0.07-0.24-0.17-0.45-0.3-0.63c-0.13-0.18-0.3-0.33-0.5-0.44c-0.2-0.11-0.44-0.17-0.73-0.17c-0.29,0-0.53,0.06-0.73,0.17
		c-0.2,0.11-0.37,0.26-0.5,0.44c-0.13,0.18-0.23,0.39-0.3,0.63c-0.07,0.24-0.12,0.49-0.16,0.74c-0.04,0.25-0.06,0.5-0.06,0.76
		c0,0.25-0.01,0.48-0.01,0.69C60.59,440,60.6,440.36,60.62,440.76z"/>
	<path class="st5" d="M67.5,437.67v0.84h0.02c0.17-0.34,0.43-0.59,0.79-0.75c0.36-0.16,0.76-0.23,1.19-0.23
		c0.48,0,0.9,0.09,1.25,0.26c0.36,0.18,0.65,0.41,0.89,0.71c0.24,0.3,0.41,0.65,0.53,1.04c0.12,0.39,0.18,0.81,0.18,1.25
		c0,0.44-0.06,0.86-0.17,1.25c-0.12,0.39-0.29,0.73-0.53,1.03c-0.24,0.29-0.53,0.52-0.89,0.69C70.42,443.92,70,444,69.53,444
		c-0.15,0-0.32-0.02-0.51-0.05c-0.19-0.03-0.37-0.08-0.56-0.16c-0.18-0.07-0.36-0.17-0.52-0.29c-0.16-0.12-0.3-0.28-0.41-0.46H67.5
		v3.19h-1.02v-8.57H67.5z M71.17,439.87c-0.08-0.28-0.19-0.52-0.35-0.74c-0.16-0.22-0.36-0.39-0.6-0.52
		c-0.24-0.13-0.53-0.19-0.86-0.19c-0.34,0-0.64,0.07-0.88,0.2c-0.24,0.14-0.44,0.31-0.59,0.53c-0.15,0.22-0.26,0.47-0.33,0.75
		c-0.07,0.28-0.1,0.56-0.1,0.85c0,0.3,0.04,0.6,0.11,0.88c0.07,0.28,0.19,0.53,0.34,0.75c0.16,0.22,0.36,0.39,0.61,0.52
		c0.25,0.13,0.55,0.2,0.9,0.2c0.35,0,0.65-0.07,0.88-0.2c0.24-0.14,0.43-0.32,0.57-0.54c0.14-0.22,0.25-0.48,0.31-0.77
		c0.06-0.29,0.1-0.58,0.1-0.89C71.28,440.43,71.25,440.15,71.17,439.87z"/>
	<path class="st5" d="M73.07,437.67h1.31l1.49,2.17l1.55-2.17h1.22l-2.14,2.86l2.4,3.35h-1.31l-1.73-2.57l-1.73,2.57H72.9l2.33-3.26
		L73.07,437.67z"/>
	<path class="st5" d="M88.97,440.43v0.82h-2.62v2.63h-0.82v-2.63h-2.62v-0.82h2.62v-2.63h0.82v2.63H88.97z"/>
</g>
<path class="st8" d="M98.68,25.47"/>
</svg>
