<svg id="svg" version="1.1" xmlns="http://www.w3.org/2000/svg" xmlns:xlink="http://www.w3.org/1999/xlink" width="400" height="400" viewBox="0, 0, 400,400"><g id="svgg"><path id="path0" d="M146.860 1.700 L 147.000 3.400 137.731 3.286 C 128.821 3.177,128.453 3.202,128.214 3.957 C 128.077 4.389,127.339 5.111,126.574 5.562 C 125.809 6.014,124.809 7.017,124.352 7.792 L 123.521 9.200 118.660 9.203 C 115.987 9.205,112.868 9.319,111.729 9.456 L 109.658 9.705 109.382 12.652 L 109.106 15.600 103.196 15.600 C 96.428 15.600,96.800 15.377,96.800 19.433 L 96.800 22.000 93.824 22.000 C 92.187 22.000,90.751 22.156,90.632 22.347 C 90.514 22.539,89.728 22.805,88.886 22.940 C 86.999 23.242,85.645 24.614,85.332 26.543 L 85.095 28.000 82.176 28.000 C 78.419 28.000,78.000 28.383,78.000 31.811 L 78.000 34.365 75.100 34.482 L 72.200 34.600 72.077 36.076 C 71.986 37.175,71.541 37.965,70.330 39.176 L 68.706 40.800 64.187 40.800 L 59.668 40.800 59.389 43.783 L 59.109 46.767 56.255 46.883 L 53.400 47.000 53.283 50.083 L 53.167 53.167 50.083 53.283 L 47.000 53.400 46.883 56.255 L 46.767 59.109 43.783 59.389 L 40.800 59.668 40.800 64.187 L 40.800 68.706 39.176 70.330 C 37.965 71.541,37.175 71.986,36.076 72.077 L 34.600 72.200 34.482 75.100 L 34.365 78.000 31.811 78.000 C 28.413 78.000,28.000 78.436,28.000 82.024 L 28.000 84.791 26.377 85.050 C 23.277 85.546,22.020 88.150,22.006 94.100 L 22.000 96.800 19.433 96.800 C 15.377 96.800,15.600 96.428,15.600 103.196 L 15.600 109.106 12.652 109.382 L 9.705 109.658 9.456 111.729 C 9.319 112.868,9.205 115.825,9.203 118.300 L 9.200 122.800 8.180 122.800 C 5.772 122.800,4.000 124.775,4.000 127.460 C 4.000 127.977,3.814 128.400,3.586 128.400 C 3.309 128.400,3.210 131.482,3.286 137.700 L 3.400 147.000 1.700 146.860 L 0.000 146.719 0.000 199.960 L 0.000 253.200 1.600 253.200 L 3.200 253.200 3.200 262.357 C 3.200 272.745,2.924 272.000,6.775 272.000 L 9.084 272.000 9.298 278.049 C 9.416 281.377,9.676 284.212,9.876 284.349 C 10.076 284.487,10.463 285.366,10.736 286.302 C 11.272 288.137,12.302 289.040,14.321 289.444 L 15.600 289.700 15.600 292.818 C 15.600 294.739,15.821 296.370,16.176 297.068 C 16.492 297.690,16.967 298.792,17.230 299.515 C 17.740 300.915,18.657 301.587,20.600 301.985 L 21.800 302.231 21.916 305.715 L 22.031 309.200 25.016 309.200 L 28.000 309.200 28.000 314.826 C 28.000 321.939,28.031 322.000,31.597 322.000 L 34.365 322.000 34.482 324.900 L 34.600 327.800 37.683 327.917 L 40.767 328.033 40.883 331.117 L 41.000 334.200 43.900 334.318 L 46.800 334.435 46.800 337.138 C 46.800 340.524,47.076 340.800,50.462 340.800 L 53.165 340.800 53.282 343.700 L 53.400 346.600 56.240 346.716 L 59.080 346.833 59.440 349.916 L 59.800 353.000 62.683 353.117 L 65.566 353.234 65.683 356.117 L 65.800 359.000 68.883 359.117 L 71.967 359.233 72.083 362.317 L 72.200 365.400 76.761 365.514 L 81.321 365.627 82.832 367.138 C 83.975 368.281,84.374 369.032,84.471 370.224 L 84.600 371.800 87.700 371.917 L 90.800 372.034 90.800 375.017 L 90.800 378.000 96.983 378.000 L 103.166 378.000 103.283 381.100 L 103.400 384.200 109.500 384.310 L 115.600 384.421 115.600 387.161 C 115.600 391.096,114.119 390.823,134.846 390.704 L 153.000 390.600 153.117 387.517 L 153.233 384.434 156.117 384.317 L 159.000 384.200 159.103 362.500 L 159.207 340.800 139.003 340.800 L 118.800 340.800 117.226 339.226 C 116.041 338.041,115.620 337.274,115.526 336.126 L 115.400 334.600 109.300 334.490 L 103.200 334.379 103.200 331.604 C 103.200 328.289,102.881 328.000,99.226 328.000 L 96.800 328.000 96.800 325.000 L 96.800 322.000 93.810 322.000 L 90.821 322.000 90.710 315.900 L 90.600 309.800 87.500 309.438 L 84.400 309.076 84.399 306.038 L 84.398 303.000 87.599 303.130 L 90.800 303.261 90.800 306.230 L 90.800 309.200 92.247 309.200 C 94.250 309.200,96.692 311.667,96.874 313.874 L 97.000 315.400 100.100 315.517 L 103.200 315.634 103.200 318.574 C 103.200 320.886,103.335 321.566,103.833 321.757 C 104.960 322.190,153.200 322.036,153.200 321.600 C 153.200 321.380,153.749 321.200,154.420 321.200 C 158.160 321.200,158.859 319.576,159.102 310.316 L 159.289 303.232 162.344 303.116 L 165.400 303.000 165.512 298.352 L 165.624 293.704 167.123 292.129 C 167.947 291.263,168.940 290.432,169.329 290.283 C 170.589 289.799,171.291 287.332,171.136 283.929 C 170.892 278.548,170.249 278.343,152.900 278.121 L 140.800 277.967 140.800 275.616 C 140.800 271.748,141.376 272.000,132.545 272.000 L 124.776 272.000 123.488 270.540 C 122.636 269.575,122.132 268.525,122.000 267.440 L 121.800 265.800 118.700 265.683 L 115.600 265.566 115.600 262.640 L 115.600 259.714 113.141 259.457 C 111.789 259.316,109.007 259.200,106.959 259.200 L 103.235 259.200 103.118 256.300 L 103.000 253.400 99.900 253.283 L 96.800 253.166 96.800 246.983 L 96.800 240.800 93.817 240.800 L 90.834 240.800 90.717 237.700 C 90.613 234.945,90.511 234.587,89.795 234.485 C 89.344 234.420,88.640 233.716,88.194 232.885 C 87.748 232.052,86.744 231.050,85.906 230.601 L 84.413 229.801 84.307 219.800 L 84.200 209.800 81.100 209.438 L 78.000 209.076 78.000 190.555 L 78.000 172.034 81.100 171.917 L 84.200 171.800 84.310 165.517 L 84.420 159.233 87.510 159.117 L 90.600 159.000 90.710 152.917 L 90.821 146.835 93.710 146.717 L 96.600 146.600 96.703 118.700 L 96.805 90.800 106.185 90.800 L 115.565 90.800 115.682 93.700 L 115.800 96.600 121.900 96.710 L 128.000 96.821 128.000 99.237 C 128.000 103.273,127.875 103.200,134.814 103.200 L 140.800 103.200 140.800 106.200 L 140.800 109.200 153.200 109.200 L 165.600 109.200 165.600 106.200 L 165.600 103.200 200.000 103.200 L 234.400 103.200 234.400 106.200 L 234.400 109.200 246.800 109.200 L 259.200 109.200 259.200 106.210 L 259.200 103.220 265.500 103.110 L 271.800 103.000 271.917 99.910 L 272.033 96.821 278.117 96.710 L 284.200 96.600 284.318 93.700 L 284.435 90.800 293.815 90.800 L 303.195 90.800 303.297 118.700 L 303.400 146.600 306.300 146.718 L 309.200 146.835 309.203 150.918 C 309.205 153.163,309.320 155.945,309.459 157.100 L 309.711 159.200 312.656 159.200 L 315.600 159.200 315.600 165.357 C 315.600 172.404,315.367 172.000,319.433 172.000 L 322.000 172.000 322.000 190.538 L 322.000 209.076 318.900 209.438 L 315.800 209.800 315.693 219.800 L 315.587 229.801 314.094 230.601 C 313.248 231.054,312.254 232.051,311.801 232.899 C 311.360 233.724,310.706 234.398,310.347 234.399 C 309.702 234.400,308.819 239.863,309.330 240.685 C 309.438 240.858,308.103 240.941,306.363 240.870 L 303.200 240.739 303.200 246.953 L 303.200 253.166 300.100 253.283 L 297.000 253.400 296.882 256.300 L 296.765 259.200 293.041 259.200 C 290.993 259.200,288.198 259.317,286.830 259.460 L 284.343 259.720 284.471 262.760 L 284.600 265.800 281.554 265.671 C 278.274 265.533,278.046 265.695,277.995 268.200 C 277.986 268.640,277.351 269.675,276.584 270.500 L 275.189 272.000 267.429 272.000 L 259.668 272.000 259.387 275.000 L 259.106 278.000 244.182 278.000 C 226.296 278.000,227.998 277.355,228.005 284.129 C 228.013 290.521,228.096 290.800,230.007 290.800 C 231.208 290.800,231.814 291.094,232.948 292.228 L 234.375 293.655 234.488 298.328 L 234.600 303.000 237.698 303.117 L 240.796 303.234 240.898 343.717 L 241.000 384.200 243.900 384.318 L 246.800 384.435 246.800 387.169 C 246.800 391.094,245.322 390.823,266.046 390.704 L 284.200 390.600 284.317 387.510 L 284.433 384.421 290.517 384.310 L 296.600 384.200 296.717 381.100 L 296.834 378.000 303.017 378.000 L 309.200 378.000 309.200 375.000 L 309.200 372.000 312.400 372.000 L 315.600 372.000 315.600 370.353 C 315.600 368.976,315.852 368.454,317.139 367.167 L 318.679 365.627 323.239 365.514 L 327.800 365.400 327.917 362.317 L 328.033 359.233 331.117 359.117 L 334.200 359.000 334.317 356.117 L 334.434 353.233 337.517 353.117 L 340.600 353.000 340.717 349.917 L 340.833 346.834 343.717 346.717 L 346.600 346.600 346.717 343.717 L 346.834 340.833 349.917 340.717 L 353.000 340.600 353.117 337.517 L 353.233 334.434 356.117 334.317 L 359.000 334.200 359.117 331.117 L 359.233 328.033 362.317 327.917 L 365.400 327.800 365.517 324.917 L 365.634 322.033 368.717 321.917 L 371.800 321.800 371.910 315.500 L 372.020 309.200 375.010 309.200 L 378.000 309.200 378.000 305.787 C 378.000 303.406,378.151 302.328,378.500 302.221 C 378.775 302.136,379.500 301.957,380.110 301.823 C 381.638 301.488,382.677 300.341,383.194 298.421 C 383.434 297.529,383.804 296.800,384.015 296.800 C 384.233 296.800,384.400 295.253,384.400 293.245 L 384.400 289.689 385.845 289.418 C 387.687 289.072,389.072 287.687,389.418 285.845 C 389.575 285.009,389.923 284.400,390.245 284.400 C 390.695 284.400,390.800 283.226,390.800 278.218 L 390.800 272.035 393.700 271.918 L 396.600 271.800 396.707 262.500 L 396.815 253.200 398.407 253.200 L 400.000 253.200 400.000 200.000 L 400.000 146.800 398.400 146.800 L 396.800 146.800 396.800 137.600 C 396.800 131.733,396.655 128.400,396.400 128.400 C 396.180 128.400,396.000 127.977,396.000 127.460 C 396.000 124.780,394.228 122.800,391.830 122.800 L 390.820 122.800 390.710 116.300 L 390.600 109.800 387.500 109.438 L 384.400 109.076 384.400 103.181 C 384.400 96.430,384.622 96.800,380.567 96.800 L 378.000 96.800 377.994 94.100 C 377.980 88.150,376.723 85.546,373.623 85.050 L 372.000 84.791 372.000 81.809 C 372.000 78.267,371.723 78.000,368.044 78.000 L 365.635 78.000 365.518 75.100 L 365.400 72.200 363.924 72.077 C 362.825 71.986,362.035 71.541,360.824 70.330 L 359.200 68.706 359.200 64.187 L 359.200 59.668 356.217 59.389 L 353.233 59.109 353.117 56.255 L 353.000 53.400 349.917 53.283 L 346.833 53.167 346.717 50.083 L 346.600 47.000 343.700 46.882 L 340.800 46.765 340.800 44.415 C 340.800 40.683,340.962 40.800,335.804 40.800 L 331.294 40.800 329.670 39.176 C 328.459 37.965,328.014 37.175,327.923 36.076 L 327.800 34.600 324.900 34.482 L 322.000 34.365 322.000 31.597 C 322.000 28.245,321.706 28.000,317.677 28.000 L 314.902 28.000 314.659 26.477 C 314.358 24.596,312.981 23.244,311.048 22.930 C 310.241 22.799,309.484 22.536,309.367 22.346 C 309.249 22.156,307.813 22.000,306.176 22.000 L 303.200 22.000 303.200 19.433 C 303.200 15.376,303.576 15.600,296.775 15.600 L 290.835 15.600 290.718 12.700 L 290.600 9.800 288.800 9.530 C 287.810 9.381,284.633 9.246,281.740 9.230 L 276.479 9.200 275.648 7.792 C 275.191 7.017,274.202 6.020,273.451 5.577 C 272.700 5.134,271.993 4.418,271.880 3.986 C 271.684 3.233,271.283 3.200,262.437 3.200 L 253.200 3.200 253.200 1.600 L 253.200 0.000 199.960 -0.000 L 146.719 -0.000 146.860 1.700 " stroke="none" fill="#0c348c" fill-rule="evenodd"></path><path id="path1" d="" stroke="none" fill="#10348c" fill-rule="evenodd"></path><path id="path2" d="" stroke="none" fill="#10348c" fill-rule="evenodd"></path><path id="path3" d="" stroke="none" fill="#10348c" fill-rule="evenodd"></path><path id="path4" d="" stroke="none" fill="#10348c" fill-rule="evenodd"></path></g></svg>