<?xml version="1.0" encoding="UTF-8" standalone="no"?>
<svg
   version="1.1"
   id="Layer_1"
   x="0px"
   y="0px"
   viewBox="0 0 120.78 120.78"
   width="120.78"
   height="120.78"
   xmlns="http://www.w3.org/2000/svg"
   xmlns:svg="http://www.w3.org/2000/svg">
<path
   d="M 60.39,0 C 27.04,0 0,27.04 0,60.39 c 0,26.68 17.3,49.32 41.3,57.3 3.02,0.56 4.13,-1.31 4.13,-2.91 0,-1.44 -0.06,-6.2 -0.08,-11.24 C 28.54,107.19 25,96.42 25,96.42 c -2.75,-6.98 -6.7,-8.84 -6.7,-8.84 -5.48,-3.75 0.41,-3.67 0.41,-3.67 6.06,0.43 9.26,6.22 9.26,6.22 5.39,9.23 14.13,6.56 17.57,5.02 0.54,-3.9 2.11,-6.57 3.83,-8.08 -13.41,-1.53 -27.51,-6.71 -27.51,-29.84 0,-6.59 2.36,-11.98 6.22,-16.21 -0.63,-1.52 -2.69,-7.66 0.58,-15.98 0,0 5.07,-1.62 16.61,6.19 4.82,-1.34 9.98,-2.01 15.12,-2.03 5.13,0.02 10.3,0.69 15.13,2.03 11.53,-7.81 16.59,-6.19 16.59,-6.19 3.29,8.32 1.22,14.46 0.59,15.98 3.87,4.23 6.21,9.62 6.21,16.21 0,23.19 -14.13,28.3 -27.57,29.8 2.17,1.87 4.1,5.55 4.1,11.18 0,8.08 -0.07,14.58 -0.07,16.57 0,1.61 1.09,3.49 4.15,2.9 23.98,-7.99 41.26,-30.62 41.26,-57.29 C 120.78,27.04 93.74,0 60.39,0 Z"
   fill="#09328B"
 />
<path
   d="M 98.68,25.47"
   fill="#09328B"
 />
</svg>
