<svg width="40" height="40" viewBox="0 0 40 40" fill="none" xmlns="http://www.w3.org/2000/svg">
<circle cx="20" cy="20" r="20" fill="#09328B"/>
<path fill-rule="evenodd" clip-rule="evenodd" d="M32 12.3086C31.1177 12.7006 30.1681 12.9646 29.1722 13.0838C30.1889 12.4742 30.9697 11.5095 31.3368 10.36C30.3865 10.9247 29.3314 11.3335 28.2107 11.5551C27.3123 10.5984 26.0316 10 24.6165 10C21.8975 10 19.6928 12.2047 19.6928 14.9237C19.6928 15.3092 19.7368 15.6852 19.8208 16.046C15.7283 15.8412 12.1005 13.8805 9.67189 10.9015C9.24792 11.6287 9.00553 12.4742 9.00553 13.3766C9.00553 15.0845 9.87347 16.5916 11.1958 17.4747C10.3878 17.4491 9.62949 17.2275 8.96473 16.8587V16.9203C8.96473 19.3066 10.663 21.296 12.9141 21.7496C12.5013 21.8616 12.0661 21.9224 11.6174 21.9224C11.2998 21.9224 10.991 21.8912 10.6902 21.8336C11.3166 23.7895 13.1357 25.2134 15.2899 25.2534C13.6052 26.5733 11.4822 27.3612 9.17512 27.3612C8.77675 27.3612 8.38477 27.338 8 27.2916C10.1791 28.6884 12.7669 29.5043 15.5475 29.5043C24.6037 29.5043 29.5562 22.0016 29.5562 15.4956C29.5562 15.282 29.5522 15.0693 29.5418 14.8589C30.5049 14.1629 31.34 13.2958 32 12.3086Z" fill="white"/>
</svg>
